{"glyphs":{"0":{"ha":799,"x_min":47,"x_max":752,"o":"m 394 -17 q 47 471 47 -17 q 141 856 47 724 q 413 989 235 989 q 752 493 752 989 q 660 115 752 246 q 394 -17 567 -17 m 404 825 q 264 476 264 825 q 401 147 264 147 q 534 486 534 147 q 404 825 534 825 z "},"1":{"ha":799,"x_min":144,"x_max":564,"o":"m 564 994 l 564 0 l 351 0 l 351 753 q 309 723 333 737 q 258 698 285 709 q 201 679 231 687 q 144 668 172 671 l 144 848 q 301 911 227 873 q 435 994 375 949 l 564 994 z "},"2":{"ha":799,"x_min":56,"x_max":705,"o":"m 291 178 l 703 178 l 703 0 l 56 0 l 56 73 q 81 207 56 148 q 144 314 106 267 q 228 397 182 361 q 313 463 273 433 q 388 521 356 493 q 443 576 420 549 q 475 632 465 604 q 486 692 486 660 q 451 786 486 754 q 343 818 416 818 q 103 718 218 818 l 103 907 q 389 989 230 989 q 522 969 463 989 q 621 914 581 950 q 683 827 662 878 q 705 713 705 776 q 684 593 705 646 q 629 498 663 541 q 550 420 595 456 q 457 351 505 385 q 394 306 425 328 q 341 261 364 283 q 304 218 318 239 q 291 178 291 197 z "},"3":{"ha":799,"x_min":79,"x_max":699,"o":"m 79 32 l 79 218 q 307 147 177 147 q 435 182 389 147 q 481 281 481 218 q 424 381 481 346 q 269 416 368 416 l 178 416 l 178 581 l 262 581 q 452 707 452 581 q 306 825 452 825 q 116 762 208 825 l 116 937 q 355 989 218 989 q 587 922 504 989 q 670 747 670 854 q 477 509 670 557 l 477 505 q 640 430 580 492 q 699 278 699 368 q 600 62 699 142 q 324 -17 500 -17 q 79 32 174 -17 z "},"4":{"ha":799,"x_min":26,"x_max":762,"o":"m 646 972 l 646 359 l 762 359 l 762 199 l 646 199 l 646 0 l 450 0 l 450 199 l 26 199 l 26 367 q 143 505 83 430 q 260 659 203 580 q 365 819 316 739 q 447 972 413 899 l 646 972 m 218 359 l 450 359 l 450 699 q 399 610 427 655 q 340 521 371 565 q 279 436 310 477 q 218 359 248 395 z "},"5":{"ha":799,"x_min":96,"x_max":707,"o":"m 96 25 l 96 208 q 309 147 196 147 q 441 188 393 147 q 489 297 489 228 q 285 441 489 441 q 111 430 210 441 l 148 972 l 663 972 l 663 798 l 311 798 l 298 603 q 388 607 350 607 q 623 528 538 607 q 707 317 707 450 q 606 76 707 170 q 332 -17 505 -17 q 96 25 192 -17 z "},"6":{"ha":799,"x_min":68,"x_max":753,"o":"m 753 323 q 728 189 753 252 q 658 81 703 127 q 551 9 613 35 q 416 -17 490 -17 q 270 14 334 -17 q 160 102 205 44 q 92 244 115 160 q 68 435 68 328 q 99 662 68 560 q 187 837 130 764 q 326 949 244 909 q 509 989 407 989 q 684 962 621 989 l 684 783 q 522 825 610 825 q 424 804 468 825 q 348 745 380 783 q 299 651 317 706 q 279 530 281 597 l 283 530 q 488 625 353 625 q 597 604 548 625 q 680 542 646 582 q 734 447 715 503 q 753 323 753 391 m 543 310 q 415 467 543 467 q 362 456 386 467 q 321 425 338 445 q 295 379 304 406 q 286 319 286 352 q 296 252 286 283 q 322 198 305 221 q 363 161 340 174 q 416 147 387 147 q 469 159 446 147 q 509 192 492 171 q 534 244 526 214 q 543 310 543 274 z "},"7":{"ha":799,"x_min":65,"x_max":742,"o":"m 742 849 q 625 629 677 732 q 534 426 574 526 q 467 223 495 326 q 422 0 439 119 l 198 0 q 248 218 217 113 q 320 422 279 323 q 411 614 361 521 q 517 798 461 708 l 65 798 l 65 972 l 742 972 l 742 849 z "},"8":{"ha":799,"x_min":54,"x_max":745,"o":"m 54 262 q 66 340 54 302 q 102 410 78 378 q 161 468 125 442 q 245 509 197 493 q 130 603 171 546 q 90 730 90 661 q 113 833 90 786 q 178 916 136 881 q 276 969 219 950 q 401 989 334 989 q 528 969 471 989 q 628 916 586 950 q 692 835 669 882 q 715 733 715 788 q 672 607 715 664 q 552 514 629 551 q 635 472 600 498 q 696 414 671 447 q 732 343 720 382 q 745 264 745 305 q 720 150 745 201 q 649 62 694 99 q 539 5 603 25 q 399 -16 476 -16 q 261 4 324 -16 q 152 61 197 24 q 80 149 106 98 q 54 262 54 200 m 257 280 q 267 220 257 247 q 296 176 277 194 q 341 148 315 157 q 400 138 368 138 q 457 148 431 138 q 503 176 484 158 q 532 221 522 195 q 543 280 543 248 q 533 336 543 309 q 504 381 523 362 q 459 412 485 401 q 400 424 433 424 q 343 413 370 424 q 298 384 317 403 q 268 338 279 364 q 257 280 257 311 m 287 711 q 296 662 287 685 q 321 623 305 640 q 358 597 336 606 q 403 587 379 587 q 448 597 427 587 q 485 623 469 606 q 510 663 501 640 q 519 711 519 685 q 511 760 519 737 q 486 799 502 783 q 449 825 470 816 q 403 835 427 835 q 356 825 377 835 q 319 799 334 815 q 295 759 304 782 q 287 711 287 736 z "},"9":{"ha":799,"x_min":53,"x_max":737,"o":"m 737 533 q 709 301 737 404 q 626 129 680 199 q 492 21 571 58 q 314 -17 414 -17 q 109 21 195 -17 l 109 197 q 293 147 185 147 q 466 222 404 147 q 529 440 528 298 l 525 441 q 329 346 460 346 q 219 368 269 346 q 131 430 168 391 q 74 525 94 470 q 53 646 53 580 q 78 785 53 722 q 148 894 103 848 q 256 964 193 939 q 396 989 319 989 q 538 958 475 989 q 646 869 602 927 q 714 726 690 810 q 737 533 737 641 m 521 647 q 511 717 521 684 q 485 774 502 750 q 444 811 468 798 q 390 825 419 825 q 339 813 362 825 q 298 780 315 801 q 272 728 281 758 q 262 664 262 699 q 272 596 262 626 q 299 547 281 567 q 340 516 316 526 q 395 505 365 505 q 446 516 423 505 q 486 547 469 528 q 512 591 503 566 q 521 647 521 617 z "},"\r":{"ha":0,"x_min":0,"x_max":0,"o":""}," ":{"ha":383,"x_min":0,"x_max":0,"o":""},"!":{"ha":454,"x_min":103,"x_max":351,"o":"m 339 972 l 313 302 l 139 302 l 114 972 l 339 972 m 228 -16 q 138 17 174 -16 q 103 97 103 50 q 139 177 103 146 q 228 208 174 208 q 317 177 282 208 q 351 97 351 145 q 317 16 351 48 q 228 -16 283 -16 z "},"\"":{"ha":685,"x_min":119,"x_max":566,"o":"m 566 985 l 545 684 l 408 684 l 387 985 l 566 985 m 297 985 l 277 685 l 139 685 l 119 985 l 297 985 z "},"#":{"ha":823,"x_min":25,"x_max":798,"o":"m 798 725 l 771 603 l 646 603 l 608 435 l 749 435 l 718 313 l 583 313 l 530 78 l 395 78 l 444 313 l 289 313 l 239 78 l 103 78 l 151 313 l 25 313 l 50 435 l 178 435 l 214 603 l 77 603 l 100 725 l 239 725 l 289 966 l 428 966 l 378 725 l 533 725 l 585 966 l 722 966 l 672 725 l 798 725 m 509 603 l 351 603 l 314 435 l 471 435 l 509 603 z "},"$":{"ha":799,"x_min":83,"x_max":734,"o":"m 457 5 l 457 -142 l 358 -142 l 358 1 q 102 64 220 2 l 102 252 q 219 193 141 220 q 358 161 297 165 l 358 408 q 141 536 199 467 q 83 704 83 605 q 159 885 83 810 q 358 972 234 960 l 358 1099 l 457 1099 l 457 975 q 671 929 600 968 l 671 746 q 457 817 576 804 l 457 559 q 670 437 606 506 q 734 271 734 368 q 663 89 734 158 q 457 5 591 20 m 358 599 l 358 814 q 264 715 264 797 q 358 599 264 646 m 457 370 l 457 164 q 554 261 554 179 q 457 370 554 328 z "},"%":{"ha":1204,"x_min":61,"x_max":1143,"o":"m 292 479 q 124 545 188 479 q 61 722 61 611 q 129 915 61 844 q 309 986 196 986 q 477 922 416 986 q 538 741 538 857 q 471 550 538 621 q 292 479 404 479 m 304 867 q 205 729 205 867 q 300 599 205 599 q 396 734 396 599 q 304 867 396 867 m 1002 972 l 368 0 l 203 0 l 835 972 l 1002 972 m 897 -14 q 730 52 793 -14 q 667 229 667 118 q 734 422 667 351 q 914 493 802 493 q 1083 429 1023 493 q 1143 249 1143 366 q 1076 58 1143 129 q 897 -14 1009 -14 m 908 374 q 810 236 810 374 q 905 106 810 106 q 1002 241 1002 106 q 976 339 1002 304 q 908 374 950 374 z "},"&":{"ha":1180,"x_min":51,"x_max":1158,"o":"m 1003 -16 q 935 -6 967 -16 q 874 20 903 3 q 819 58 845 36 q 770 105 793 80 q 710 63 745 85 q 630 24 675 41 q 532 -4 586 7 q 418 -16 479 -16 q 271 3 338 -16 q 155 60 203 22 q 78 153 106 98 q 51 282 51 209 q 72 385 51 340 q 125 464 92 430 q 201 522 159 498 q 286 563 243 547 q 244 601 265 579 q 205 647 222 622 q 178 703 189 673 q 168 766 168 732 q 189 861 168 819 q 250 930 211 902 q 343 974 289 959 q 463 989 397 989 q 577 973 525 989 q 666 930 629 958 q 724 863 703 902 q 744 777 744 824 q 699 647 744 702 q 572 557 654 591 q 634 523 604 542 q 692 479 664 504 q 748 424 721 455 q 802 353 775 393 q 881 502 857 423 q 905 667 905 581 q 902 716 905 692 q 892 760 899 740 l 1075 760 q 1086 718 1082 739 q 1089 670 1089 698 q 1075 542 1089 604 q 1036 422 1061 479 q 976 315 1011 366 q 897 220 940 264 q 966 166 930 185 q 1032 148 1001 148 q 1099 155 1065 148 q 1158 175 1133 162 l 1158 14 q 1084 -8 1120 -1 q 1003 -16 1048 -16 m 429 146 q 504 154 469 146 q 570 175 539 162 q 628 205 602 188 q 677 240 655 222 q 609 332 643 294 q 542 396 575 370 q 476 441 509 423 q 410 475 443 460 q 356 445 382 461 q 311 406 331 428 q 280 356 292 384 q 268 291 268 328 q 279 232 268 258 q 312 186 291 205 q 363 157 334 168 q 429 146 393 146 m 554 762 q 547 798 554 782 q 526 824 539 813 q 497 840 513 834 q 463 846 481 846 q 421 839 440 846 q 389 821 403 832 q 368 793 375 809 q 360 759 360 777 q 384 689 360 721 q 443 637 408 657 q 485 656 465 646 q 520 682 505 667 q 545 717 536 697 q 554 762 554 736 z "},"'":{"ha":407,"x_min":115,"x_max":292,"o":"m 292 985 l 271 685 l 135 685 l 115 985 l 292 985 z "},"(":{"ha":513,"x_min":107,"x_max":501,"o":"m 501 -221 l 326 -221 q 107 372 107 20 q 326 972 107 712 l 500 972 q 294 372 294 700 q 501 -221 294 45 z "},")":{"ha":513,"x_min":12,"x_max":407,"o":"m 186 -221 l 12 -221 q 220 372 220 43 q 12 972 220 699 l 187 972 q 407 372 407 711 q 186 -221 407 23 z "},"*":{"ha":632,"x_min":47,"x_max":586,"o":"m 586 714 l 400 689 l 533 546 l 410 461 l 317 633 l 224 461 l 100 546 l 233 689 l 47 714 l 96 851 l 267 778 l 237 972 l 396 972 l 367 778 l 536 851 l 586 714 z "},"+":{"ha":982,"x_min":161,"x_max":822,"o":"m 822 329 l 561 329 l 561 68 l 424 68 l 424 329 l 161 329 l 161 467 l 424 467 l 424 729 l 561 729 l 561 467 l 822 467 l 822 329 z "},",":{"ha":376,"x_min":26,"x_max":293,"o":"m 293 171 l 193 -172 l 26 -172 l 96 171 l 293 171 z "},"-":{"ha":562,"x_min":97,"x_max":468,"o":"m 468 296 l 97 296 l 97 446 l 468 446 l 468 296 z "},".":{"ha":376,"x_min":62,"x_max":314,"o":"m 186 -17 q 98 16 133 -17 q 62 96 62 48 q 99 176 62 144 q 189 207 135 207 q 279 175 244 207 q 314 96 314 144 q 278 15 314 46 q 186 -17 243 -17 z "},"/":{"ha":616,"x_min":-33,"x_max":632,"o":"m 632 972 l 158 -161 l -33 -161 l 439 972 l 632 972 z "},":":{"ha":376,"x_min":62,"x_max":314,"o":"m 186 479 q 98 512 133 479 q 62 591 62 544 q 99 671 62 640 q 189 703 135 703 q 279 671 244 703 q 314 591 314 640 q 278 511 314 542 q 186 479 243 479 m 186 -17 q 98 16 133 -17 q 62 96 62 48 q 99 176 62 144 q 189 207 135 207 q 279 175 244 207 q 314 96 314 144 q 278 15 314 46 q 186 -17 243 -17 z "},";":{"ha":376,"x_min":26,"x_max":317,"o":"m 191 479 q 102 512 137 479 q 66 591 66 545 q 102 672 66 641 q 192 703 138 703 q 282 671 247 703 q 317 591 317 640 q 282 511 317 542 q 191 479 248 479 m 293 171 l 193 -172 l 26 -172 l 96 171 l 293 171 z "},"<":{"ha":982,"x_min":175,"x_max":808,"o":"m 808 43 l 175 332 l 175 441 l 808 745 l 808 583 l 357 390 l 357 386 l 808 204 l 808 43 z "},"=":{"ha":982,"x_min":161,"x_max":822,"o":"m 822 475 l 161 475 l 161 614 l 822 614 l 822 475 m 822 180 l 161 180 l 161 318 l 822 318 l 822 180 z "},">":{"ha":982,"x_min":175,"x_max":808,"o":"m 808 340 l 175 52 l 175 212 l 628 393 l 628 396 l 175 590 l 175 751 l 808 450 l 808 340 z "},"?":{"ha":608,"x_min":42,"x_max":581,"o":"m 178 281 q 168 321 172 299 q 164 363 164 343 q 170 420 164 394 q 189 468 176 446 q 219 512 201 491 q 262 553 237 532 q 307 593 288 574 q 340 630 326 612 q 360 669 353 649 q 367 713 367 689 q 359 752 367 734 q 338 783 352 770 q 304 804 324 796 q 260 811 284 811 q 150 789 207 811 q 42 722 93 767 l 42 926 q 156 973 94 958 q 283 989 218 989 q 401 975 347 989 q 495 931 455 961 q 558 855 536 901 q 581 743 581 808 q 572 668 581 702 q 544 605 562 635 q 498 548 526 575 q 436 491 471 520 q 394 454 412 471 q 365 421 376 437 q 347 386 353 404 q 340 343 340 367 q 345 310 340 327 q 357 281 349 293 l 178 281 m 277 -16 q 187 17 223 -16 q 151 97 151 51 q 187 176 151 144 q 277 208 223 208 q 366 176 331 208 q 401 97 401 145 q 367 16 401 48 q 277 -16 332 -16 z "},"@":{"ha":1325,"x_min":92,"x_max":1236,"o":"m 761 252 l 757 252 q 585 122 709 122 q 434 190 491 122 q 376 378 376 258 q 456 630 376 533 q 647 728 535 728 q 774 648 748 728 l 777 648 l 783 715 l 936 715 q 905 338 905 427 q 957 243 905 243 q 1046 315 1011 243 q 1082 503 1082 387 q 981 763 1082 661 q 699 864 880 864 q 376 729 505 864 q 248 399 248 593 q 361 102 248 210 q 675 -7 475 -7 q 954 52 827 -7 l 954 -78 q 656 -127 838 -127 q 249 16 406 -127 q 92 401 92 159 q 259 817 92 648 q 690 985 427 985 q 1085 854 935 985 q 1236 510 1236 724 q 1144 228 1236 334 q 916 122 1052 122 q 806 158 848 122 q 761 252 764 194 m 671 610 q 571 540 610 610 q 533 379 533 471 q 559 278 533 314 q 627 241 585 241 q 727 310 690 241 q 764 493 764 378 q 738 578 764 547 q 671 610 713 610 z "},"A":{"ha":977,"x_min":7,"x_max":966,"o":"m 966 0 l 728 0 l 659 216 l 313 216 l 244 0 l 7 0 l 361 972 l 621 972 l 966 0 m 608 385 l 504 711 q 488 799 492 748 l 482 799 q 465 714 479 756 l 359 385 l 608 385 z "},"B":{"ha":890,"x_min":111,"x_max":842,"o":"m 111 0 l 111 972 l 465 972 q 715 913 628 972 q 803 745 803 853 q 750 607 803 666 q 614 525 696 548 l 614 522 q 780 446 718 509 q 842 290 842 382 q 746 78 842 157 q 485 0 650 0 l 111 0 m 330 811 l 330 581 l 427 581 q 533 613 494 581 q 572 704 572 646 q 412 811 572 811 l 330 811 m 330 418 l 330 161 l 449 161 q 568 197 525 161 q 611 293 611 232 q 569 385 611 351 q 450 418 526 418 l 330 418 z "},"C":{"ha":867,"x_min":50,"x_max":808,"o":"m 808 35 q 530 -17 702 -17 q 178 115 307 -17 q 50 465 50 246 q 194 844 50 699 q 568 989 338 989 q 808 953 711 989 l 808 742 q 586 800 711 800 q 365 714 449 800 q 281 481 281 628 q 360 256 281 340 q 574 172 439 172 q 808 235 702 172 l 808 35 z "},"D":{"ha":1024,"x_min":111,"x_max":974,"o":"m 111 0 l 111 972 l 456 972 q 974 498 974 972 q 832 136 974 271 q 456 0 691 0 l 111 0 m 330 794 l 330 178 l 439 178 q 662 263 581 178 q 743 496 743 349 q 663 714 743 635 q 437 794 583 794 l 330 794 z "},"E":{"ha":739,"x_min":111,"x_max":694,"o":"m 694 0 l 111 0 l 111 972 l 672 972 l 672 794 l 330 794 l 330 578 l 648 578 l 648 400 l 330 400 l 330 178 l 694 178 l 694 0 z "},"F":{"ha":722,"x_min":111,"x_max":673,"o":"m 673 794 l 330 794 l 330 555 l 646 555 l 646 378 l 330 378 l 330 0 l 111 0 l 111 972 l 673 972 l 673 794 z "},"G":{"ha":987,"x_min":50,"x_max":909,"o":"m 909 65 q 555 -17 767 -17 q 185 113 321 -17 q 50 471 50 243 q 198 844 50 700 q 591 989 346 989 q 864 946 746 989 l 864 741 q 589 806 751 806 q 367 717 452 806 q 281 481 281 629 q 358 249 281 331 q 566 167 435 167 q 690 189 644 167 l 690 379 l 496 379 l 496 554 l 909 554 l 909 65 z "},"H":{"ha":1064,"x_min":111,"x_max":953,"o":"m 953 0 l 733 0 l 733 396 l 330 396 l 330 0 l 111 0 l 111 972 l 330 972 l 330 585 l 733 585 l 733 972 l 953 972 l 953 0 z "},"I":{"ha":440,"x_min":30,"x_max":412,"o":"m 412 972 l 412 803 l 330 803 l 330 170 l 412 170 l 412 0 l 30 0 l 30 170 l 111 170 l 111 803 l 30 803 l 30 972 l 412 972 z "},"J":{"ha":618,"x_min":22,"x_max":517,"o":"m 517 386 q 426 87 517 191 q 164 -17 336 -17 q 22 9 87 -17 l 22 215 q 149 172 79 172 q 298 395 298 172 l 298 972 l 517 972 l 517 386 z "},"K":{"ha":901,"x_min":111,"x_max":920,"o":"m 920 0 l 643 0 l 359 422 q 334 476 351 435 l 330 476 l 330 0 l 111 0 l 111 972 l 330 972 l 330 513 l 334 513 q 361 567 342 532 l 629 972 l 890 972 l 551 509 l 920 0 z "},"L":{"ha":710,"x_min":111,"x_max":690,"o":"m 690 0 l 111 0 l 111 972 l 330 972 l 330 178 l 690 178 l 690 0 z "},"M":{"ha":1329,"x_min":111,"x_max":1219,"o":"m 1219 0 l 1003 0 l 1003 582 q 1011 790 1003 676 l 1006 790 q 975 661 989 701 l 747 0 l 568 0 l 336 654 q 306 790 327 681 l 300 790 q 309 538 309 646 l 309 0 l 111 0 l 111 972 l 432 972 l 631 396 q 665 257 654 327 l 669 257 q 708 397 688 338 l 907 972 l 1219 972 l 1219 0 z "},"N":{"ha":1097,"x_min":111,"x_max":986,"o":"m 986 0 l 765 0 l 364 611 q 315 692 329 665 l 313 692 q 318 534 318 640 l 318 0 l 111 0 l 111 972 l 347 972 l 733 380 q 782 301 760 340 l 785 301 q 779 435 779 335 l 779 972 l 986 972 l 986 0 z "},"O":{"ha":1053,"x_min":50,"x_max":1003,"o":"m 522 -17 q 182 119 313 -17 q 50 473 50 255 q 184 846 50 704 q 538 989 317 989 q 874 852 746 989 q 1003 493 1003 716 q 870 123 1003 264 q 522 -17 736 -17 m 532 800 q 349 714 416 800 q 281 485 281 627 q 349 256 281 340 q 526 172 416 172 q 706 254 640 172 q 772 481 772 336 q 708 716 772 632 q 532 800 644 800 z "},"P":{"ha":853,"x_min":111,"x_max":822,"o":"m 330 335 l 330 0 l 111 0 l 111 972 l 454 972 q 822 663 822 972 q 716 426 822 516 q 435 335 611 335 l 330 335 m 330 804 l 330 501 l 416 501 q 591 654 591 501 q 416 804 591 804 l 330 804 z "},"Q":{"ha":1053,"x_min":50,"x_max":1074,"o":"m 532 800 q 349 713 417 800 q 281 485 281 627 q 348 256 281 341 q 526 172 416 172 q 706 254 640 172 q 772 481 772 336 q 709 715 772 631 q 532 800 645 800 m 705 18 q 772 -44 741 -20 q 837 -83 804 -68 q 903 -102 869 -97 q 977 -108 937 -108 q 1000 -107 987 -108 q 1026 -103 1013 -106 q 1052 -98 1040 -101 q 1074 -91 1064 -95 l 1074 -275 q 1014 -288 1053 -281 q 921 -294 976 -294 q 799 -272 854 -294 q 691 -213 743 -250 q 592 -124 640 -175 q 491 -15 543 -73 q 310 26 391 -12 q 171 131 229 65 q 82 284 113 196 q 50 473 50 372 q 183 846 50 705 q 539 989 317 989 q 874 852 746 989 q 1003 493 1003 716 q 924 193 1003 319 q 705 18 846 69 z "},"R":{"ha":907,"x_min":111,"x_max":927,"o":"m 927 0 l 675 0 l 524 250 q 492 301 507 279 q 460 339 476 323 q 427 364 444 355 q 389 372 410 372 l 330 372 l 330 0 l 111 0 l 111 972 l 458 972 q 812 708 812 972 q 797 614 812 657 q 753 536 781 571 q 684 477 724 502 q 594 437 644 452 l 594 435 q 636 413 616 428 q 675 377 656 397 q 712 333 694 357 q 743 288 729 310 l 927 0 m 330 808 l 330 538 l 425 538 q 538 578 496 538 q 582 681 582 620 q 429 808 582 808 l 330 808 z "},"S":{"ha":779,"x_min":62,"x_max":730,"o":"m 66 37 l 66 254 q 195 180 125 205 q 334 155 264 155 q 407 163 376 155 q 458 183 437 170 q 489 215 479 197 q 499 254 499 233 q 483 304 499 282 q 438 346 467 327 q 372 382 410 365 q 288 418 333 400 q 118 534 174 466 q 62 700 62 603 q 93 830 62 776 q 176 920 123 885 q 298 972 229 956 q 444 989 367 989 q 579 980 520 989 q 687 951 637 970 l 687 749 q 634 779 663 766 q 574 800 605 791 q 514 812 544 808 q 456 817 484 817 q 389 809 419 817 q 337 789 358 802 q 304 759 316 777 q 293 718 293 741 q 306 674 293 694 q 342 638 319 655 q 400 604 366 621 q 477 570 434 587 q 582 518 535 545 q 661 456 628 490 q 712 377 694 421 q 730 273 730 332 q 699 137 730 192 q 615 47 668 81 q 492 -2 562 13 q 344 -17 422 -17 q 192 -3 264 -17 q 66 37 119 10 z "},"T":{"ha":814,"x_min":21,"x_max":794,"o":"m 794 794 l 517 794 l 517 0 l 297 0 l 297 794 l 21 794 l 21 972 l 794 972 l 794 794 z "},"U":{"ha":1004,"x_min":100,"x_max":904,"o":"m 904 421 q 496 -17 904 -17 q 100 411 100 -17 l 100 972 l 319 972 l 319 408 q 504 172 319 172 q 685 400 685 172 l 685 972 l 904 972 l 904 421 z "},"V":{"ha":926,"x_min":7,"x_max":921,"o":"m 921 972 l 586 0 l 338 0 l 7 972 l 243 972 l 446 296 q 465 199 462 241 l 469 199 q 490 298 474 244 l 692 972 l 921 972 z "},"W":{"ha":1396,"x_min":12,"x_max":1383,"o":"m 1383 972 l 1126 0 l 884 0 l 722 624 q 707 733 709 673 l 704 733 q 686 624 698 667 l 521 0 l 268 0 l 12 972 l 252 972 l 389 325 q 401 214 397 283 l 406 214 q 425 328 408 266 l 602 972 l 836 972 l 996 319 q 1011 215 1004 283 l 1014 215 q 1028 323 1017 269 l 1162 972 l 1383 972 z "},"X":{"ha":910,"x_min":4,"x_max":905,"o":"m 905 0 l 646 0 l 478 317 q 458 382 469 334 l 456 382 q 433 314 451 359 l 265 0 l 4 0 l 314 486 l 31 972 l 297 972 l 436 681 q 465 599 452 646 l 468 599 q 498 684 476 627 l 653 972 l 897 972 l 606 490 l 905 0 z "},"Y":{"ha":843,"x_min":0,"x_max":844,"o":"m 844 972 l 528 346 l 528 0 l 309 0 l 309 342 l 0 972 l 250 972 l 407 610 q 429 530 411 600 l 432 530 q 453 607 441 579 l 612 972 l 844 972 z "},"Z":{"ha":843,"x_min":28,"x_max":811,"o":"m 811 0 l 28 0 l 28 126 l 526 794 l 64 794 l 64 972 l 810 972 l 810 850 l 322 178 l 811 178 l 811 0 z "},"[":{"ha":513,"x_min":147,"x_max":465,"o":"m 465 -221 l 147 -221 l 147 972 l 465 972 l 465 836 l 323 836 l 323 -85 l 465 -85 l 465 -221 z "},"\\":{"ha":606,"x_min":0,"x_max":652,"o":"m 652 -161 l 463 -161 l 0 972 l 191 972 l 652 -161 z "},"]":{"ha":513,"x_min":47,"x_max":367,"o":"m 367 -221 l 47 -221 l 47 -85 l 191 -85 l 191 836 l 47 836 l 47 972 l 367 972 l 367 -221 z "},"^":{"ha":982,"x_min":138,"x_max":847,"o":"m 847 414 l 682 414 l 488 811 l 485 811 l 301 414 l 138 414 l 429 989 l 539 989 l 847 414 z "},"_":{"ha":576,"x_min":0,"x_max":576,"o":"m 576 -201 l 0 -201 l 0 -121 l 576 -121 l 576 -201 z "},"`":{"ha":436,"x_min":37,"x_max":404,"o":"m 404 804 l 250 804 l 37 1023 l 228 1023 l 404 804 z "},"a":{"ha":747,"x_min":39,"x_max":668,"o":"m 668 0 l 465 0 l 465 100 l 463 100 q 256 -17 393 -17 q 97 40 155 -17 q 39 193 39 98 q 278 427 39 395 l 467 452 q 343 566 467 566 q 107 492 219 566 l 107 653 q 230 694 152 676 q 371 711 307 711 q 668 415 668 711 l 668 0 m 467 282 l 467 329 l 340 313 q 236 218 236 299 q 261 158 236 182 q 330 135 287 135 q 429 177 391 135 q 467 282 467 218 z "},"b":{"ha":861,"x_min":90,"x_max":812,"o":"m 307 81 l 304 81 l 304 0 l 90 0 l 90 1028 l 304 1028 l 304 590 l 307 590 q 533 711 387 711 q 740 619 667 711 q 812 367 812 527 q 728 88 812 193 q 501 -17 643 -17 q 307 81 373 -17 m 301 374 l 301 302 q 340 191 301 235 q 439 147 378 147 q 552 204 512 147 q 593 364 593 260 q 556 499 593 450 q 450 547 519 547 q 343 499 386 547 q 301 374 301 451 z "},"c":{"ha":667,"x_min":49,"x_max":616,"o":"m 616 25 q 407 -17 544 -17 q 148 80 247 -17 q 49 330 49 177 q 155 609 49 507 q 439 711 261 711 q 616 679 562 711 l 616 497 q 467 547 549 547 q 320 493 374 547 q 267 345 267 439 q 318 200 267 252 q 460 147 370 147 q 616 197 540 147 l 616 25 z "},"d":{"ha":860,"x_min":49,"x_max":770,"o":"m 770 0 l 555 0 l 555 96 l 553 96 q 338 -17 479 -17 q 128 75 208 -17 q 49 332 49 167 q 136 608 49 504 q 366 711 224 711 q 553 615 500 711 l 555 615 l 555 1028 l 770 1028 l 770 0 m 559 338 l 559 390 q 520 503 559 458 q 418 547 481 547 q 307 491 347 547 q 267 338 267 435 q 305 197 267 246 q 412 147 344 147 q 518 199 477 147 q 559 338 559 252 z "},"e":{"ha":751,"x_min":49,"x_max":714,"o":"m 714 286 l 261 286 q 452 135 272 135 q 653 189 566 135 l 653 35 q 403 -17 557 -17 q 142 76 235 -17 q 49 336 49 170 q 149 610 49 509 q 396 711 250 711 q 631 621 548 711 q 714 376 714 531 l 714 286 m 515 418 q 395 567 515 567 q 306 524 343 567 q 260 418 268 481 l 515 418 z "},"f":{"ha":532,"x_min":31,"x_max":543,"o":"m 543 864 q 464 880 502 880 q 361 768 361 880 l 361 694 l 519 694 l 519 536 l 361 536 l 361 0 l 147 0 l 147 536 l 31 536 l 31 694 l 147 694 l 147 781 q 224 972 147 899 q 435 1044 302 1044 q 543 1031 500 1044 l 543 864 z "},"g":{"ha":860,"x_min":49,"x_max":771,"o":"m 771 79 q 659 -220 771 -114 q 335 -326 547 -326 q 113 -286 195 -326 l 113 -106 q 329 -168 220 -168 q 497 -111 437 -168 q 557 45 557 -54 l 557 100 l 554 100 q 338 -17 481 -17 q 127 77 205 -17 q 49 328 49 170 q 136 608 49 504 q 364 711 222 711 q 554 614 491 711 l 557 614 l 557 694 l 771 694 l 771 79 m 559 334 l 559 389 q 520 501 559 454 q 419 547 481 547 q 307 492 348 547 q 267 335 267 436 q 305 198 267 248 q 411 147 344 147 q 518 198 477 147 q 559 334 559 250 z "},"h":{"ha":836,"x_min":90,"x_max":757,"o":"m 757 0 l 543 0 l 543 395 q 432 547 543 547 q 340 505 375 547 q 304 396 304 462 l 304 0 l 90 0 l 90 1028 l 304 1028 l 304 591 l 307 591 q 521 711 386 711 q 757 427 757 711 l 757 0 z "},"i":{"ha":395,"x_min":75,"x_max":322,"o":"m 199 804 q 110 837 144 804 q 75 916 75 869 q 110 994 75 964 q 199 1025 144 1025 q 288 994 254 1025 q 322 916 322 964 q 288 836 322 867 q 199 804 254 804 m 304 0 l 90 0 l 90 694 l 304 694 l 304 0 z "},"j":{"ha":395,"x_min":-90,"x_max":322,"o":"m 199 804 q 110 837 144 804 q 75 916 75 869 q 110 994 75 964 q 199 1025 144 1025 q 288 994 254 1025 q 322 916 322 964 q 288 836 322 867 q 199 804 254 804 m 304 12 q 229 -234 304 -142 q 12 -326 154 -326 q -90 -306 -35 -326 l -90 -138 q -11 -163 -45 -163 q 90 -4 90 -163 l 90 694 l 304 694 l 304 12 z "},"k":{"ha":777,"x_min":90,"x_max":786,"o":"m 786 0 l 529 0 l 307 345 l 304 345 l 304 0 l 90 0 l 90 1028 l 304 1028 l 304 374 l 307 374 l 514 694 l 768 694 l 519 368 l 786 0 z "},"l":{"ha":395,"x_min":90,"x_max":304,"o":"m 304 0 l 90 0 l 90 1028 l 304 1028 l 304 0 z "},"m":{"ha":1272,"x_min":90,"x_max":1193,"o":"m 1193 0 l 979 0 l 979 396 q 868 547 979 547 q 782 502 815 547 q 749 389 749 456 l 749 0 l 534 0 l 534 400 q 425 547 534 547 q 337 504 370 547 q 304 386 304 460 l 304 0 l 90 0 l 90 694 l 304 694 l 304 586 l 307 586 q 400 676 340 642 q 532 711 460 711 q 733 582 679 711 q 966 711 812 711 q 1193 432 1193 711 l 1193 0 z "},"n":{"ha":840,"x_min":90,"x_max":761,"o":"m 761 0 l 547 0 l 547 386 q 432 547 547 547 q 340 505 376 547 q 304 396 304 462 l 304 0 l 90 0 l 90 694 l 304 694 l 304 585 l 307 585 q 530 711 384 711 q 761 425 761 711 l 761 0 z "},"o":{"ha":849,"x_min":49,"x_max":800,"o":"m 421 -17 q 148 80 248 -17 q 49 345 49 178 q 152 614 49 517 q 431 711 255 711 q 702 614 604 711 q 800 357 800 517 q 699 83 800 184 q 421 -17 597 -17 m 427 547 q 309 495 351 547 q 267 347 267 443 q 428 147 267 147 q 582 353 582 147 q 427 547 582 547 z "},"p":{"ha":861,"x_min":90,"x_max":812,"o":"m 307 81 l 304 81 l 304 -319 l 90 -319 l 90 694 l 304 694 l 304 590 l 307 590 q 530 711 387 711 q 739 619 665 711 q 812 367 812 526 q 727 88 812 193 q 498 -17 641 -17 q 307 81 373 -17 m 301 366 l 301 310 q 339 193 301 238 q 439 147 377 147 q 552 204 512 147 q 593 364 593 260 q 450 547 593 547 q 343 497 385 547 q 301 366 301 448 z "},"q":{"ha":860,"x_min":49,"x_max":770,"o":"m 770 -319 l 555 -319 l 555 96 l 553 96 q 339 -17 480 -17 q 129 74 208 -17 q 49 330 49 165 q 136 608 49 504 q 364 711 224 711 q 553 614 492 711 l 555 614 l 555 694 l 770 694 l 770 -319 m 559 332 l 559 387 q 520 501 559 455 q 419 547 481 547 q 307 491 348 547 q 267 336 267 435 q 306 197 267 248 q 410 147 346 147 q 518 198 477 147 q 559 332 559 249 z "},"r":{"ha":553,"x_min":90,"x_max":543,"o":"m 543 501 q 453 522 505 522 q 344 471 383 522 q 304 332 304 420 l 304 0 l 90 0 l 90 694 l 304 694 l 304 566 l 307 566 q 490 707 358 707 q 543 699 524 707 l 543 501 z "},"s":{"ha":611,"x_min":45,"x_max":578,"o":"m 45 18 l 45 192 q 150 144 98 160 q 250 129 203 129 q 339 144 307 129 q 372 192 372 160 q 357 226 372 212 q 319 250 342 239 q 268 268 296 260 q 214 286 240 276 q 141 320 173 302 q 89 361 110 338 q 56 416 67 385 q 45 490 45 448 q 70 591 45 549 q 138 660 96 633 q 235 699 180 686 q 349 711 290 711 q 442 704 395 711 q 536 684 490 697 l 536 518 q 449 554 495 542 q 357 566 402 566 q 318 562 336 566 q 285 551 299 558 q 262 533 271 544 q 254 507 254 522 q 267 475 254 488 q 298 451 279 461 q 342 434 318 441 q 390 418 366 426 q 467 385 433 403 q 527 344 502 368 q 565 288 551 320 q 578 212 578 256 q 551 107 578 151 q 480 36 524 63 q 377 -4 435 8 q 257 -17 319 -17 q 45 18 142 -17 z "},"t":{"ha":541,"x_min":28,"x_max":510,"o":"m 510 8 q 367 -17 463 -17 q 140 218 140 -17 l 140 536 l 28 536 l 28 694 l 140 694 l 140 844 l 354 905 l 354 694 l 510 694 l 510 536 l 354 536 l 354 256 q 440 147 354 147 q 510 167 474 147 l 510 8 z "},"u":{"ha":840,"x_min":79,"x_max":750,"o":"m 750 0 l 536 0 l 536 106 l 533 106 q 321 -17 454 -17 q 79 275 79 -17 l 79 694 l 293 694 l 293 294 q 410 147 293 147 q 502 188 467 147 q 536 297 536 228 l 536 694 l 750 694 l 750 0 z "},"v":{"ha":753,"x_min":3,"x_max":751,"o":"m 751 694 l 493 0 l 249 0 l 3 694 l 232 694 l 353 267 q 376 143 373 194 l 379 143 q 404 262 384 191 l 528 694 l 751 694 z "},"w":{"ha":1107,"x_min":11,"x_max":1096,"o":"m 1096 694 l 896 0 l 671 0 l 568 407 q 557 496 558 448 l 553 496 q 539 410 548 443 l 429 0 l 207 0 l 11 694 l 229 694 l 325 241 q 335 164 332 210 l 339 164 q 351 244 342 212 l 471 694 l 675 694 l 782 241 q 791 163 786 224 l 796 163 q 807 241 800 202 l 897 694 l 1096 694 z "},"x":{"ha":767,"x_min":5,"x_max":761,"o":"m 761 694 l 532 358 l 760 0 l 513 0 l 412 187 q 383 250 400 210 l 380 250 q 353 189 370 222 l 252 0 l 5 0 l 240 346 l 20 694 l 268 694 l 367 500 q 395 435 387 461 l 397 435 q 427 501 408 467 l 528 694 l 761 694 z "},"y":{"ha":747,"x_min":-3,"x_max":751,"o":"m 751 694 l 469 -56 q 163 -326 368 -326 q 35 -309 85 -326 l 35 -138 q 127 -163 77 -163 q 243 -85 210 -163 l 279 1 l -3 694 l 235 694 l 364 272 q 383 179 376 233 l 386 179 q 408 271 392 218 l 539 694 l 751 694 z "},"z":{"ha":665,"x_min":17,"x_max":640,"o":"m 640 0 l 17 0 l 17 89 l 366 536 l 52 536 l 52 694 l 637 694 l 637 589 l 307 158 l 640 158 l 640 0 z "},"{":{"ha":513,"x_min":72,"x_max":457,"o":"m 457 -221 q 242 -167 309 -221 q 175 26 175 -113 l 175 189 q 72 314 175 314 l 72 439 q 175 568 175 439 l 175 720 q 241 916 175 859 q 457 972 308 972 l 457 846 q 349 728 349 846 l 349 583 q 244 378 349 420 l 244 375 q 349 167 349 333 l 349 28 q 374 -66 349 -39 q 457 -94 399 -94 l 457 -221 z "},"|":{"ha":453,"x_min":142,"x_max":313,"o":"m 313 -326 l 142 -326 l 142 1063 l 313 1063 l 313 -326 z "},"}":{"ha":513,"x_min":57,"x_max":441,"o":"m 441 314 q 338 187 338 314 l 338 31 q 272 -167 338 -113 q 57 -221 205 -221 l 57 -94 q 140 -67 114 -94 q 165 26 165 -39 l 165 171 q 269 374 165 333 l 269 376 q 165 589 165 419 l 165 728 q 57 846 165 846 l 57 972 q 271 916 205 972 q 338 722 338 859 l 338 567 q 441 439 338 439 l 441 314 z "},"~":{"ha":982,"x_min":132,"x_max":851,"o":"m 851 524 q 790 343 847 410 q 639 277 734 277 q 464 336 567 277 q 358 379 390 379 q 271 271 275 379 l 132 271 q 193 452 136 385 q 347 518 250 518 q 509 467 423 518 q 631 414 597 414 q 689 444 666 414 q 713 524 711 474 l 851 524 z "},"Ä":{"ha":977,"x_min":7,"x_max":966,"o":"m 966 0 l 728 0 l 659 216 l 313 216 l 244 0 l 7 0 l 361 972 l 621 972 l 966 0 m 608 385 l 504 711 q 488 799 492 748 l 482 799 q 465 714 479 756 l 359 385 l 608 385 m 641 1063 q 566 1089 595 1063 q 537 1156 537 1116 q 566 1223 537 1197 q 641 1249 595 1249 q 716 1222 686 1249 q 745 1156 745 1196 q 716 1089 745 1115 q 641 1063 687 1063 m 330 1063 q 255 1089 284 1063 q 226 1156 226 1116 q 256 1222 226 1196 q 330 1249 286 1249 q 405 1222 376 1249 q 434 1156 434 1196 q 405 1088 434 1114 q 330 1063 376 1063 z "},"Å":{"ha":977,"x_min":7,"x_max":966,"o":"m 966 0 l 728 0 l 659 216 l 313 216 l 244 0 l 7 0 l 354 954 q 318 1047 318 991 q 368 1162 318 1119 q 490 1204 418 1204 q 615 1161 568 1204 q 663 1050 663 1118 q 627 957 663 996 l 966 0 m 488 1116 q 437 1096 456 1116 q 418 1048 418 1077 q 488 982 418 982 q 540 1001 520 982 q 559 1048 559 1021 q 539 1097 559 1078 q 488 1116 519 1116 m 606 396 l 503 711 q 488 793 494 739 l 482 793 q 467 714 477 747 l 363 396 l 606 396 z "},"Ç":{"ha":867,"x_min":50,"x_max":808,"o":"m 808 35 q 530 -17 702 -17 q 178 115 307 -17 q 50 465 50 246 q 194 844 50 699 q 568 989 338 989 q 808 953 711 989 l 808 742 q 586 800 711 800 q 365 714 449 800 q 281 481 281 628 q 360 256 281 340 q 574 172 439 172 q 808 235 702 172 l 808 35 m 414 -306 l 414 -212 q 463 -216 437 -216 q 546 -167 546 -216 q 471 -122 546 -122 q 446 -123 462 -122 l 446 0 l 562 0 l 562 -56 q 689 -168 689 -61 q 473 -309 689 -309 q 414 -306 442 -309 z "},"É":{"ha":739,"x_min":111,"x_max":694,"o":"m 694 0 l 111 0 l 111 972 l 672 972 l 672 794 l 330 794 l 330 578 l 648 578 l 648 400 l 330 400 l 330 178 l 694 178 l 694 0 m 633 1282 l 421 1063 l 267 1063 l 443 1282 l 633 1282 z "},"Ñ":{"ha":1097,"x_min":111,"x_max":986,"o":"m 986 0 l 765 0 l 364 611 q 315 692 329 665 l 313 692 q 318 534 318 640 l 318 0 l 111 0 l 111 972 l 347 972 l 733 380 q 782 301 760 340 l 785 301 q 779 435 779 335 l 779 972 l 986 972 l 986 0 m 818 1274 q 780 1127 818 1179 q 677 1075 743 1075 q 564 1104 619 1075 q 480 1136 503 1136 q 426 1063 426 1136 l 330 1063 q 368 1209 330 1157 q 472 1261 405 1261 q 586 1228 527 1261 q 667 1198 640 1198 q 720 1274 720 1198 l 818 1274 z "},"Ö":{"ha":1053,"x_min":50,"x_max":1003,"o":"m 522 -17 q 182 119 313 -17 q 50 473 50 255 q 184 846 50 704 q 538 989 317 989 q 874 852 746 989 q 1003 493 1003 716 q 870 123 1003 264 q 522 -17 736 -17 m 532 800 q 349 714 416 800 q 281 485 281 627 q 349 256 281 340 q 526 172 416 172 q 706 254 640 172 q 772 481 772 336 q 708 716 772 632 q 532 800 644 800 m 681 1063 q 606 1089 635 1063 q 577 1156 577 1116 q 606 1223 577 1197 q 681 1249 635 1249 q 756 1222 726 1249 q 785 1156 785 1196 q 756 1089 785 1115 q 681 1063 727 1063 m 370 1063 q 295 1089 324 1063 q 266 1156 266 1116 q 296 1222 266 1196 q 370 1249 326 1249 q 445 1222 416 1249 q 474 1156 474 1196 q 445 1088 474 1114 q 370 1063 416 1063 z "},"Ü":{"ha":1004,"x_min":100,"x_max":904,"o":"m 904 421 q 496 -17 904 -17 q 100 411 100 -17 l 100 972 l 319 972 l 319 408 q 504 172 319 172 q 685 400 685 172 l 685 972 l 904 972 l 904 421 m 657 1063 q 583 1089 612 1063 q 553 1156 553 1116 q 583 1223 553 1197 q 657 1249 612 1249 q 732 1222 703 1249 q 762 1156 762 1196 q 732 1089 762 1115 q 657 1063 703 1063 m 347 1063 q 271 1089 300 1063 q 242 1156 242 1116 q 272 1222 242 1196 q 347 1249 302 1249 q 421 1222 393 1249 q 450 1156 450 1196 q 421 1088 450 1114 q 347 1063 393 1063 z "},"á":{"ha":747,"x_min":39,"x_max":668,"o":"m 668 0 l 465 0 l 465 100 l 463 100 q 256 -17 393 -17 q 97 40 155 -17 q 39 193 39 98 q 278 427 39 395 l 467 452 q 343 566 467 566 q 107 492 219 566 l 107 653 q 230 694 152 676 q 371 711 307 711 q 668 415 668 711 l 668 0 m 467 282 l 467 329 l 340 313 q 236 218 236 299 q 261 158 236 182 q 330 135 287 135 q 429 177 391 135 q 467 282 467 218 m 604 1023 l 392 804 l 237 804 l 414 1023 l 604 1023 z "},"à":{"ha":747,"x_min":39,"x_max":668,"o":"m 668 0 l 465 0 l 465 100 l 463 100 q 256 -17 393 -17 q 97 40 155 -17 q 39 193 39 98 q 278 427 39 395 l 467 452 q 343 566 467 566 q 107 492 219 566 l 107 653 q 230 694 152 676 q 371 711 307 711 q 668 415 668 711 l 668 0 m 467 282 l 467 329 l 340 313 q 236 218 236 299 q 261 158 236 182 q 330 135 287 135 q 429 177 391 135 q 467 282 467 218 m 526 804 l 372 804 l 159 1023 l 349 1023 l 526 804 z "},"â":{"ha":747,"x_min":39,"x_max":668,"o":"m 668 0 l 465 0 l 465 100 l 463 100 q 256 -17 393 -17 q 97 40 155 -17 q 39 193 39 98 q 278 427 39 395 l 467 452 q 343 566 467 566 q 107 492 219 566 l 107 653 q 230 694 152 676 q 371 711 307 711 q 668 415 668 711 l 668 0 m 467 282 l 467 329 l 340 313 q 236 218 236 299 q 261 158 236 182 q 330 135 287 135 q 429 177 391 135 q 467 282 467 218 m 620 804 l 479 804 l 372 932 l 273 804 l 132 804 l 292 1025 l 460 1025 l 620 804 z "},"ä":{"ha":747,"x_min":39,"x_max":668,"o":"m 668 0 l 465 0 l 465 100 l 463 100 q 256 -17 393 -17 q 97 40 155 -17 q 39 193 39 98 q 278 427 39 395 l 467 452 q 343 566 467 566 q 107 492 219 566 l 107 653 q 230 694 152 676 q 371 711 307 711 q 668 415 668 711 l 668 0 m 467 282 l 467 329 l 340 313 q 236 218 236 299 q 261 158 236 182 q 330 135 287 135 q 429 177 391 135 q 467 282 467 218 m 534 804 q 459 831 488 804 q 430 897 430 857 q 459 964 430 939 q 534 990 488 990 q 609 964 579 990 q 638 897 638 938 q 609 830 638 857 q 534 804 580 804 m 223 804 q 148 831 177 804 q 119 897 119 858 q 149 964 119 938 q 223 990 178 990 q 298 964 269 990 q 327 897 327 938 q 298 830 327 856 q 223 804 269 804 z "},"ã":{"ha":747,"x_min":39,"x_max":668,"o":"m 668 0 l 465 0 l 465 100 l 463 100 q 256 -17 393 -17 q 97 40 155 -17 q 39 193 39 98 q 278 427 39 395 l 467 452 q 343 566 467 566 q 107 492 219 566 l 107 653 q 230 694 152 676 q 371 711 307 711 q 668 415 668 711 l 668 0 m 467 282 l 467 329 l 340 313 q 236 218 236 299 q 261 158 236 182 q 330 135 287 135 q 429 177 391 135 q 467 282 467 218 m 615 1015 q 577 868 615 920 q 475 817 540 817 q 361 846 416 817 q 277 878 300 878 q 223 804 223 878 l 127 804 q 165 951 127 899 q 269 1003 202 1003 q 383 970 324 1003 q 465 940 437 940 q 517 1015 517 940 l 615 1015 z "},"å":{"ha":747,"x_min":39,"x_max":668,"o":"m 668 0 l 465 0 l 465 100 l 463 100 q 256 -17 393 -17 q 97 40 155 -17 q 39 193 39 98 q 278 427 39 395 l 467 452 q 343 566 467 566 q 107 492 219 566 l 107 653 q 230 694 152 676 q 371 711 307 711 q 668 415 668 711 l 668 0 m 467 282 l 467 329 l 340 313 q 236 218 236 299 q 261 158 236 182 q 330 135 287 135 q 429 177 391 135 q 467 282 467 218 m 389 804 q 274 845 319 804 q 229 950 229 885 q 276 1059 229 1019 q 392 1100 323 1100 q 509 1060 465 1100 q 554 954 554 1019 q 506 846 554 888 q 389 804 457 804 m 389 1017 q 323 953 323 1017 q 389 889 323 889 q 439 908 419 889 q 458 953 458 926 q 439 999 458 981 q 389 1017 420 1017 z "},"ç":{"ha":667,"x_min":49,"x_max":616,"o":"m 616 25 q 407 -17 544 -17 q 148 80 247 -17 q 49 330 49 177 q 155 609 49 507 q 439 711 261 711 q 616 679 562 711 l 616 497 q 467 547 549 547 q 320 493 374 547 q 267 345 267 439 q 318 200 267 252 q 460 147 370 147 q 616 197 540 147 l 616 25 m 289 -306 l 289 -212 q 338 -216 313 -216 q 421 -167 421 -216 q 346 -122 421 -122 q 321 -123 337 -122 l 321 0 l 437 0 l 437 -56 q 564 -168 564 -61 q 349 -309 564 -309 q 289 -306 317 -309 z "},"é":{"ha":751,"x_min":49,"x_max":714,"o":"m 714 286 l 261 286 q 452 135 272 135 q 653 189 566 135 l 653 35 q 403 -17 557 -17 q 142 76 235 -17 q 49 336 49 170 q 149 610 49 509 q 396 711 250 711 q 631 621 548 711 q 714 376 714 531 l 714 286 m 515 418 q 395 567 515 567 q 306 524 343 567 q 260 418 268 481 l 515 418 m 625 1023 l 412 804 l 258 804 l 434 1023 l 625 1023 z "},"è":{"ha":751,"x_min":49,"x_max":714,"o":"m 714 286 l 261 286 q 452 135 272 135 q 653 189 566 135 l 653 35 q 403 -17 557 -17 q 142 76 235 -17 q 49 336 49 170 q 149 610 49 509 q 396 711 250 711 q 631 621 548 711 q 714 376 714 531 l 714 286 m 515 418 q 395 567 515 567 q 306 524 343 567 q 260 418 268 481 l 515 418 m 539 804 l 385 804 l 172 1023 l 363 1023 l 539 804 z "},"ê":{"ha":751,"x_min":49,"x_max":714,"o":"m 714 286 l 261 286 q 452 135 272 135 q 653 189 566 135 l 653 35 q 403 -17 557 -17 q 142 76 235 -17 q 49 336 49 170 q 149 610 49 509 q 396 711 250 711 q 631 621 548 711 q 714 376 714 531 l 714 286 m 515 418 q 395 567 515 567 q 306 524 343 567 q 260 418 268 481 l 515 418 m 644 804 l 503 804 l 396 932 l 296 804 l 156 804 l 315 1025 l 484 1025 l 644 804 z "},"ë":{"ha":751,"x_min":49,"x_max":714,"o":"m 714 286 l 261 286 q 452 135 272 135 q 653 189 566 135 l 653 35 q 403 -17 557 -17 q 142 76 235 -17 q 49 336 49 170 q 149 610 49 509 q 396 711 250 711 q 631 621 548 711 q 714 376 714 531 l 714 286 m 515 418 q 395 567 515 567 q 306 524 343 567 q 260 418 268 481 l 515 418 m 548 804 q 473 831 503 804 q 444 897 444 857 q 473 964 444 939 q 548 990 503 990 q 623 964 593 990 q 652 897 652 938 q 623 830 652 857 q 548 804 594 804 m 237 804 q 162 831 191 804 q 133 897 133 858 q 163 964 133 938 q 237 990 193 990 q 312 964 283 990 q 341 897 341 938 q 312 830 341 856 q 237 804 283 804 z "},"í":{"ha":395,"x_min":48,"x_max":415,"o":"m 304 0 l 90 0 l 90 694 l 304 694 l 304 0 m 415 1023 l 203 804 l 48 804 l 224 1023 l 415 1023 z "},"ì":{"ha":395,"x_min":-18,"x_max":349,"o":"m 304 0 l 90 0 l 90 694 l 304 694 l 304 0 m 349 804 l 195 804 l -18 1023 l 172 1023 l 349 804 z "},"î":{"ha":395,"x_min":-42,"x_max":446,"o":"m 304 0 l 90 0 l 90 694 l 304 694 l 304 0 m 446 804 l 305 804 l 198 932 l 98 804 l -42 804 l 117 1025 l 286 1025 l 446 804 z "},"ï":{"ha":395,"x_min":-58,"x_max":461,"o":"m 304 0 l 90 0 l 90 694 l 304 694 l 304 0 m 357 804 q 282 831 311 804 q 253 897 253 857 q 282 964 253 939 q 357 990 311 990 q 432 964 402 990 q 461 897 461 938 q 432 830 461 857 q 357 804 403 804 m 46 804 q -29 831 0 804 q -58 897 -58 858 q -28 964 -58 938 q 46 990 1 990 q 121 964 92 990 q 150 897 150 938 q 121 830 150 856 q 46 804 92 804 z "},"ñ":{"ha":840,"x_min":90,"x_max":761,"o":"m 761 0 l 547 0 l 547 386 q 432 547 547 547 q 340 505 376 547 q 304 396 304 462 l 304 0 l 90 0 l 90 694 l 304 694 l 304 585 l 307 585 q 530 711 384 711 q 761 425 761 711 l 761 0 m 666 1015 q 628 868 666 920 q 526 817 591 817 q 412 846 467 817 q 328 878 351 878 q 274 804 274 878 l 178 804 q 216 951 178 899 q 320 1003 253 1003 q 434 970 375 1003 q 515 940 488 940 q 568 1015 568 940 l 666 1015 z "},"ó":{"ha":848,"x_min":49,"x_max":800,"o":"m 421 -17 q 148 80 248 -17 q 49 345 49 178 q 152 614 49 517 q 431 711 255 711 q 702 614 604 711 q 800 357 800 517 q 699 83 800 184 q 421 -17 597 -17 m 427 547 q 309 495 351 547 q 267 347 267 443 q 428 147 267 147 q 582 353 582 147 q 427 547 582 547 m 656 1023 l 444 804 l 290 804 l 466 1023 l 656 1023 z "},"ò":{"ha":848,"x_min":49,"x_max":800,"o":"m 421 -17 q 148 80 248 -17 q 49 345 49 178 q 152 614 49 517 q 431 711 255 711 q 702 614 604 711 q 800 357 800 517 q 699 83 800 184 q 421 -17 597 -17 m 427 547 q 309 495 351 547 q 267 347 267 443 q 428 147 267 147 q 582 353 582 147 q 427 547 582 547 m 578 804 l 424 804 l 211 1023 l 401 1023 l 578 804 z "},"ô":{"ha":848,"x_min":49,"x_max":800,"o":"m 421 -17 q 148 80 248 -17 q 49 345 49 178 q 152 614 49 517 q 431 711 255 711 q 702 614 604 711 q 800 357 800 517 q 699 83 800 184 q 421 -17 597 -17 m 427 547 q 309 495 351 547 q 267 347 267 443 q 428 147 267 147 q 582 353 582 147 q 427 547 582 547 m 670 804 l 530 804 l 422 932 l 323 804 l 182 804 l 342 1025 l 510 1025 l 670 804 z "},"ö":{"ha":848,"x_min":49,"x_max":800,"o":"m 421 -17 q 148 80 248 -17 q 49 345 49 178 q 152 614 49 517 q 431 711 255 711 q 702 614 604 711 q 800 357 800 517 q 699 83 800 184 q 421 -17 597 -17 m 427 547 q 309 495 351 547 q 267 347 267 443 q 428 147 267 147 q 582 353 582 147 q 427 547 582 547 m 583 804 q 508 831 537 804 q 479 897 479 857 q 508 964 479 939 q 583 990 537 990 q 657 964 628 990 q 687 897 687 938 q 658 830 687 857 q 583 804 629 804 m 272 804 q 197 831 226 804 q 168 897 168 858 q 197 964 168 938 q 272 990 227 990 q 347 964 318 990 q 376 897 376 938 q 347 830 376 856 q 272 804 318 804 z "},"õ":{"ha":848,"x_min":49,"x_max":800,"o":"m 421 -17 q 148 80 248 -17 q 49 345 49 178 q 152 614 49 517 q 431 711 255 711 q 702 614 604 711 q 800 357 800 517 q 699 83 800 184 q 421 -17 597 -17 m 427 547 q 309 495 351 547 q 267 347 267 443 q 428 147 267 147 q 582 353 582 147 q 427 547 582 547 m 668 1015 q 630 868 668 920 q 528 817 593 817 q 414 846 469 817 q 330 878 353 878 q 276 804 276 878 l 180 804 q 218 951 180 899 q 322 1003 255 1003 q 436 970 377 1003 q 517 940 490 940 q 570 1015 570 940 l 668 1015 z "},"ú":{"ha":840,"x_min":79,"x_max":750,"o":"m 750 0 l 536 0 l 536 106 l 533 106 q 321 -17 454 -17 q 79 275 79 -17 l 79 694 l 293 694 l 293 294 q 410 147 293 147 q 502 188 467 147 q 536 297 536 228 l 536 694 l 750 694 l 750 0 m 663 1023 l 450 804 l 296 804 l 472 1023 l 663 1023 z "},"ù":{"ha":840,"x_min":79,"x_max":750,"o":"m 750 0 l 536 0 l 536 106 l 533 106 q 321 -17 454 -17 q 79 275 79 -17 l 79 694 l 293 694 l 293 294 q 410 147 293 147 q 502 188 467 147 q 536 297 536 228 l 536 694 l 750 694 l 750 0 m 532 804 l 378 804 l 165 1023 l 355 1023 l 532 804 z "},"û":{"ha":840,"x_min":79,"x_max":750,"o":"m 750 0 l 536 0 l 536 106 l 533 106 q 321 -17 454 -17 q 79 275 79 -17 l 79 694 l 293 694 l 293 294 q 410 147 293 147 q 502 188 467 147 q 536 297 536 228 l 536 694 l 750 694 l 750 0 m 658 804 l 517 804 l 410 932 l 311 804 l 170 804 l 330 1025 l 498 1025 l 658 804 z "},"ü":{"ha":840,"x_min":79,"x_max":750,"o":"m 750 0 l 536 0 l 536 106 l 533 106 q 321 -17 454 -17 q 79 275 79 -17 l 79 694 l 293 694 l 293 294 q 410 147 293 147 q 502 188 467 147 q 536 297 536 228 l 536 694 l 750 694 l 750 0 m 572 804 q 498 831 527 804 q 469 897 469 857 q 498 964 469 939 q 572 990 527 990 q 647 964 618 990 q 677 897 677 938 q 648 830 677 857 q 572 804 618 804 m 262 804 q 186 831 216 804 q 157 897 157 858 q 187 964 157 938 q 262 990 217 990 q 337 964 308 990 q 366 897 366 938 q 337 830 366 856 q 262 804 308 804 z "},"†":{"ha":564,"x_min":22,"x_max":541,"o":"m 541 589 l 356 609 l 326 137 l 238 137 l 208 609 l 22 589 l 22 742 l 221 722 l 201 972 l 363 972 l 342 722 l 541 742 l 541 589 z "},"°":{"ha":528,"x_min":78,"x_max":464,"o":"m 271 607 q 134 663 190 607 q 78 799 78 719 q 134 934 78 879 q 271 989 190 989 q 407 934 351 989 q 464 799 464 879 q 407 663 464 719 q 271 607 351 607 m 271 886 q 209 861 234 886 q 183 799 183 836 q 209 736 183 762 q 271 710 234 710 q 332 736 307 710 q 358 799 358 762 q 333 861 358 836 q 271 886 307 886 z "},"¢":{"ha":799,"x_min":115,"x_max":681,"o":"m 681 140 q 558 103 631 112 l 558 -25 l 449 -25 l 449 100 q 209 202 302 108 q 115 446 115 297 q 206 704 115 604 q 449 821 297 804 l 449 964 l 558 964 l 558 823 q 681 793 633 819 l 681 608 q 558 656 629 648 l 558 267 q 681 313 631 278 l 681 140 m 449 271 l 449 650 q 317 460 317 610 q 449 271 317 309 z "},"£":{"ha":799,"x_min":97,"x_max":755,"o":"m 755 0 l 97 0 l 97 154 q 228 336 228 189 l 228 415 l 111 415 l 111 562 l 228 562 l 228 689 q 311 906 228 823 q 534 989 393 989 q 693 956 621 989 l 693 781 q 551 825 627 825 q 427 669 427 825 l 427 562 l 608 562 l 608 415 l 427 415 l 427 357 q 323 164 427 232 l 755 164 l 755 0 z "},"§":{"ha":674,"x_min":89,"x_max":611,"o":"m 510 294 q 566 176 566 243 q 492 15 566 75 q 298 -45 418 -45 q 102 1 188 -45 l 102 170 q 313 98 224 98 q 399 165 399 98 q 334 239 399 207 q 191 315 238 283 q 117 394 144 347 q 89 496 89 441 q 174 654 89 593 q 114 800 114 714 q 183 953 114 895 q 370 1011 253 1011 q 546 974 464 1011 l 546 804 q 370 869 452 869 q 286 806 286 869 q 314 753 286 775 q 439 688 341 731 q 611 478 611 612 q 510 294 611 365 m 293 586 q 249 511 249 560 q 283 442 249 473 q 404 375 318 412 q 449 458 449 405 q 413 527 449 500 q 293 586 376 553 z "},"•":{"ha":587,"x_min":109,"x_max":482,"o":"m 294 191 q 163 245 218 191 q 109 378 109 300 q 163 509 109 455 q 294 564 217 564 q 427 509 372 564 q 482 378 482 454 q 427 246 482 301 q 294 191 372 191 z "},"¶":{"ha":707,"x_min":62,"x_max":642,"o":"m 642 863 l 562 863 l 562 0 l 444 0 l 444 863 l 364 863 l 364 0 l 244 0 l 244 567 q 114 629 166 572 q 62 772 62 687 q 120 916 62 860 q 264 972 178 972 l 642 972 l 642 863 z "},"ß":{"ha":872,"x_min":90,"x_max":832,"o":"m 370 5 l 370 183 q 489 147 426 147 q 579 183 545 147 q 612 281 612 218 q 552 405 612 359 q 382 454 492 451 l 382 604 q 499 650 457 610 q 541 758 541 691 q 510 848 541 815 q 429 880 480 880 q 304 714 304 880 l 304 0 l 90 0 l 90 711 q 183 954 90 863 q 441 1044 276 1044 q 674 970 589 1044 q 760 779 760 896 q 711 634 760 696 q 586 549 663 572 l 586 546 q 832 275 832 499 q 746 68 832 153 q 514 -17 661 -17 q 370 5 443 -17 z "},"­":{"ha":562,"x_min":97,"x_max":468,"o":"m 468 296 l 97 296 l 97 446 l 468 446 l 468 296 z "},"®":{"ha":1214,"x_min":89,"x_max":1126,"o":"m 606 -17 q 234 123 380 -17 q 89 484 89 264 q 238 844 89 699 q 611 989 388 989 q 980 847 833 989 q 1126 486 1126 706 q 976 127 1126 271 q 606 -17 826 -17 m 608 913 q 300 791 422 913 q 179 486 179 669 q 302 181 179 302 q 608 60 425 60 q 912 181 788 60 q 1036 485 1036 303 q 914 791 1036 669 q 608 913 792 913 m 873 179 l 701 179 l 650 336 q 575 419 623 419 l 525 419 l 525 179 l 382 179 l 382 804 l 599 804 q 850 627 850 804 q 703 461 850 498 l 703 458 q 799 359 764 445 l 873 179 m 525 685 l 525 529 l 600 529 q 694 610 694 529 q 586 685 694 685 l 525 685 z "},"©":{"ha":1214,"x_min":89,"x_max":1126,"o":"m 606 -17 q 234 123 380 -17 q 89 484 89 264 q 238 844 89 699 q 611 989 388 989 q 980 847 833 989 q 1126 486 1126 706 q 976 127 1126 271 q 606 -17 826 -17 m 608 913 q 300 791 422 913 q 179 486 179 669 q 302 181 179 302 q 608 60 425 60 q 912 181 788 60 q 1036 485 1036 303 q 914 791 1036 669 q 608 913 792 913 m 817 200 q 631 154 732 154 q 396 245 489 154 q 302 472 302 336 q 400 723 302 629 q 653 818 497 818 q 815 781 738 818 l 815 621 q 650 672 749 672 q 519 620 572 672 q 467 481 467 568 q 520 347 467 398 q 654 296 573 296 q 817 347 750 296 l 817 200 z "},"™":{"ha":1071,"x_min":52,"x_max":946,"o":"m 946 524 l 844 524 l 844 825 l 842 825 l 733 524 l 642 524 l 543 825 l 539 825 l 539 524 l 439 524 l 439 972 l 586 972 l 692 665 l 694 665 l 808 972 l 946 972 l 946 524 m 395 889 l 273 889 l 273 524 l 168 524 l 168 889 l 52 889 l 52 972 l 395 972 l 395 889 z "},"´":{"ha":421,"x_min":37,"x_max":404,"o":"m 404 1023 l 192 804 l 37 804 l 214 1023 l 404 1023 z "},"¨":{"ha":642,"x_min":58,"x_max":578,"o":"m 473 804 q 399 831 428 804 q 370 897 370 857 q 399 964 370 939 q 473 990 428 990 q 548 964 519 990 q 578 897 578 938 q 549 830 578 857 q 473 804 519 804 m 163 804 q 87 831 117 804 q 58 897 58 858 q 88 964 58 938 q 163 990 118 990 q 238 964 209 990 q 267 897 267 938 q 238 830 267 856 q 163 804 209 804 z "},"≠":{"ha":983,"x_min":161,"x_max":822,"o":"m 822 180 l 458 180 l 364 0 l 199 0 l 293 180 l 161 180 l 161 318 l 366 318 l 447 475 l 161 475 l 161 614 l 519 614 l 618 806 l 783 806 l 685 614 l 822 614 l 822 475 l 612 475 l 530 318 l 822 318 l 822 180 z "},"Æ":{"ha":1299,"x_min":-1,"x_max":1254,"o":"m 1254 0 l 672 0 l 672 216 l 353 216 l 253 0 l -1 0 l 490 972 l 1232 972 l 1232 794 l 890 794 l 890 578 l 1208 578 l 1208 400 l 890 400 l 890 178 l 1254 178 l 1254 0 m 672 385 l 672 794 l 619 794 l 428 385 l 672 385 z "},"Ø":{"ha":1053,"x_min":50,"x_max":1003,"o":"m 236 74 l 139 -41 l 54 29 l 155 149 q 50 473 50 279 q 183 846 50 704 q 538 989 317 989 q 810 908 696 989 l 897 1010 l 982 940 l 890 833 q 1003 493 1003 701 q 870 123 1003 264 q 522 -17 736 -17 q 236 74 359 -17 m 689 766 q 532 818 623 818 q 337 725 409 818 q 265 481 265 633 q 297 310 265 382 l 689 766 m 753 675 l 361 216 q 526 154 429 154 q 717 241 645 154 q 789 479 789 328 q 753 675 789 591 z "},"∞":{"ha":1128,"x_min":47,"x_max":1084,"o":"m 566 297 q 309 132 462 132 q 120 208 193 132 q 47 406 47 283 q 123 596 47 517 q 309 675 198 675 q 566 504 469 675 q 823 668 669 668 q 1012 593 939 668 q 1084 396 1084 517 q 1008 205 1084 284 q 822 126 932 126 q 566 297 665 126 m 494 404 q 328 534 421 534 q 238 497 273 534 q 203 404 203 460 q 238 312 203 348 q 329 275 273 275 q 494 404 421 275 m 637 397 q 804 268 711 268 q 893 304 859 268 q 928 397 928 341 q 893 491 928 454 q 803 528 858 528 q 637 397 712 528 z "},"±":{"ha":982,"x_min":161,"x_max":822,"o":"m 822 471 l 561 471 l 561 208 l 424 208 l 424 471 l 164 471 l 164 608 l 424 608 l 424 873 l 561 873 l 561 608 l 822 608 l 822 471 m 821 0 l 161 0 l 161 138 l 821 138 l 821 0 z "},"≤":{"ha":983,"x_min":161,"x_max":821,"o":"m 810 168 l 175 439 l 175 557 l 810 840 l 810 679 l 357 500 l 357 497 l 810 329 l 810 168 m 821 0 l 161 0 l 161 138 l 821 138 l 821 0 z "},"≥":{"ha":983,"x_min":161,"x_max":821,"o":"m 810 439 l 175 168 l 175 329 l 628 496 l 628 498 l 175 679 l 175 840 l 810 557 l 810 439 m 821 0 l 161 0 l 161 138 l 821 138 l 821 0 z "},"¥":{"ha":799,"x_min":28,"x_max":785,"o":"m 785 972 l 545 538 l 715 538 l 715 410 l 509 410 l 509 306 l 715 306 l 715 178 l 509 178 l 509 0 l 300 0 l 300 178 l 86 178 l 86 306 l 300 306 l 300 410 l 86 410 l 86 538 l 260 538 l 28 972 l 245 972 l 412 586 l 415 586 q 440 647 418 593 l 578 972 l 785 972 z "},"µ":{"ha":851,"x_min":90,"x_max":787,"o":"m 787 0 l 568 0 q 551 104 551 47 l 548 104 q 401 -16 509 -16 q 307 28 336 -16 l 304 28 l 304 -268 l 90 -268 l 90 694 l 304 694 l 304 295 q 420 155 304 155 q 545 327 545 155 l 545 694 l 761 694 l 761 213 q 787 0 761 53 z "},"∂":{"ha":802,"x_min":31,"x_max":779,"o":"m 555 596 l 558 596 q 559 623 559 617 q 395 854 559 854 q 212 807 304 854 l 256 977 q 449 1018 349 1018 q 779 625 779 1018 q 729 319 779 478 q 574 71 679 159 q 322 -17 469 -17 q 108 60 186 -17 q 31 269 31 136 q 129 566 31 441 q 382 692 227 692 q 555 596 496 692 m 533 437 q 427 542 507 542 q 301 460 353 542 q 249 277 249 378 q 346 147 249 147 q 467 228 415 147 q 533 437 518 309 z "},"∑":{"ha":892,"x_min":36,"x_max":861,"o":"m 861 -318 l 36 -318 l 36 -199 l 446 334 l 53 847 l 53 972 l 839 972 l 839 794 l 359 794 l 699 339 l 340 -140 l 861 -140 l 861 -318 z "},"∏":{"ha":1099,"x_min":111,"x_max":1000,"o":"m 1000 -319 l 781 -319 l 781 783 l 330 783 l 330 -319 l 111 -319 l 111 972 l 1000 972 l 1000 -319 z "},"∫":{"ha":800,"x_min":113,"x_max":689,"o":"m 689 864 q 610 880 648 880 q 507 768 507 880 l 507 -66 q 430 -259 507 -186 q 221 -332 353 -332 q 113 -318 157 -332 l 113 -151 q 191 -168 157 -168 q 293 -56 293 -168 l 293 781 q 370 972 293 899 q 581 1044 448 1044 q 689 1031 646 1044 l 689 864 z "},"ª":{"ha":570,"x_min":49,"x_max":501,"o":"m 501 486 l 357 486 l 357 545 l 354 545 q 205 472 295 472 q 93 513 137 472 q 49 621 49 555 q 227 786 49 764 l 357 803 q 262 880 357 880 q 96 828 182 880 l 96 947 q 290 986 180 986 q 501 783 501 986 l 501 486 m 357 668 l 357 715 l 273 704 q 195 639 195 693 q 265 579 195 579 q 329 605 302 579 q 357 668 357 631 z "},"º":{"ha":633,"x_min":47,"x_max":582,"o":"m 311 472 q 117 539 186 472 q 47 728 47 607 q 121 918 47 849 q 319 986 195 986 q 512 917 442 986 q 582 737 582 848 q 510 542 582 612 q 311 472 437 472 m 315 868 q 204 730 204 868 q 315 590 204 590 q 424 732 424 590 q 315 868 424 868 z "},"Ω":{"ha":1063,"x_min":56,"x_max":1007,"o":"m 771 176 l 1006 176 l 1006 0 l 599 0 l 599 176 q 777 532 777 330 q 708 728 777 654 q 535 801 639 801 q 357 728 427 801 q 288 526 288 655 q 463 176 288 336 l 463 0 l 56 0 l 56 176 l 286 176 q 57 562 57 309 q 190 872 57 755 q 531 989 322 989 q 876 871 745 989 q 1007 565 1007 753 q 771 176 1007 308 z "},"æ":{"ha":1150,"x_min":39,"x_max":1112,"o":"m 1112 286 l 660 286 q 851 135 673 135 q 1053 189 960 135 l 1053 36 q 796 -17 947 -17 q 526 104 614 -17 l 524 104 q 278 -17 428 -17 q 102 39 165 -17 q 39 195 39 95 q 104 353 39 294 q 292 422 170 413 l 465 436 q 340 566 465 566 q 107 493 222 566 l 107 653 q 358 711 234 711 q 578 621 517 711 l 581 621 q 802 711 670 711 q 1029 621 947 711 q 1112 374 1112 531 l 1112 286 m 914 418 q 794 567 914 567 q 705 525 743 567 q 660 418 667 483 l 914 418 m 465 281 l 465 311 l 359 302 q 235 214 235 292 q 261 157 235 180 q 330 135 288 135 q 427 175 389 135 q 465 281 465 216 z "},"ø":{"ha":849,"x_min":26,"x_max":818,"o":"m 818 685 l 724 586 q 800 357 800 489 q 700 83 800 181 q 421 -16 600 -16 q 199 43 287 -16 l 107 -53 l 26 20 l 119 117 q 49 346 49 212 q 152 615 49 517 q 432 713 256 713 q 643 657 553 713 l 737 757 l 818 685 m 524 536 q 428 564 486 564 q 253 349 253 564 q 265 267 253 299 l 524 536 m 585 441 l 318 164 q 427 134 359 134 q 597 353 597 134 q 585 441 597 403 z "},"¿":{"ha":608,"x_min":36,"x_max":575,"o":"m 439 414 q 449 375 446 397 q 453 333 453 353 q 447 276 453 302 q 429 228 441 250 q 398 184 416 205 q 355 143 380 163 q 311 103 330 121 q 277 65 291 84 q 257 27 264 47 q 250 -18 250 7 q 258 -57 250 -39 q 279 -87 265 -75 q 313 -108 293 -100 q 357 -115 333 -115 q 467 -93 410 -115 q 575 -26 524 -71 l 575 -231 q 461 -277 523 -262 q 334 -293 399 -293 q 216 -279 271 -293 q 122 -235 162 -265 q 59 -159 81 -205 q 36 -47 36 -113 q 45 27 36 -6 q 73 91 55 61 q 119 148 92 121 q 181 205 146 176 q 223 241 205 224 q 253 275 241 258 q 271 310 264 292 q 277 353 277 329 q 272 386 277 369 q 260 414 268 403 l 439 414 m 340 711 q 430 679 395 711 q 466 599 466 645 q 430 519 466 551 q 340 488 394 488 q 251 519 286 488 q 216 599 216 551 q 250 680 216 648 q 340 711 286 711 z "}," ":{"ha":383,"x_min":0,"x_max":0,"o":""},"¡":{"ha":454,"x_min":103,"x_max":351,"o":"m 228 489 q 138 520 173 489 q 103 599 103 551 q 138 680 103 648 q 228 711 173 711 q 316 679 281 711 q 351 599 351 646 q 316 519 351 550 q 228 489 281 489 m 342 -277 l 117 -277 l 142 395 l 315 395 l 342 -277 z "},"¬":{"ha":982,"x_min":161,"x_max":822,"o":"m 822 180 l 685 180 l 685 444 l 161 444 l 161 582 l 822 582 l 822 180 z "},"√":{"ha":903,"x_min":61,"x_max":811,"o":"m 811 1028 l 534 0 l 401 0 l 184 494 l 61 494 l 61 608 l 298 608 l 463 224 l 677 1028 l 811 1028 z "},"ƒ":{"ha":799,"x_min":53,"x_max":708,"o":"m 708 796 q 618 817 665 817 q 518 724 534 817 l 503 631 l 610 631 l 610 485 l 479 485 l 418 82 q 323 -129 397 -51 q 135 -207 248 -207 q 53 -193 101 -207 l 53 -29 q 115 -43 79 -43 q 220 94 199 -43 l 279 485 l 208 485 l 208 631 l 304 631 l 319 732 q 411 913 336 845 q 600 981 486 981 q 708 965 656 981 l 708 796 z "},"≈":{"ha":983,"x_min":132,"x_max":851,"o":"m 851 676 q 790 496 847 562 q 639 429 734 429 q 464 489 568 429 q 358 532 390 532 q 271 425 275 532 l 132 425 q 192 605 136 540 q 346 671 248 671 q 509 619 423 671 q 631 568 593 568 q 689 598 667 568 q 713 676 711 627 l 851 676 m 851 372 q 790 192 847 258 q 639 125 734 125 q 464 186 570 125 q 358 229 389 229 q 271 119 275 229 l 132 119 q 192 301 136 235 q 346 368 248 368 q 509 317 423 368 q 631 264 597 264 q 689 294 667 264 q 713 372 711 323 l 851 372 z "},"∆":{"ha":977,"x_min":24,"x_max":935,"o":"m 935 0 l 24 0 l 24 85 l 354 972 l 613 972 l 935 85 l 935 0 m 674 178 l 503 696 q 479 793 484 753 l 474 793 q 452 697 469 749 l 279 178 l 674 178 z "},"«":{"ha":807,"x_min":36,"x_max":771,"o":"m 771 136 l 589 136 l 367 364 l 589 597 l 771 597 l 545 364 l 771 136 m 441 136 l 260 136 l 36 364 l 260 597 l 440 597 l 214 364 l 441 136 z "},"»":{"ha":807,"x_min":36,"x_max":771,"o":"m 771 364 l 549 136 l 367 136 l 593 364 l 368 597 l 549 597 l 771 364 m 441 364 l 218 136 l 36 136 l 264 364 l 37 597 l 218 597 l 441 364 z "},"…":{"ha":1267,"x_min":87,"x_max":1181,"o":"m 1054 -16 q 966 17 1001 -16 q 930 97 930 50 q 966 177 930 146 q 1055 208 1002 208 q 1145 177 1110 208 q 1181 97 1181 145 q 1146 16 1181 47 q 1054 -16 1111 -16 m 632 -16 q 545 17 579 -16 q 510 97 510 50 q 545 177 510 146 q 633 208 580 208 q 723 177 688 208 q 758 97 758 145 q 723 16 758 47 q 632 -16 688 -16 m 210 -16 q 122 17 157 -16 q 87 97 87 50 q 122 177 87 146 q 211 208 157 208 q 301 177 266 208 q 336 97 336 145 q 301 16 336 47 q 210 -16 267 -16 z "},"À":{"ha":977,"x_min":7,"x_max":966,"o":"m 966 0 l 728 0 l 659 216 l 313 216 l 244 0 l 7 0 l 361 972 l 621 972 l 966 0 m 608 385 l 504 711 q 488 799 492 748 l 482 799 q 465 714 479 756 l 359 385 l 608 385 m 621 1063 l 467 1063 l 254 1282 l 445 1282 l 621 1063 z "},"Ã":{"ha":977,"x_min":7,"x_max":966,"o":"m 966 0 l 728 0 l 659 216 l 313 216 l 244 0 l 7 0 l 361 972 l 621 972 l 966 0 m 608 385 l 504 711 q 488 799 492 748 l 482 799 q 465 714 479 756 l 359 385 l 608 385 m 730 1274 q 693 1127 730 1179 q 590 1075 655 1075 q 476 1104 532 1075 q 393 1136 416 1136 q 338 1063 338 1136 l 243 1063 q 280 1209 243 1157 q 385 1261 317 1261 q 498 1228 439 1261 q 580 1198 552 1198 q 633 1274 633 1198 l 730 1274 z "},"Õ":{"ha":1053,"x_min":50,"x_max":1003,"o":"m 522 -17 q 182 119 313 -17 q 50 473 50 255 q 184 846 50 704 q 538 989 317 989 q 874 852 746 989 q 1003 493 1003 716 q 870 123 1003 264 q 522 -17 736 -17 m 532 800 q 349 714 416 800 q 281 485 281 627 q 349 256 281 340 q 526 172 416 172 q 706 254 640 172 q 772 481 772 336 q 708 716 772 632 q 532 800 644 800 m 778 1274 q 740 1127 778 1179 q 637 1075 703 1075 q 524 1104 579 1075 q 440 1136 463 1136 q 386 1063 386 1136 l 290 1063 q 328 1209 290 1157 q 432 1261 365 1261 q 546 1228 487 1261 q 627 1198 600 1198 q 680 1274 680 1198 l 778 1274 z "},"Œ":{"ha":1305,"x_min":50,"x_max":1261,"o":"m 1261 0 l 700 0 q 621 -8 682 0 q 514 -17 559 -17 q 178 121 306 -17 q 50 473 50 258 q 182 847 50 705 q 532 989 313 989 q 634 981 574 989 q 708 972 694 972 l 1239 972 l 1239 794 l 897 794 l 897 575 l 1215 575 l 1215 396 l 897 396 l 897 178 l 1261 178 l 1261 0 m 672 207 l 672 765 q 530 800 614 800 q 349 712 416 800 q 282 482 282 625 q 351 257 282 341 q 528 172 419 172 q 672 207 606 172 z "},"œ":{"ha":1284,"x_min":49,"x_max":1246,"o":"m 1246 286 l 791 286 q 983 135 801 135 q 1183 189 1097 135 l 1183 35 q 949 -17 1087 -17 q 684 111 778 -17 l 681 111 q 404 -16 588 -16 q 147 81 245 -16 q 49 345 49 178 q 149 614 49 515 q 412 713 248 713 q 574 679 503 713 q 679 593 645 646 l 682 593 q 937 711 762 711 q 1164 621 1082 711 q 1246 378 1246 530 l 1246 286 m 1046 418 q 928 567 1046 567 q 836 524 873 567 q 791 418 799 481 l 1046 418 m 428 547 q 309 495 351 547 q 267 347 267 442 q 427 149 267 149 q 582 350 582 149 q 542 495 582 444 q 428 547 501 547 z "},"–":{"ha":694,"x_min":0,"x_max":694,"o":"m 694 296 l 0 296 l 0 446 l 694 446 l 694 296 z "},"—":{"ha":1389,"x_min":0,"x_max":1389,"o":"m 1389 296 l 0 296 l 0 446 l 1389 446 l 1389 296 z "},"“":{"ha":685,"x_min":65,"x_max":608,"o":"m 608 996 l 532 694 l 347 694 l 476 996 l 608 996 m 326 996 l 252 694 l 65 694 l 193 996 l 326 996 z "},"”":{"ha":685,"x_min":77,"x_max":621,"o":"m 621 996 l 492 694 l 358 694 l 435 996 l 621 996 m 339 996 l 208 694 l 77 694 l 154 996 l 339 996 z "},"‘":{"ha":403,"x_min":65,"x_max":326,"o":"m 326 996 l 252 694 l 65 694 l 193 996 l 326 996 z "},"’":{"ha":403,"x_min":77,"x_max":339,"o":"m 339 996 l 208 694 l 77 694 l 154 996 l 339 996 z "},"÷":{"ha":982,"x_min":161,"x_max":822,"o":"m 496 574 q 428 601 456 574 q 400 667 400 628 q 427 737 400 709 q 496 765 454 765 q 563 738 538 765 q 589 668 589 711 q 561 600 589 627 q 496 574 534 574 m 822 329 l 161 329 l 161 467 l 822 467 l 822 329 m 493 32 q 425 58 453 32 q 397 123 397 85 q 424 194 397 165 q 493 222 451 222 q 561 195 535 222 q 586 125 586 168 q 559 58 586 83 q 493 32 532 32 z "},"◊":{"ha":816,"x_min":49,"x_max":765,"o":"m 765 486 l 444 0 l 367 0 l 49 485 l 367 972 l 444 972 l 765 486 m 610 486 l 407 806 l 204 486 l 407 167 l 610 486 z "},"ÿ":{"ha":747,"x_min":-3,"x_max":751,"o":"m 751 694 l 469 -56 q 163 -326 368 -326 q 35 -309 85 -326 l 35 -138 q 127 -163 77 -163 q 243 -85 210 -163 l 279 1 l -3 694 l 235 694 l 364 272 q 383 179 376 233 l 386 179 q 408 271 392 218 l 539 694 l 751 694 m 538 804 q 463 831 492 804 q 434 897 434 857 q 463 964 434 939 q 538 990 492 990 q 613 964 583 990 q 642 897 642 938 q 613 830 642 857 q 538 804 584 804 m 227 804 q 152 831 181 804 q 123 897 123 858 q 153 964 123 938 q 227 990 182 990 q 302 964 273 990 q 331 897 331 938 q 302 830 331 856 q 227 804 273 804 z "},"Ÿ":{"ha":843,"x_min":0,"x_max":844,"o":"m 844 972 l 528 346 l 528 0 l 309 0 l 309 342 l 0 972 l 250 972 l 407 610 q 429 530 411 600 l 432 530 q 453 607 441 579 l 612 972 l 844 972 m 582 1063 q 507 1089 536 1063 q 478 1156 478 1116 q 507 1223 478 1197 q 582 1249 536 1249 q 657 1222 627 1249 q 686 1156 686 1196 q 657 1089 686 1115 q 582 1063 628 1063 m 271 1063 q 196 1089 225 1063 q 167 1156 167 1116 q 197 1222 167 1196 q 271 1249 227 1249 q 346 1222 317 1249 q 375 1156 375 1196 q 346 1088 375 1114 q 271 1063 317 1063 z "},"⁄":{"ha":488,"x_min":-138,"x_max":632,"o":"m 632 972 l 28 0 l -138 0 l 467 972 l 632 972 z "},"€":{"ha":799,"x_min":74,"x_max":742,"o":"m 742 31 q 533 -18 662 -18 q 284 66 380 -18 q 157 307 188 151 l 74 307 l 74 436 l 139 436 q 138 476 138 453 q 140 532 138 488 l 74 532 l 74 659 l 160 659 q 301 902 197 815 q 559 989 405 989 q 742 951 673 989 l 742 775 q 570 835 666 835 q 438 787 495 835 q 358 659 382 739 l 647 659 l 647 532 l 338 532 q 335 476 335 492 q 336 436 335 458 l 647 436 l 647 307 l 357 307 q 559 136 408 136 q 742 197 655 136 l 742 31 z "},"‹":{"ha":478,"x_min":36,"x_max":441,"o":"m 441 136 l 260 136 l 36 364 l 260 597 l 441 597 l 215 364 l 441 136 z "},"›":{"ha":478,"x_min":36,"x_max":441,"o":"m 441 364 l 218 136 l 36 136 l 262 364 l 37 597 l 218 597 l 441 364 z "},"ﬁ":{"ha":926,"x_min":28,"x_max":854,"o":"m 533 863 q 456 882 494 882 q 359 770 359 882 l 359 694 l 517 694 l 517 539 l 359 539 l 359 0 l 144 0 l 144 539 l 28 539 l 28 694 l 144 694 l 144 781 q 221 972 144 899 q 428 1044 297 1044 q 533 1031 491 1044 l 533 863 m 730 804 q 642 837 676 804 q 607 916 607 869 q 642 994 607 964 q 730 1025 676 1025 q 820 994 785 1025 q 854 916 854 964 q 820 836 854 867 q 730 804 786 804 m 836 0 l 623 0 l 623 694 l 836 694 l 836 0 z "},"ﬂ":{"ha":926,"x_min":28,"x_max":836,"o":"m 533 863 q 456 882 494 882 q 359 770 359 882 l 359 694 l 517 694 l 517 539 l 359 539 l 359 0 l 144 0 l 144 539 l 28 539 l 28 694 l 144 694 l 144 781 q 221 972 144 899 q 428 1044 297 1044 q 533 1031 491 1044 l 533 863 m 836 0 l 623 0 l 623 1028 l 836 1028 l 836 0 z "},"‡":{"ha":564,"x_min":22,"x_max":541,"o":"m 541 327 l 339 347 l 363 137 l 201 137 l 224 347 l 22 327 l 22 480 l 204 460 l 227 555 l 204 650 l 22 629 l 22 783 l 224 762 l 201 972 l 363 972 l 339 762 l 541 783 l 541 629 l 359 650 l 337 555 l 359 460 l 541 480 l 541 327 z "},"·":{"ha":376,"x_min":62,"x_max":314,"o":"m 186 330 q 98 363 133 330 q 62 443 62 395 q 99 523 62 492 q 189 554 135 554 q 279 523 244 554 q 314 443 314 491 q 278 362 314 393 q 186 330 243 330 z "},"‚":{"ha":403,"x_min":61,"x_max":323,"o":"m 323 149 l 193 -153 l 61 -153 l 139 149 l 323 149 z "},"„":{"ha":685,"x_min":61,"x_max":606,"o":"m 606 149 l 475 -153 l 343 -153 l 419 149 l 606 149 m 323 149 l 193 -153 l 61 -153 l 139 149 l 323 149 z "},"‰":{"ha":1745,"x_min":61,"x_max":1683,"o":"m 292 479 q 124 545 188 479 q 61 722 61 611 q 129 915 61 844 q 309 986 196 986 q 477 922 416 986 q 538 741 538 857 q 471 550 538 621 q 292 479 404 479 m 304 867 q 205 729 205 867 q 300 599 205 599 q 396 734 396 599 q 304 867 396 867 m 1002 972 l 368 0 l 203 0 l 836 972 l 1002 972 m 1436 -14 q 1269 52 1333 -14 q 1206 229 1206 118 q 1273 422 1206 351 q 1453 493 1341 493 q 1623 429 1562 493 q 1683 249 1683 366 q 1616 58 1683 129 q 1436 -14 1548 -14 m 1449 374 q 1350 236 1350 374 q 1444 106 1350 106 q 1541 241 1541 106 q 1516 339 1541 304 q 1449 374 1490 374 m 897 -14 q 730 52 793 -14 q 667 229 667 118 q 734 422 667 351 q 914 493 802 493 q 1083 429 1023 493 q 1143 249 1143 366 q 1076 58 1143 129 q 897 -14 1009 -14 m 908 374 q 810 236 810 374 q 905 106 810 106 q 1002 241 1002 106 q 976 339 1002 304 q 908 374 950 374 z "},"Â":{"ha":977,"x_min":7,"x_max":966,"o":"m 966 0 l 728 0 l 659 216 l 313 216 l 244 0 l 7 0 l 361 972 l 621 972 l 966 0 m 608 385 l 504 711 q 488 799 492 748 l 482 799 q 465 714 479 756 l 359 385 l 608 385 m 731 1063 l 591 1063 l 484 1190 l 384 1063 l 243 1063 l 403 1283 l 571 1283 l 731 1063 z "},"Ê":{"ha":739,"x_min":111,"x_max":694,"o":"m 694 0 l 111 0 l 111 972 l 672 972 l 672 794 l 330 794 l 330 578 l 648 578 l 648 400 l 330 400 l 330 178 l 694 178 l 694 0 m 632 1063 l 492 1063 l 385 1190 l 285 1063 l 144 1063 l 304 1283 l 472 1283 l 632 1063 z "},"Á":{"ha":977,"x_min":7,"x_max":966,"o":"m 966 0 l 728 0 l 659 216 l 313 216 l 244 0 l 7 0 l 361 972 l 621 972 l 966 0 m 608 385 l 504 711 q 488 799 492 748 l 482 799 q 465 714 479 756 l 359 385 l 608 385 m 703 1282 l 490 1063 l 336 1063 l 512 1282 l 703 1282 z "},"Ë":{"ha":739,"x_min":111,"x_max":694,"o":"m 694 0 l 111 0 l 111 972 l 672 972 l 672 794 l 330 794 l 330 578 l 648 578 l 648 400 l 330 400 l 330 178 l 694 178 l 694 0 m 551 1063 q 476 1089 505 1063 q 447 1156 447 1116 q 476 1223 447 1197 q 551 1249 505 1249 q 626 1222 596 1249 q 655 1156 655 1196 q 626 1089 655 1115 q 551 1063 597 1063 m 240 1063 q 165 1089 194 1063 q 136 1156 136 1116 q 165 1222 136 1196 q 240 1249 195 1249 q 315 1222 286 1249 q 344 1156 344 1196 q 315 1088 344 1114 q 240 1063 286 1063 z "},"È":{"ha":739,"x_min":111,"x_max":694,"o":"m 694 0 l 111 0 l 111 972 l 672 972 l 672 794 l 330 794 l 330 578 l 648 578 l 648 400 l 330 400 l 330 178 l 694 178 l 694 0 m 519 1063 l 366 1063 l 153 1282 l 343 1282 l 519 1063 z "},"Í":{"ha":440,"x_min":30,"x_max":441,"o":"m 412 972 l 412 803 l 330 803 l 330 170 l 412 170 l 412 0 l 30 0 l 30 170 l 111 170 l 111 803 l 30 803 l 30 972 l 412 972 m 441 1282 l 229 1063 l 75 1063 l 251 1282 l 441 1282 z "},"Î":{"ha":440,"x_min":-19,"x_max":469,"o":"m 412 972 l 412 803 l 330 803 l 330 170 l 412 170 l 412 0 l 30 0 l 30 170 l 111 170 l 111 803 l 30 803 l 30 972 l 412 972 m 469 1063 l 328 1063 l 221 1190 l 121 1063 l -19 1063 l 140 1283 l 309 1283 l 469 1063 z "},"Ï":{"ha":440,"x_min":-36,"x_max":484,"o":"m 412 972 l 412 803 l 330 803 l 330 170 l 412 170 l 412 0 l 30 0 l 30 170 l 111 170 l 111 803 l 30 803 l 30 972 l 412 972 m 379 1063 q 304 1089 334 1063 q 275 1156 275 1116 q 304 1223 275 1197 q 379 1249 334 1249 q 454 1222 425 1249 q 484 1156 484 1196 q 454 1089 484 1115 q 379 1063 425 1063 m 68 1063 q -7 1089 22 1063 q -36 1156 -36 1116 q -6 1222 -36 1196 q 68 1249 24 1249 q 143 1222 115 1249 q 172 1156 172 1196 q 143 1088 172 1114 q 68 1063 115 1063 z "},"Ì":{"ha":440,"x_min":-6,"x_max":412,"o":"m 412 972 l 412 803 l 330 803 l 330 170 l 412 170 l 412 0 l 30 0 l 30 170 l 111 170 l 111 803 l 30 803 l 30 972 l 412 972 m 361 1063 l 207 1063 l -6 1282 l 184 1282 l 361 1063 z "},"Ó":{"ha":1053,"x_min":50,"x_max":1003,"o":"m 522 -17 q 182 119 313 -17 q 50 473 50 255 q 184 846 50 704 q 538 989 317 989 q 874 852 746 989 q 1003 493 1003 716 q 870 123 1003 264 q 522 -17 736 -17 m 532 800 q 349 714 416 800 q 281 485 281 627 q 349 256 281 340 q 526 172 416 172 q 706 254 640 172 q 772 481 772 336 q 708 716 772 632 q 532 800 644 800 m 753 1282 l 541 1063 l 386 1063 l 562 1282 l 753 1282 z "},"Ô":{"ha":1053,"x_min":50,"x_max":1003,"o":"m 522 -17 q 182 119 313 -17 q 50 473 50 255 q 184 846 50 704 q 538 989 317 989 q 874 852 746 989 q 1003 493 1003 716 q 870 123 1003 264 q 522 -17 736 -17 m 532 800 q 349 714 416 800 q 281 485 281 627 q 349 256 281 340 q 526 172 416 172 q 706 254 640 172 q 772 481 772 336 q 708 716 772 632 q 532 800 644 800 m 779 1063 l 639 1063 l 532 1190 l 432 1063 l 292 1063 l 451 1283 l 619 1283 l 779 1063 z "},"Ò":{"ha":1053,"x_min":50,"x_max":1003,"o":"m 522 -17 q 182 119 313 -17 q 50 473 50 255 q 184 846 50 704 q 538 989 317 989 q 874 852 746 989 q 1003 493 1003 716 q 870 123 1003 264 q 522 -17 736 -17 m 532 800 q 349 714 416 800 q 281 485 281 627 q 349 256 281 340 q 526 172 416 172 q 706 254 640 172 q 772 481 772 336 q 708 716 772 632 q 532 800 644 800 m 659 1063 l 505 1063 l 292 1282 l 482 1282 l 659 1063 z "},"Ú":{"ha":1004,"x_min":100,"x_max":904,"o":"m 904 421 q 496 -17 904 -17 q 100 411 100 -17 l 100 972 l 319 972 l 319 408 q 504 172 319 172 q 685 400 685 172 l 685 972 l 904 972 l 904 421 m 738 1282 l 526 1063 l 371 1063 l 547 1282 l 738 1282 z "},"Û":{"ha":1004,"x_min":100,"x_max":904,"o":"m 904 421 q 496 -17 904 -17 q 100 411 100 -17 l 100 972 l 319 972 l 319 408 q 504 172 319 172 q 685 400 685 172 l 685 972 l 904 972 l 904 421 m 745 1063 l 605 1063 l 498 1190 l 398 1063 l 258 1063 l 417 1283 l 585 1283 l 745 1063 z "},"Ù":{"ha":1004,"x_min":100,"x_max":904,"o":"m 904 421 q 496 -17 904 -17 q 100 411 100 -17 l 100 972 l 319 972 l 319 408 q 504 172 319 172 q 685 400 685 172 l 685 972 l 904 972 l 904 421 m 624 1063 l 470 1063 l 257 1282 l 448 1282 l 624 1063 z "},"ı":{"ha":395,"x_min":90,"x_max":304,"o":"m 304 0 l 90 0 l 90 694 l 304 694 l 304 0 z "},"ˆ":{"ha":532,"x_min":21,"x_max":509,"o":"m 509 804 l 368 804 l 261 932 l 161 804 l 21 804 l 180 1025 l 349 1025 l 509 804 z "},"˜":{"ha":532,"x_min":24,"x_max":511,"o":"m 511 1015 q 474 868 511 920 q 371 817 436 817 q 257 846 313 817 q 174 878 197 878 q 119 804 119 878 l 24 804 q 61 951 24 899 q 165 1003 98 1003 q 279 970 220 1003 q 361 940 333 940 q 414 1015 414 940 l 511 1015 z "},"¯":{"ha":468,"x_min":35,"x_max":432,"o":"m 432 804 l 35 804 l 35 921 l 432 921 l 432 804 z "},"˘":{"ha":481,"x_min":12,"x_max":469,"o":"m 469 1013 q 400 861 461 917 q 239 804 338 804 q 77 862 140 804 q 12 1013 15 920 l 134 1013 q 241 921 145 921 q 347 1013 334 921 l 469 1013 z "},"˙":{"ha":351,"x_min":72,"x_max":279,"o":"m 176 804 q 101 831 131 804 q 72 897 72 859 q 102 963 72 938 q 176 989 132 989 q 251 963 222 989 q 279 897 279 937 q 251 831 279 857 q 176 804 222 804 z "},"˚":{"ha":376,"x_min":26,"x_max":351,"o":"m 186 804 q 72 845 117 804 q 26 950 26 885 q 74 1059 26 1019 q 189 1100 121 1100 q 307 1060 262 1100 q 351 954 351 1019 q 303 846 351 888 q 186 804 254 804 m 186 1017 q 121 953 121 1017 q 186 889 121 889 q 236 908 216 889 q 256 953 256 926 q 236 999 256 981 q 186 1017 217 1017 z "},"¸":{"ha":299,"x_min":35,"x_max":310,"o":"m 35 -306 l 35 -212 q 83 -216 58 -216 q 167 -167 167 -216 q 92 -122 167 -122 q 66 -123 83 -122 l 66 0 l 183 0 l 183 -56 q 310 -168 310 -61 q 94 -309 310 -309 q 35 -306 63 -309 z "},"˝":{"ha":564,"x_min":22,"x_max":590,"o":"m 590 1021 l 419 804 l 277 804 l 421 1021 l 590 1021 m 334 1021 l 165 804 l 22 804 l 165 1021 l 334 1021 z "},"˛":{"ha":370,"x_min":66,"x_max":284,"o":"m 279 -271 q 240 -280 262 -277 q 193 -284 217 -284 q 101 -254 136 -284 q 66 -166 66 -224 q 74 -122 66 -145 q 96 -78 81 -100 q 131 -36 110 -56 q 179 0 152 -16 l 284 0 q 206 -76 231 -39 q 180 -141 180 -113 q 192 -175 180 -163 q 223 -186 203 -186 q 250 -184 236 -186 q 278 -178 264 -182 l 279 -271 z "},"ˇ":{"ha":532,"x_min":22,"x_max":511,"o":"m 511 1025 l 350 804 l 182 804 l 22 1025 l 161 1025 l 267 897 l 372 1025 l 511 1025 z "},"Ł":{"ha":710,"x_min":1,"x_max":690,"o":"m 690 0 l 111 0 l 111 317 l 1 258 l 1 437 l 111 494 l 111 972 l 330 972 l 330 600 l 522 701 l 522 524 l 330 422 l 330 178 l 690 178 l 690 0 z "},"ł":{"ha":436,"x_min":20,"x_max":414,"o":"m 414 511 l 322 453 l 322 0 l 109 0 l 109 321 l 20 264 l 20 439 l 109 494 l 109 1028 l 322 1028 l 322 627 l 414 685 l 414 511 z "},"Š":{"ha":779,"x_min":62,"x_max":730,"o":"m 66 37 l 66 254 q 195 180 125 205 q 334 155 264 155 q 407 163 376 155 q 458 183 437 170 q 489 215 479 197 q 499 254 499 233 q 483 304 499 282 q 438 346 467 327 q 372 382 410 365 q 288 418 333 400 q 118 534 174 466 q 62 700 62 603 q 93 830 62 776 q 176 920 123 885 q 298 972 229 956 q 444 989 367 989 q 579 980 520 989 q 687 951 637 970 l 687 749 q 634 779 663 766 q 574 800 605 791 q 514 812 544 808 q 456 817 484 817 q 389 809 419 817 q 337 789 358 802 q 304 759 316 777 q 293 718 293 741 q 306 674 293 694 q 342 638 319 655 q 400 604 366 621 q 477 570 434 587 q 582 518 535 545 q 661 456 628 490 q 712 377 694 421 q 730 273 730 332 q 699 137 730 192 q 615 47 668 81 q 492 -2 562 13 q 344 -17 422 -17 q 192 -3 264 -17 q 66 37 119 10 m 660 1262 l 498 1042 l 330 1042 l 171 1262 l 310 1262 l 415 1135 l 521 1262 l 660 1262 z "},"š":{"ha":611,"x_min":45,"x_max":578,"o":"m 45 18 l 45 192 q 150 144 98 160 q 250 129 203 129 q 339 144 307 129 q 372 192 372 160 q 357 226 372 212 q 319 250 342 239 q 268 268 296 260 q 214 286 240 276 q 141 320 173 302 q 89 361 110 338 q 56 416 67 385 q 45 490 45 448 q 70 591 45 549 q 138 660 96 633 q 235 699 180 686 q 349 711 290 711 q 442 704 395 711 q 536 684 490 697 l 536 518 q 449 554 495 542 q 357 566 402 566 q 318 562 336 566 q 285 551 299 558 q 262 533 271 544 q 254 507 254 522 q 267 475 254 488 q 298 451 279 461 q 342 434 318 441 q 390 418 366 426 q 467 385 433 403 q 527 344 502 368 q 565 288 551 320 q 578 212 578 256 q 551 107 578 151 q 480 36 524 63 q 377 -4 435 8 q 257 -17 319 -17 q 45 18 142 -17 m 550 1025 l 389 804 l 220 804 l 61 1025 l 200 1025 l 305 897 l 411 1025 l 550 1025 z "},"Ž":{"ha":843,"x_min":28,"x_max":811,"o":"m 811 0 l 28 0 l 28 126 l 526 794 l 64 794 l 64 972 l 810 972 l 810 850 l 322 178 l 811 178 l 811 0 m 671 1260 l 510 1040 l 342 1040 l 182 1260 l 321 1260 l 427 1133 l 532 1260 l 671 1260 z "},"ž":{"ha":665,"x_min":17,"x_max":640,"o":"m 640 0 l 17 0 l 17 89 l 366 536 l 52 536 l 52 694 l 637 694 l 637 589 l 307 158 l 640 158 l 640 0 m 591 1025 l 430 804 l 262 804 l 102 1025 l 241 1025 l 347 897 l 452 1025 l 591 1025 z "},"¦":{"ha":453,"x_min":142,"x_max":313,"o":"m 313 464 l 142 464 l 142 1063 l 313 1063 l 313 464 m 313 -326 l 142 -326 l 142 281 l 313 281 l 313 -326 z "},"Ð":{"ha":1024,"x_min":0,"x_max":974,"o":"m 111 0 l 111 397 l 0 397 l 0 578 l 111 578 l 111 972 l 456 972 q 974 498 974 972 q 832 136 974 271 q 456 0 691 0 l 111 0 m 330 794 l 330 578 l 514 578 l 514 397 l 330 397 l 330 178 l 439 178 q 662 263 581 178 q 743 496 743 349 q 663 714 743 635 q 437 794 583 794 l 330 794 z "},"ð":{"ha":824,"x_min":49,"x_max":775,"o":"m 513 654 l 515 656 q 383 817 458 755 l 186 720 l 131 815 l 294 893 q 111 1028 188 978 l 350 1028 q 439 962 357 1024 l 624 1053 l 676 960 l 530 889 q 775 382 775 692 q 673 94 775 205 q 406 -17 572 -17 q 143 81 237 -17 q 49 349 49 179 q 139 605 49 505 q 374 705 229 705 q 513 654 453 705 m 415 547 q 306 494 345 547 q 267 349 267 441 q 305 200 267 254 q 412 147 344 147 q 518 202 479 147 q 557 353 557 258 q 415 547 557 547 z "},"Ý":{"ha":843,"x_min":0,"x_max":844,"o":"m 844 972 l 528 346 l 528 0 l 309 0 l 309 342 l 0 972 l 250 972 l 407 610 q 429 530 411 600 l 432 530 q 453 607 441 579 l 612 972 l 844 972 m 612 1259 l 400 1040 l 245 1040 l 422 1259 l 612 1259 z "},"ý":{"ha":747,"x_min":-3,"x_max":751,"o":"m 751 694 l 469 -56 q 163 -326 368 -326 q 35 -309 85 -326 l 35 -138 q 127 -163 77 -163 q 243 -85 210 -163 l 279 1 l -3 694 l 235 694 l 364 272 q 383 179 376 233 l 386 179 q 408 271 392 218 l 539 694 l 751 694 m 566 1023 l 353 804 l 199 804 l 375 1023 l 566 1023 z "},"Þ":{"ha":853,"x_min":111,"x_max":822,"o":"m 330 191 l 330 0 l 111 0 l 111 972 l 330 972 l 330 829 l 454 829 q 822 519 822 829 q 716 282 822 373 q 435 191 611 191 l 330 191 m 330 661 l 330 358 l 416 358 q 591 511 591 358 q 416 661 591 661 l 330 661 z "},"þ":{"ha":861,"x_min":90,"x_max":812,"o":"m 307 81 l 304 81 l 304 -319 l 90 -319 l 90 1028 l 304 1028 l 304 590 l 307 590 q 530 711 387 711 q 739 619 665 711 q 812 367 812 526 q 727 88 812 193 q 498 -17 641 -17 q 307 81 373 -17 m 301 366 l 301 310 q 339 193 301 238 q 439 147 377 147 q 552 204 512 147 q 593 364 593 260 q 450 547 593 547 q 343 497 385 547 q 301 366 301 448 z "},"−":{"ha":982,"x_min":161,"x_max":822,"o":"m 822 329 l 161 329 l 161 467 l 822 467 l 822 329 z "},"×":{"ha":982,"x_min":164,"x_max":821,"o":"m 821 168 l 722 71 l 493 301 l 262 71 l 164 170 l 395 397 l 164 628 l 260 726 l 493 496 l 725 726 l 819 624 l 590 397 l 821 168 z "},"¹":{"ha":547,"x_min":97,"x_max":489,"o":"m 489 396 l 107 396 l 107 513 l 227 513 l 227 836 l 97 808 l 97 930 l 372 986 l 372 513 l 489 513 l 489 396 z "},"²":{"ha":562,"x_min":79,"x_max":489,"o":"m 489 396 l 79 396 l 79 503 l 248 661 q 312 736 300 711 q 325 791 325 761 q 306 839 325 820 q 254 857 286 857 q 111 787 188 857 l 111 933 q 281 986 191 986 q 427 940 373 986 q 481 811 481 893 q 455 715 481 764 q 334 582 430 667 l 262 519 l 262 517 l 489 517 l 489 396 z "},"³":{"ha":562,"x_min":89,"x_max":485,"o":"m 89 418 l 89 541 q 239 494 161 494 q 340 564 340 494 q 224 633 340 633 l 144 633 l 144 746 l 221 746 q 322 811 322 746 q 241 872 322 872 q 107 828 169 872 l 107 947 q 269 986 174 986 q 413 945 360 986 q 465 836 465 904 q 368 704 465 736 l 368 701 q 485 567 485 673 q 418 433 485 484 q 244 382 352 382 q 89 418 154 382 z "},"½":{"ha":1341,"x_min":66,"x_max":1250,"o":"m 458 396 l 77 396 l 77 513 l 196 513 l 196 836 l 66 808 l 66 930 l 342 986 l 342 513 l 458 513 l 458 396 m 1021 972 l 417 0 l 252 0 l 856 972 l 1021 972 m 1250 0 l 840 0 l 840 106 l 1008 265 q 1073 340 1061 315 q 1086 395 1086 365 q 1066 443 1086 424 q 1015 461 1047 461 q 872 391 949 461 l 872 537 q 1042 590 952 590 q 1188 544 1134 590 q 1242 415 1242 497 q 1216 319 1242 368 q 1095 186 1191 271 l 1023 123 l 1023 121 l 1250 121 l 1250 0 z "},"¼":{"ha":1322,"x_min":66,"x_max":1251,"o":"m 458 396 l 77 396 l 77 513 l 196 513 l 196 836 l 66 808 l 66 930 l 342 986 l 342 513 l 458 513 l 458 396 m 1021 972 l 416 0 l 251 0 l 855 972 l 1021 972 m 1251 119 l 1177 119 l 1177 0 l 1032 0 l 1032 119 l 764 119 l 764 215 l 1002 576 l 1177 576 l 1177 224 l 1251 224 l 1251 119 m 1035 460 l 1029 460 q 1003 408 1020 435 l 889 224 l 1032 224 l 1032 403 q 1035 460 1032 435 z "},"¾":{"ha":1360,"x_min":89,"x_max":1283,"o":"m 89 418 l 89 541 q 239 494 161 494 q 340 564 340 494 q 224 633 340 633 l 144 633 l 144 746 l 221 746 q 322 811 322 746 q 241 872 322 872 q 107 828 169 872 l 107 947 q 269 986 174 986 q 413 945 360 986 q 465 836 465 904 q 368 704 465 736 l 368 701 q 485 567 485 673 q 418 433 485 484 q 244 382 352 382 q 89 418 154 382 m 1061 972 l 457 0 l 292 0 l 896 972 l 1061 972 m 1283 119 l 1208 119 l 1208 0 l 1064 0 l 1064 119 l 796 119 l 796 215 l 1034 576 l 1208 576 l 1208 224 l 1283 224 l 1283 119 m 1067 460 l 1061 460 q 1035 408 1052 435 l 921 224 l 1064 224 l 1064 403 q 1067 460 1064 435 z "},"⁴":{"ha":581,"x_min":46,"x_max":533,"o":"m 533 515 l 458 515 l 458 396 l 314 396 l 314 515 l 46 515 l 46 611 l 283 972 l 458 972 l 458 621 l 533 621 l 533 515 m 317 856 l 311 856 q 285 804 302 831 l 171 621 l 314 621 l 314 799 q 317 856 314 831 z "},"¤":{"ha":772,"x_min":35,"x_max":737,"o":"m 737 243 l 642 144 l 545 240 q 386 196 473 196 q 228 240 300 196 l 131 144 l 35 243 l 131 336 q 86 492 86 411 q 131 647 86 574 l 35 742 l 131 840 l 228 745 q 386 789 300 789 q 545 745 473 789 l 642 840 l 737 742 l 642 647 q 688 492 688 572 q 642 336 688 414 l 737 243 m 386 654 q 271 607 318 654 q 224 493 224 560 q 271 379 224 426 q 386 332 318 332 q 502 379 454 332 q 550 493 550 426 q 500 607 550 559 q 386 654 451 654 z "},"◌":{"ha":825,"x_min":69,"x_max":756,"o":"m 665 623 q 632 589 665 589 q 597 623 597 589 q 632 656 597 656 q 665 623 665 656 m 564 689 q 532 656 564 656 q 496 689 496 656 q 532 724 496 724 q 564 689 564 724 m 732 522 q 697 488 732 488 q 664 522 664 488 q 699 555 664 555 q 732 522 732 555 m 756 404 q 724 370 756 370 q 688 404 688 370 q 724 438 688 438 q 756 404 756 438 m 446 714 q 412 680 446 680 q 378 714 378 680 q 412 747 378 747 q 446 714 446 747 m 329 689 q 294 656 329 656 q 261 689 261 656 q 294 724 261 724 q 329 689 329 724 m 732 286 q 697 253 732 253 q 664 286 664 253 q 697 321 664 321 q 732 286 732 321 m 229 623 q 195 589 229 589 q 161 621 161 589 q 195 656 161 656 q 229 623 229 656 m 665 184 q 632 151 665 151 q 597 184 597 151 q 632 219 597 219 q 665 184 665 219 m 564 118 q 532 85 564 85 q 496 118 496 85 q 532 153 496 153 q 564 118 564 153 m 161 522 q 129 488 161 488 q 94 522 94 488 q 127 555 94 555 q 161 522 161 555 m 137 404 q 104 370 137 370 q 69 404 69 370 q 104 438 69 438 q 137 404 137 438 m 446 96 q 412 61 446 61 q 378 96 378 61 q 412 129 378 129 q 446 96 446 129 m 161 286 q 127 253 161 253 q 94 286 94 253 q 127 321 94 321 q 161 286 161 321 m 329 121 q 294 85 329 85 q 261 118 261 85 q 294 153 261 153 q 329 121 329 153 m 229 184 q 195 151 229 151 q 161 184 161 151 q 195 219 161 219 q 229 184 229 219 z "},"Ꭰ":{"ha":1024,"x_min":111,"x_max":974,"o":"m 111 0 l 111 972 l 456 972 q 974 498 974 972 q 832 136 974 271 q 456 0 691 0 l 111 0 m 330 794 l 330 178 l 439 178 q 662 263 581 178 q 743 496 743 349 q 663 714 743 635 q 437 794 583 794 l 330 794 z "},"Ꭱ":{"ha":1025,"x_min":111,"x_max":1025,"o":"m 526 264 q 512 320 526 299 q 478 353 498 342 q 434 369 458 365 q 389 372 410 372 l 330 372 l 330 0 l 111 0 l 111 972 l 458 972 q 812 708 812 972 q 798 616 812 657 q 754 542 783 574 q 685 488 726 510 q 594 454 645 466 l 594 452 q 647 438 620 448 q 695 408 673 428 q 731 353 718 387 q 745 267 745 319 l 745 218 q 747 204 745 215 q 755 182 749 193 q 773 161 761 170 q 805 152 785 152 q 838 162 825 152 q 856 184 850 172 q 865 217 863 199 l 1025 217 q 989 100 1018 151 q 957 57 976 78 q 911 20 938 36 q 848 -7 884 3 q 764 -17 812 -17 q 677 -4 714 -17 q 614 28 640 8 q 570 74 587 48 q 544 125 553 99 q 530 175 534 151 q 526 217 526 199 l 526 264 m 330 808 l 330 538 l 425 538 q 486 548 458 538 q 536 577 515 558 q 570 622 557 595 q 582 681 582 648 q 429 808 582 808 l 330 808 z "},"Ꭲ":{"ha":814,"x_min":21,"x_max":794,"o":"m 794 794 l 517 794 l 517 0 l 297 0 l 297 794 l 21 794 l 21 972 l 794 972 l 794 794 z "},"Ꭳ":{"ha":1068,"x_min":27,"x_max":1018,"o":"m 780 972 l 780 803 l 699 803 l 699 723 q 837 679 777 710 q 937 599 897 647 q 997 487 977 551 q 1018 345 1018 422 q 988 188 1018 256 q 907 75 959 121 q 783 6 854 30 q 626 -17 711 -17 l 626 172 q 699 188 668 172 q 749 230 729 204 q 779 288 769 256 q 789 354 789 321 q 780 418 789 385 q 749 479 772 452 q 688 525 727 507 q 589 543 650 543 q 526 534 554 543 q 478 512 498 525 q 444 482 458 498 q 422 450 430 465 q 474 414 450 435 q 515 366 498 393 q 542 306 532 338 q 552 234 552 273 q 531 129 552 175 q 475 50 511 82 q 392 0 439 18 q 290 -17 344 -17 q 188 0 235 -17 q 104 50 140 18 q 48 129 68 82 q 27 234 27 175 q 40 316 27 279 q 75 383 53 353 q 128 433 98 412 q 194 467 159 454 q 301 632 228 568 q 479 720 375 697 l 479 803 l 398 803 l 398 972 l 780 972 m 290 123 q 324 134 310 123 q 347 159 338 144 q 360 195 356 175 q 363 234 363 214 q 360 271 363 252 q 348 306 357 290 q 325 332 339 322 q 290 342 311 342 q 254 332 268 342 q 231 306 240 322 q 219 271 222 290 q 216 234 216 252 q 219 195 216 214 q 232 159 223 175 q 255 134 241 144 q 290 123 269 123 z "},"Ꭴ":{"ha":1311,"x_min":50,"x_max":1311,"o":"m 509 -17 q 317 20 401 -17 q 173 122 232 57 q 82 278 113 188 q 50 473 50 368 q 82 679 50 585 q 174 843 113 774 q 323 950 235 911 q 524 989 411 989 q 711 954 629 989 q 850 856 793 918 q 939 707 907 793 q 975 519 971 621 q 1043 529 1012 522 q 1097 550 1074 536 q 1134 586 1120 564 q 1147 642 1147 608 q 1142 672 1147 657 q 1128 699 1137 687 q 1105 718 1119 711 q 1073 725 1091 725 q 1043 722 1057 725 q 1019 716 1029 720 q 996 708 1006 713 l 996 857 q 1024 864 1010 861 q 1057 870 1038 867 q 1096 873 1076 873 q 1187 856 1147 873 q 1255 809 1227 839 q 1297 741 1282 780 q 1311 657 1311 702 q 1284 528 1311 581 q 1211 441 1257 475 q 1100 391 1164 408 q 964 368 1037 374 q 911 212 949 283 q 815 90 873 141 q 680 11 757 39 q 509 -17 603 -17 m 518 800 q 408 774 453 800 q 335 704 363 748 q 294 604 307 661 q 281 485 281 547 q 293 367 281 424 q 333 268 306 311 q 405 198 361 224 q 513 172 449 172 q 622 197 578 172 q 694 264 667 222 q 733 362 722 307 q 745 481 745 418 q 734 602 745 544 q 697 703 724 659 q 628 774 671 747 q 518 800 584 800 z "},"Ꭵ":{"ha":440,"x_min":29,"x_max":411,"o":"m 330 694 l 330 170 l 411 170 l 411 0 l 29 0 l 29 170 l 111 170 l 111 694 l 330 694 m 222 804 q 174 812 197 804 q 135 834 152 820 q 108 870 118 849 q 98 916 98 890 q 108 962 98 941 q 135 996 118 982 q 174 1017 152 1010 q 222 1025 197 1025 q 269 1017 247 1025 q 309 996 292 1010 q 335 962 326 982 q 345 916 345 941 q 335 869 345 890 q 309 834 326 848 q 270 812 292 820 q 222 804 247 804 z "},"Ꭶ":{"ha":779,"x_min":7,"x_max":772,"o":"m 772 403 l 688 403 q 711 344 703 376 q 719 273 719 312 q 689 137 719 192 q 608 47 659 81 q 487 -2 556 13 q 340 -17 418 -17 q 191 -3 260 -17 q 69 37 122 10 l 69 254 q 330 155 188 155 q 401 163 372 155 q 451 183 431 170 q 479 215 470 197 q 488 254 488 233 q 455 336 488 301 q 356 403 422 372 l 7 403 l 7 578 l 106 578 q 76 637 86 606 q 65 700 65 668 q 95 830 65 776 q 175 920 124 885 q 295 972 227 956 q 440 989 363 989 q 510 986 478 989 q 571 980 543 984 q 626 968 600 975 q 676 951 652 961 l 676 749 q 624 779 652 766 q 567 800 595 791 q 509 812 538 808 q 452 817 479 817 q 336 790 376 817 q 296 718 296 763 q 305 677 296 696 q 334 642 315 659 q 381 610 353 626 q 447 578 409 595 l 772 578 l 772 403 z "},"Ꭷ":{"ha":1119,"x_min":41,"x_max":1069,"o":"m 41 427 q 58 546 41 490 q 110 644 75 602 q 195 711 144 686 q 316 735 247 735 q 418 716 372 735 q 497 662 465 697 q 548 576 530 626 q 566 464 566 526 q 554 373 566 414 q 522 297 542 332 q 478 236 503 263 q 427 187 453 208 q 535 172 475 172 q 642 189 588 172 q 740 242 696 205 q 811 338 783 279 q 838 483 838 397 q 813 629 838 568 q 747 727 788 689 q 656 783 707 765 q 553 800 605 800 q 479 797 511 800 q 425 789 447 793 q 382 777 399 783 l 382 974 q 439 981 409 978 q 496 986 465 984 q 562 989 528 989 q 760 954 667 989 q 921 853 852 918 q 1029 694 989 787 q 1069 485 1069 601 q 1028 252 1069 347 q 915 96 987 156 q 745 10 843 37 q 535 -17 648 -17 q 323 18 416 -17 q 169 113 231 53 q 73 255 106 174 q 41 427 41 336 m 233 441 q 249 344 233 388 q 295 267 265 300 q 331 299 313 281 q 363 341 349 317 q 386 396 377 366 q 394 463 394 426 q 388 509 394 487 q 373 548 382 531 q 349 574 363 564 q 319 584 335 584 q 285 574 300 584 q 257 545 269 564 q 239 500 245 526 q 233 441 233 473 z "},"Ꭸ":{"ha":799,"x_min":30,"x_max":799,"o":"m 412 972 l 412 803 l 330 803 l 330 684 q 378 704 353 697 q 426 711 402 711 q 492 701 467 711 q 532 673 517 690 q 552 633 547 656 q 557 586 557 611 q 551 515 557 551 q 546 451 546 479 q 554 411 546 427 q 587 396 562 396 q 618 405 604 396 q 644 429 633 414 q 660 464 654 444 q 666 505 666 484 q 657 562 666 538 q 637 602 648 586 q 608 631 625 619 l 664 736 q 731 688 701 719 q 756 659 744 675 q 778 620 768 642 q 793 571 787 598 q 799 513 799 545 q 778 398 799 445 q 724 321 757 351 q 652 279 692 292 q 575 266 612 266 q 490 278 523 266 q 439 310 458 290 q 415 355 421 330 q 408 409 408 381 q 410 446 408 427 q 414 481 412 464 q 418 514 416 498 q 420 543 420 530 q 414 572 420 562 q 392 583 408 583 q 362 567 374 583 q 343 524 351 551 q 333 461 336 497 q 330 384 330 425 l 330 170 l 412 170 l 412 0 l 30 0 l 30 170 l 111 170 l 111 803 l 30 803 l 30 972 l 412 972 z "},"Ꭹ":{"ha":854,"x_min":16,"x_max":860,"o":"m 860 972 l 555 306 q 394 51 470 119 q 201 -17 318 -17 q 75 5 124 -17 l 75 205 q 191 170 131 170 q 335 302 273 170 l 16 972 l 265 972 l 427 583 q 449 504 441 548 l 450 504 q 473 581 458 541 l 629 972 l 860 972 z "},"Ꭺ":{"ha":977,"x_min":7,"x_max":966,"o":"m 966 0 l 728 0 l 659 216 l 313 216 l 244 0 l 7 0 l 361 972 l 621 972 l 966 0 m 608 385 l 504 711 q 488 799 492 748 l 482 799 q 465 714 479 756 l 359 385 l 608 385 z "},"Ꭻ":{"ha":901,"x_min":34,"x_max":799,"o":"m 256 345 q 419 172 256 172 q 579 347 579 172 l 579 972 l 799 972 l 799 345 q 771 191 799 258 q 693 78 743 124 q 573 7 643 31 q 419 -17 503 -17 q 264 7 335 -17 q 143 78 194 31 q 63 191 92 124 q 34 345 34 258 l 256 345 z "},"Ꭼ":{"ha":739,"x_min":111,"x_max":694,"o":"m 694 0 l 111 0 l 111 972 l 672 972 l 672 794 l 330 794 l 330 578 l 648 578 l 648 400 l 330 400 l 330 178 l 694 178 l 694 0 z "},"Ꭽ":{"ha":1192,"x_min":14,"x_max":1166,"o":"m 835 972 l 835 803 l 742 803 l 742 639 l 1166 639 l 1166 489 l 758 0 l 547 0 l 547 473 l 475 473 q 445 400 465 432 q 396 347 425 369 q 330 314 367 326 q 249 302 293 302 q 151 320 195 302 q 77 369 108 337 q 30 448 47 401 q 14 553 14 494 q 32 659 14 612 q 81 737 50 705 q 156 786 113 769 q 249 802 199 802 q 325 791 289 802 q 390 760 361 781 q 440 708 419 739 q 473 639 461 678 l 547 639 l 547 803 l 453 803 l 453 972 l 835 972 m 249 429 q 283 441 269 429 q 307 472 298 454 q 319 512 315 490 q 323 553 323 534 q 319 593 323 572 q 307 633 316 614 q 284 663 298 651 q 249 675 270 675 q 213 663 227 675 q 191 633 199 651 q 178 593 182 614 q 175 553 175 572 q 179 512 175 534 q 191 472 182 490 q 214 441 200 454 q 249 429 229 429 m 742 221 l 947 473 l 742 473 l 742 221 z "},"Ꭾ":{"ha":876,"x_min":95,"x_max":835,"o":"m 477 636 l 477 467 l 395 467 l 395 398 q 412 397 404 397 q 431 397 421 397 q 510 413 475 397 q 569 457 545 429 q 605 524 593 485 q 617 608 617 562 q 599 699 617 659 q 549 767 581 739 q 471 810 516 795 q 373 825 427 825 q 263 812 313 825 q 175 784 212 800 q 95 744 132 766 l 95 937 q 173 963 127 951 q 268 981 212 972 q 397 989 323 989 q 574 965 494 989 q 712 891 654 941 q 803 768 770 842 q 835 594 835 694 q 810 450 835 516 q 740 336 786 384 q 627 260 693 288 q 477 233 560 233 q 432 234 452 233 q 395 236 412 235 l 395 170 l 477 170 l 477 0 l 95 0 l 95 170 l 176 170 l 176 467 l 95 467 l 95 636 l 477 636 z "},"Ꭿ":{"ha":1027,"x_min":7,"x_max":977,"o":"m 977 490 q 972 388 977 444 q 954 275 967 332 q 917 166 941 219 q 857 73 894 113 q 769 7 821 32 q 649 -17 718 -17 q 556 -3 595 -17 l 556 192 q 633 172 591 172 q 687 191 665 172 q 723 240 709 210 q 744 308 737 271 q 754 382 751 346 l 427 382 q 391 224 412 297 q 332 97 369 151 q 240 13 296 43 q 100 -17 184 -17 q 7 -3 46 -17 l 7 192 q 40 177 24 182 q 77 172 56 172 q 128 191 106 172 q 165 242 149 209 q 192 321 181 275 q 212 422 203 367 q 228 540 220 477 q 244 669 235 603 q 289 817 255 756 q 370 916 322 878 q 476 971 418 954 q 593 989 534 989 q 748 959 677 989 q 869 869 819 930 q 949 713 920 808 q 977 490 977 619 m 604 800 q 569 795 589 800 q 528 778 548 791 q 491 736 507 764 q 467 664 474 709 q 459 610 463 637 q 452 557 455 583 l 754 557 q 732 674 748 627 q 696 749 717 721 q 651 788 675 777 q 604 800 627 800 z "},"Ꮀ":{"ha":711,"x_min":111,"x_max":690,"o":"m 111 0 l 111 972 l 330 972 l 330 578 l 690 578 l 690 400 l 330 400 l 330 0 l 111 0 z "},"Ꮁ":{"ha":711,"x_min":111,"x_max":690,"o":"m 690 791 l 330 791 l 330 0 l 111 0 l 111 972 l 690 972 l 690 791 z "},"Ꮂ":{"ha":1374,"x_min":14,"x_max":1360,"o":"m 1360 499 l 1360 330 l 1296 330 q 1271 204 1296 266 q 1196 93 1246 142 q 1072 13 1146 43 q 901 -17 998 -17 q 654 39 770 -17 q 408 -17 539 -17 q 237 13 311 -17 q 114 93 163 43 q 39 204 64 142 q 14 330 14 266 l 229 330 q 243 266 229 294 q 281 216 257 237 q 340 184 306 195 q 414 172 374 172 q 475 178 445 172 q 363 374 404 260 q 322 631 322 488 q 342 772 322 707 q 404 886 363 838 q 508 961 446 934 q 654 989 570 989 q 801 961 739 989 q 905 886 864 934 q 967 772 947 838 q 987 631 987 707 q 946 374 987 488 q 835 178 905 260 q 896 172 864 172 q 970 184 936 172 q 1028 216 1004 195 q 1066 266 1053 237 q 1080 330 1080 294 l 1013 330 l 1013 499 l 1360 499 m 760 637 q 753 703 760 673 q 733 754 746 732 q 700 788 720 776 q 654 800 680 800 q 609 788 629 800 q 577 754 590 776 q 557 703 564 732 q 550 637 550 673 q 577 445 550 533 q 654 294 604 357 q 732 445 705 357 q 760 637 760 533 z "},"Ꮃ":{"ha":1396,"x_min":12,"x_max":1383,"o":"m 1383 972 l 1126 0 l 884 0 l 722 624 q 707 733 709 673 l 704 733 q 686 624 698 667 l 521 0 l 268 0 l 12 972 l 252 972 l 389 325 q 401 214 397 283 l 406 214 q 425 328 408 266 l 602 972 l 836 972 l 996 319 q 1011 215 1004 283 l 1014 215 q 1028 323 1017 269 l 1162 972 l 1383 972 z "},"Ꮄ":{"ha":851,"x_min":49,"x_max":844,"o":"m 722 310 q 697 177 722 237 q 627 74 672 117 q 520 7 582 31 q 385 -17 458 -17 q 250 7 312 -17 q 144 74 189 31 q 74 177 99 117 q 49 310 49 237 q 74 443 49 382 q 144 546 99 503 q 250 613 189 589 q 385 637 312 637 q 443 633 414 637 q 413 740 425 690 q 401 819 401 789 q 425 923 401 881 q 490 992 449 966 q 584 1029 530 1018 q 696 1040 637 1040 q 751 1038 725 1040 q 799 1031 778 1035 q 844 1023 823 1027 l 844 844 q 804 862 826 854 q 758 874 784 869 q 702 880 732 880 q 643 859 667 880 q 619 795 619 838 q 627 715 619 753 q 646 640 635 677 q 671 565 657 602 q 695 487 684 527 q 714 403 707 447 q 722 310 722 359 m 258 310 q 266 250 258 279 q 289 198 273 220 q 329 161 304 175 q 386 147 353 147 q 443 161 419 147 q 482 198 467 175 q 505 250 498 220 q 513 310 513 279 q 505 370 513 340 q 482 422 498 399 q 443 459 467 445 q 386 473 419 473 q 329 459 353 473 q 289 422 304 445 q 266 370 273 399 q 258 310 258 340 z "},"Ꮅ":{"ha":889,"x_min":100,"x_max":858,"o":"m 319 0 l 100 0 l 100 627 q 127 781 100 713 q 205 895 155 848 q 326 965 256 941 q 479 989 395 989 q 629 965 560 989 q 749 896 699 941 q 829 785 800 850 q 858 635 858 719 q 851 563 858 595 q 834 503 845 530 q 810 454 823 476 q 782 414 796 432 l 604 528 q 627 572 618 545 q 635 634 635 600 q 626 702 635 671 q 596 755 616 733 q 547 788 576 777 q 479 800 518 800 q 319 625 319 800 l 319 0 z "},"Ꮆ":{"ha":1000,"x_min":49,"x_max":959,"o":"m 688 561 q 781 547 733 561 q 868 501 829 533 q 933 416 908 469 q 959 288 959 364 q 935 171 959 226 q 863 74 911 115 q 741 7 814 32 q 570 -17 668 -17 q 347 20 444 -17 q 184 122 250 57 q 83 275 117 186 q 49 465 49 363 q 85 677 49 581 q 189 842 122 773 q 351 950 256 911 q 560 989 445 989 q 678 981 626 989 q 766 964 730 973 q 841 939 808 953 l 841 728 q 766 764 808 748 q 683 789 731 778 q 578 800 635 800 q 451 777 507 800 q 358 711 396 753 q 299 610 319 669 q 279 481 279 551 q 298 366 279 421 q 353 267 317 310 q 443 198 390 224 q 566 172 496 172 q 654 181 617 172 q 716 205 692 189 q 752 243 741 221 q 764 291 764 264 q 757 326 764 311 q 740 351 751 340 q 716 366 730 361 q 688 372 703 372 l 688 297 l 519 297 l 519 638 l 688 638 l 688 561 z "},"Ꮇ":{"ha":1329,"x_min":111,"x_max":1219,"o":"m 1219 0 l 1003 0 l 1003 582 q 1011 790 1003 676 l 1006 790 q 975 661 989 701 l 747 0 l 568 0 l 336 654 q 306 790 327 681 l 300 790 q 309 538 309 646 l 309 0 l 111 0 l 111 972 l 432 972 l 631 396 q 665 257 654 327 l 669 257 q 708 397 688 338 l 907 972 l 1219 972 l 1219 0 z "},"Ꮈ":{"ha":834,"x_min":57,"x_max":734,"o":"m 57 659 l 227 659 l 227 559 q 265 578 244 569 q 308 587 286 587 q 342 575 328 587 q 369 551 356 564 q 395 527 382 538 q 425 515 408 515 q 450 520 437 515 q 475 532 463 525 q 498 546 488 538 q 516 561 509 554 l 516 578 q 454 745 516 690 q 278 800 393 800 q 197 793 237 800 q 126 779 157 787 q 57 758 90 769 l 57 963 q 130 976 91 970 q 205 985 163 981 q 294 989 248 989 q 497 963 414 989 q 634 886 581 937 q 710 760 686 835 q 734 587 734 684 l 734 0 l 516 0 l 516 401 q 496 388 508 395 q 472 374 485 380 q 446 363 459 368 q 420 359 432 359 q 381 370 398 359 q 349 394 363 381 q 323 419 335 408 q 302 430 312 430 q 266 420 286 430 q 227 397 245 410 l 227 290 l 57 290 l 57 659 z "},"Ꮉ":{"ha":1305,"x_min":0,"x_max":1305,"o":"m 854 972 l 854 803 l 772 803 l 772 749 q 775 695 772 720 q 786 652 778 671 q 808 624 793 634 q 846 613 822 613 q 896 622 871 613 q 943 645 920 631 q 991 674 967 659 q 1041 704 1015 690 q 1094 727 1066 718 q 1154 736 1122 736 q 1207 727 1180 736 q 1256 708 1234 718 q 1305 681 1282 696 l 1305 486 q 1259 515 1283 503 q 1212 536 1238 527 q 1159 545 1185 545 q 1113 536 1135 545 q 1067 513 1090 527 q 1018 484 1043 500 q 964 454 993 468 q 903 432 936 441 q 832 422 870 422 q 765 429 795 422 q 710 446 734 435 q 667 469 686 456 q 633 496 648 482 q 583 571 600 529 q 523 558 554 568 q 460 529 491 548 q 545 486 505 513 q 613 424 584 459 q 659 346 642 389 q 675 253 675 302 q 660 148 675 197 q 610 62 644 98 q 526 4 577 25 q 404 -17 474 -17 q 274 8 327 -17 q 187 75 220 34 q 138 166 153 115 q 123 269 123 218 q 124 295 123 282 q 126 322 125 309 q 75 285 94 301 q 56 268 64 276 l 0 414 q 60 460 27 437 q 125 499 87 479 q 205 534 162 519 q 274 613 235 578 q 357 675 313 648 q 452 719 402 701 q 554 742 502 736 l 554 803 l 473 803 l 473 972 l 854 972 m 332 282 q 339 226 332 250 q 356 188 345 203 q 380 166 367 173 q 406 159 393 159 q 430 165 418 159 q 451 184 442 172 q 466 212 460 196 q 472 247 472 228 q 439 333 472 298 q 346 378 406 368 q 332 282 332 334 z "},"Ꮊ":{"ha":1371,"x_min":50,"x_max":1260,"o":"m 488 989 q 654 959 580 989 q 783 874 728 928 q 872 744 838 820 q 919 578 907 669 l 1041 578 l 1041 972 l 1260 972 l 1260 0 l 1041 0 l 1041 400 l 922 400 q 874 232 911 309 q 781 100 838 155 q 649 14 724 45 q 488 -17 574 -17 q 313 20 393 -17 q 174 122 233 57 q 83 278 116 188 q 50 473 50 368 q 80 679 50 585 q 165 843 109 774 q 303 950 221 911 q 488 989 385 989 m 488 172 q 580 198 541 172 q 645 268 619 224 q 683 367 671 311 q 696 485 696 424 q 683 604 696 547 q 645 704 671 661 q 581 774 620 748 q 488 800 542 800 q 396 774 435 800 q 331 704 357 748 q 293 604 306 661 q 281 485 281 547 q 293 367 281 424 q 332 268 306 311 q 396 198 357 224 q 488 172 435 172 z "},"Ꮋ":{"ha":1064,"x_min":111,"x_max":953,"o":"m 953 0 l 733 0 l 733 396 l 330 396 l 330 0 l 111 0 l 111 972 l 330 972 l 330 585 l 733 585 l 733 972 l 953 972 l 953 0 z "},"Ꮌ":{"ha":718,"x_min":81,"x_max":669,"o":"m 81 197 q 165 160 120 172 q 252 147 211 147 q 333 161 296 147 q 397 200 370 174 q 437 262 423 225 q 452 345 452 298 q 437 428 452 391 q 395 492 422 466 q 329 533 368 519 q 245 547 291 547 q 159 535 203 547 q 81 497 115 522 l 81 679 q 131 697 100 690 q 199 708 161 705 l 199 803 l 117 803 l 117 972 l 499 972 l 499 803 l 418 803 l 418 694 q 604 569 538 661 q 669 330 669 477 q 644 188 669 252 q 570 79 618 124 q 455 8 522 33 q 304 -17 387 -17 q 177 -6 235 -17 q 81 25 118 4 l 81 197 z "},"Ꮍ":{"ha":1162,"x_min":14,"x_max":1156,"o":"m 1156 972 l 1156 803 l 1069 803 l 844 306 q 774 173 811 233 q 691 71 737 113 q 586 6 644 28 q 450 -17 527 -17 q 295 9 359 -17 q 188 79 231 36 q 124 179 146 123 q 98 294 102 235 l 14 294 l 14 464 l 395 464 l 395 294 l 314 294 q 327 244 317 267 q 353 206 336 222 q 396 181 370 190 q 456 172 421 172 q 548 204 505 172 q 622 302 591 235 l 302 972 l 552 972 l 737 517 l 849 803 l 774 803 l 774 972 l 1156 972 z "},"Ꮎ":{"ha":1053,"x_min":50,"x_max":1003,"o":"m 522 -17 q 182 119 313 -17 q 50 473 50 255 q 184 846 50 704 q 538 989 317 989 q 874 852 746 989 q 1003 493 1003 716 q 870 123 1003 264 q 522 -17 736 -17 m 770 570 q 532 810 735 810 q 366 747 431 810 q 283 570 301 684 l 770 570 m 770 396 l 285 396 q 367 223 303 283 q 526 163 431 163 q 770 396 736 163 z "},"Ꮏ":{"ha":876,"x_min":28,"x_max":849,"o":"m 849 416 l 849 247 l 780 247 l 780 12 q 765 -99 780 -51 q 725 -182 750 -146 q 669 -241 701 -217 q 605 -282 637 -266 q 431 -326 528 -319 l 431 -163 q 498 -142 468 -159 q 523 -123 511 -134 q 545 -95 535 -111 q 560 -56 554 -78 q 566 -4 566 -33 q 517 -13 543 -9 q 463 -17 492 -17 q 321 2 382 -17 q 220 56 260 21 q 160 138 180 90 q 140 245 140 186 l 140 536 l 28 536 l 28 694 l 140 694 l 140 844 l 354 905 l 354 694 l 510 694 l 510 536 l 354 536 l 354 269 q 362 213 354 237 q 386 175 371 190 q 419 154 400 161 q 460 147 439 147 q 536 174 513 147 q 564 247 559 200 l 494 247 l 494 416 l 849 416 z "},"Ꮐ":{"ha":987,"x_min":50,"x_max":909,"o":"m 909 65 q 555 -17 767 -17 q 185 113 321 -17 q 50 471 50 243 q 198 844 50 700 q 591 989 346 989 q 864 946 746 989 l 864 741 q 589 806 751 806 q 367 717 452 806 q 281 481 281 629 q 358 249 281 331 q 566 167 435 167 q 690 189 644 167 l 690 379 l 496 379 l 496 554 l 909 554 l 909 65 z "},"Ꮑ":{"ha":1112,"x_min":14,"x_max":1012,"o":"m 634 989 q 806 962 734 989 q 924 880 878 935 q 990 743 969 825 q 1012 551 1012 661 l 1012 0 l 793 0 l 793 572 q 755 744 793 687 q 634 800 717 800 q 592 794 614 800 q 548 772 569 788 q 511 729 528 757 q 488 657 494 701 q 461 485 473 569 q 432 326 448 401 q 392 188 416 251 q 330 80 368 125 q 238 8 293 34 q 106 -17 184 -17 q 14 -3 53 -17 l 14 192 q 47 177 31 182 q 83 172 62 172 q 136 190 113 172 q 175 240 158 208 q 205 318 193 273 q 229 417 218 363 q 247 534 239 472 q 264 663 256 596 q 313 811 275 749 q 401 912 350 873 q 514 970 453 952 q 634 989 575 989 z "},"Ꮒ":{"ha":1003,"x_min":111,"x_max":908,"o":"m 908 0 l 690 0 l 690 351 q 551 478 690 478 q 330 411 442 478 l 330 0 l 111 0 l 111 972 l 330 972 l 330 586 q 607 661 468 661 q 908 371 908 661 l 908 0 z "},"Ꮓ":{"ha":843,"x_min":28,"x_max":811,"o":"m 811 0 l 28 0 l 28 126 l 526 794 l 64 794 l 64 972 l 810 972 l 810 850 l 322 178 l 811 178 l 811 0 z "},"Ꮔ":{"ha":950,"x_min":41,"x_max":850,"o":"m 395 565 l 395 443 l 325 443 q 330 414 325 425 q 347 398 335 404 q 378 392 358 393 q 427 391 397 391 l 631 391 l 631 600 q 590 752 631 698 q 464 807 548 807 q 416 802 437 807 q 382 790 396 796 q 355 774 366 783 l 395 774 l 395 652 l 41 652 l 41 774 l 108 774 q 151 858 123 819 q 221 926 179 897 q 322 972 264 956 q 456 989 380 989 q 632 964 557 989 q 755 887 707 939 q 827 756 804 835 q 850 572 850 677 l 850 0 l 631 0 l 631 226 l 391 226 q 174 279 243 226 q 105 443 105 332 l 41 443 l 41 565 l 395 565 z "},"Ꮕ":{"ha":1392,"x_min":50,"x_max":1392,"o":"m 488 989 q 635 965 568 989 q 755 899 703 942 q 844 795 807 856 q 901 662 881 735 q 959 699 929 686 q 1019 711 989 711 q 1085 701 1059 711 q 1125 673 1110 690 q 1144 633 1139 656 q 1149 586 1149 611 q 1144 515 1149 551 q 1139 451 1139 479 q 1147 411 1139 427 q 1179 396 1155 396 q 1211 405 1196 396 q 1236 429 1225 414 q 1253 464 1247 444 q 1259 505 1259 484 q 1250 562 1259 538 q 1230 602 1240 586 q 1201 631 1217 619 l 1257 736 q 1324 688 1294 719 q 1349 659 1337 675 q 1371 620 1361 642 q 1386 571 1380 598 q 1392 513 1392 545 q 1371 398 1392 445 q 1317 321 1350 351 q 1245 279 1284 292 q 1168 266 1205 266 q 1083 278 1116 266 q 1032 310 1050 290 q 1007 355 1014 330 q 1001 409 1001 381 q 1003 446 1001 427 q 1007 481 1005 464 q 1011 514 1009 498 q 1013 543 1013 530 q 1007 572 1013 562 q 985 583 1001 583 q 961 572 971 583 q 943 542 950 561 q 931 497 935 522 q 926 444 926 472 q 888 262 922 347 q 796 116 854 178 q 659 19 738 54 q 488 -17 581 -17 q 313 20 393 -17 q 174 122 233 57 q 83 278 116 188 q 50 473 50 368 q 80 679 50 585 q 165 843 109 774 q 303 950 221 911 q 488 989 385 989 m 488 172 q 580 198 541 172 q 645 268 619 224 q 683 367 671 311 q 696 485 696 424 q 683 604 696 547 q 645 704 671 661 q 581 774 620 748 q 488 800 542 800 q 396 774 435 800 q 331 704 357 748 q 293 604 306 661 q 281 485 281 547 q 293 367 281 424 q 332 268 306 311 q 396 198 357 224 q 488 172 435 172 z "},"Ꮖ":{"ha":814,"x_min":21,"x_max":794,"o":"m 794 0 l 21 0 l 21 178 l 297 178 l 297 794 l 21 794 l 21 972 l 794 972 l 794 794 l 517 794 l 517 178 l 794 178 l 794 0 z "},"Ꮗ":{"ha":1491,"x_min":41,"x_max":1441,"o":"m 336 503 q 296 458 314 484 q 270 408 281 437 q 258 342 258 378 q 266 280 258 312 q 297 224 275 249 q 356 183 319 199 q 450 167 393 167 q 541 178 503 167 q 602 200 578 189 l 602 467 l 821 467 l 821 189 q 946 167 867 167 q 1061 190 1012 167 q 1144 254 1111 213 q 1194 353 1177 296 q 1211 481 1211 411 q 1189 611 1211 551 q 1127 714 1167 671 q 1030 781 1087 757 q 903 806 973 806 q 786 791 837 806 q 700 758 735 776 q 627 711 659 737 l 492 859 q 588 924 530 895 q 644 947 612 936 q 715 968 676 959 q 800 983 753 977 q 900 989 846 989 q 1117 952 1018 989 q 1288 848 1216 916 q 1401 685 1360 781 q 1441 471 1441 589 q 1407 264 1441 355 q 1309 111 1373 174 q 1156 16 1246 48 q 956 -17 1067 -17 q 830 -1 889 -17 q 718 39 770 15 q 653 13 687 24 q 584 -4 618 3 q 515 -14 549 -11 q 450 -17 481 -17 q 314 -2 374 -17 q 208 38 254 12 q 131 98 162 63 q 79 173 99 132 q 50 257 59 213 q 41 346 41 302 q 47 416 41 383 q 64 478 54 450 q 88 531 75 507 q 116 574 102 555 q 191 653 149 620 l 336 503 z "},"Ꮘ":{"ha":1418,"x_min":14,"x_max":1384,"o":"m 1051 542 q 1134 569 1102 542 q 1166 656 1166 596 q 1146 724 1166 697 q 1095 768 1126 751 q 1028 792 1065 785 q 957 799 991 799 q 898 795 926 799 q 842 784 869 791 q 949 591 910 702 q 987 340 987 479 q 967 199 987 264 q 905 85 947 134 q 802 10 864 37 q 655 -18 739 -18 q 508 10 571 -18 q 404 85 446 37 q 342 199 363 134 q 322 340 322 264 q 362 597 322 484 q 477 792 403 710 q 414 799 448 799 q 340 787 374 799 q 281 755 306 776 q 243 706 257 734 q 229 642 229 677 l 14 642 q 37 767 14 705 q 110 879 61 829 q 232 958 158 928 q 408 988 307 988 q 540 973 476 988 q 663 928 604 958 q 801 973 728 958 q 956 988 874 988 q 1133 966 1054 988 q 1268 901 1212 943 q 1354 797 1324 858 q 1384 657 1384 735 q 1357 525 1384 582 q 1285 430 1331 468 q 1179 372 1240 391 q 1051 353 1119 353 l 1051 542 m 550 334 q 557 269 550 298 q 577 217 564 239 q 609 183 590 195 q 654 171 629 171 q 700 183 680 171 q 733 217 720 195 q 753 269 746 239 q 760 334 760 298 q 734 520 760 435 q 661 669 708 606 q 578 520 606 606 q 550 334 550 435 z "},"Ꮙ":{"ha":1715,"x_min":7,"x_max":1708,"o":"m 640 972 l 871 199 l 989 540 q 918 562 954 546 q 852 607 882 578 q 805 677 823 635 q 787 776 787 719 q 803 859 787 820 q 848 927 819 898 q 917 972 877 956 q 1003 989 956 989 q 1115 972 1070 989 q 1187 927 1159 954 q 1228 866 1215 899 q 1245 802 1241 833 q 1295 846 1270 824 q 1349 884 1321 867 q 1406 912 1376 901 q 1470 922 1436 922 q 1588 902 1542 922 q 1661 849 1634 882 q 1698 775 1688 817 q 1708 694 1708 734 q 1686 587 1708 630 q 1628 517 1663 543 q 1552 479 1593 490 q 1474 468 1511 468 q 1425 473 1448 468 q 1385 486 1402 479 q 1348 504 1364 493 l 1379 641 q 1402 629 1390 634 q 1428 621 1413 625 q 1460 618 1442 618 q 1523 640 1499 618 q 1547 692 1547 661 q 1526 749 1547 732 q 1471 766 1504 766 q 1415 748 1443 766 q 1355 703 1386 730 q 1289 646 1324 677 q 1213 590 1254 615 l 989 0 l 741 0 l 484 739 q 445 684 468 710 q 393 638 422 658 q 326 606 363 618 q 242 594 288 594 q 144 609 187 594 q 70 651 100 623 q 23 717 39 678 q 7 806 7 756 q 16 872 7 842 q 36 925 25 903 q 66 972 47 947 l 208 926 q 185 900 195 914 q 170 871 177 888 q 163 835 163 854 q 186 777 163 798 q 248 755 208 755 q 290 765 271 755 q 324 789 309 774 q 351 824 339 804 q 372 864 363 844 q 404 972 393 911 l 640 972 m 1045 701 q 1054 738 1050 718 q 1057 772 1057 758 q 1040 826 1057 808 q 998 844 1024 844 q 975 838 985 844 q 958 822 964 831 q 948 800 951 812 q 945 777 945 788 q 972 715 945 737 q 1042 692 1000 694 l 1045 701 z "},"Ꮚ":{"ha":1565,"x_min":41,"x_max":1515,"o":"m 1103 511 q 1066 529 1087 521 q 1023 542 1048 536 q 967 547 998 547 q 899 535 931 547 q 841 498 866 522 q 802 438 817 474 q 787 356 787 403 q 805 275 787 310 q 853 218 823 241 q 925 184 884 195 q 1012 172 966 172 q 1127 195 1077 172 q 1213 258 1178 218 q 1266 356 1248 299 q 1284 481 1284 412 q 1263 610 1284 551 q 1203 711 1242 669 q 1107 777 1163 753 q 979 800 1050 800 l 979 989 q 1208 950 1108 989 q 1376 842 1308 911 q 1480 676 1444 772 q 1515 465 1515 580 q 1480 266 1515 355 q 1379 114 1444 177 q 1219 17 1313 52 q 1008 -17 1125 -17 q 862 -1 928 -17 q 744 43 796 14 q 617 -2 686 14 q 469 -17 548 -17 q 284 10 364 -17 q 151 84 205 37 q 68 198 96 132 q 41 342 41 264 q 73 499 41 431 q 158 615 104 568 q 282 687 212 663 q 431 711 353 711 l 431 541 q 370 530 401 541 q 314 496 339 519 q 274 440 290 474 q 258 359 258 406 q 275 278 258 313 q 319 219 291 243 q 387 184 348 196 q 473 172 427 172 q 539 179 508 172 q 599 199 570 186 q 570 342 570 265 q 602 499 570 431 q 686 615 634 568 q 805 687 739 663 q 939 711 871 711 q 1007 708 977 711 q 1059 702 1038 705 q 1103 692 1084 698 l 1103 511 z "},"Ꮛ":{"ha":885,"x_min":100,"x_max":842,"o":"m 683 937 l 683 762 q 493 825 590 825 q 429 818 456 825 q 384 798 402 810 q 356 769 366 785 q 347 734 347 752 q 394 656 347 684 q 537 628 441 628 l 550 628 l 550 464 l 530 464 q 441 452 481 464 q 375 418 402 439 q 333 369 347 397 q 318 308 318 340 q 329 247 318 276 q 362 196 340 218 q 420 160 385 174 q 505 147 456 147 q 612 168 574 147 q 650 220 650 188 q 648 236 650 227 q 640 254 646 245 q 622 268 634 262 q 590 273 610 273 l 590 429 q 696 415 650 429 q 775 376 743 402 q 825 311 808 350 q 842 219 842 271 q 811 111 842 155 q 732 37 781 66 q 618 -4 682 9 q 488 -17 555 -17 q 332 4 404 -17 q 209 66 260 25 q 129 167 157 107 q 100 305 100 227 q 117 395 100 353 q 163 471 134 438 q 234 526 193 505 q 322 553 275 547 l 322 556 q 242 585 277 568 q 181 628 206 603 q 142 688 156 654 q 129 768 129 722 q 155 864 129 823 q 225 933 181 905 q 326 975 269 961 q 444 989 382 989 q 683 937 581 989 z "},"Ꮜ":{"ha":1004,"x_min":100,"x_max":904,"o":"m 904 421 q 496 -17 904 -17 q 100 411 100 -17 l 100 972 l 319 972 l 319 625 l 685 625 l 685 972 l 904 972 l 904 421 m 504 172 q 640 230 595 172 q 685 402 685 288 l 685 436 l 319 436 l 319 402 q 365 228 319 283 q 504 172 411 172 z "},"Ꮝ":{"ha":1563,"x_min":34,"x_max":1513,"o":"m 34 288 q 59 421 34 364 q 125 516 85 478 q 216 573 165 554 q 317 591 267 591 q 404 577 360 591 q 485 536 448 564 q 551 466 523 508 q 592 368 580 424 l 690 368 l 690 456 l 622 456 l 622 592 l 977 592 l 977 456 l 909 456 l 909 353 q 913 290 909 322 q 934 232 918 258 q 983 189 951 205 q 1070 172 1015 172 q 1150 191 1112 172 q 1218 249 1188 210 q 1265 345 1247 287 q 1282 483 1282 404 q 1269 582 1282 537 q 1233 662 1256 627 q 1179 723 1210 697 q 1113 766 1148 749 q 1039 792 1077 783 q 964 800 1001 800 q 847 786 898 800 q 760 755 795 772 q 686 711 718 736 l 551 859 q 655 924 593 895 q 714 947 682 936 q 786 968 747 959 q 872 983 826 977 q 972 989 919 989 q 1186 953 1087 989 q 1358 851 1285 917 q 1472 692 1430 785 q 1513 485 1513 600 q 1495 323 1513 395 q 1446 196 1477 252 q 1372 100 1415 140 q 1281 34 1330 60 q 1178 -5 1232 7 q 1070 -17 1124 -17 q 924 2 986 -17 q 818 53 862 20 q 747 128 774 85 q 706 220 720 171 l 595 220 q 558 115 585 159 q 494 41 532 71 q 411 -2 456 12 q 317 -17 365 -17 q 212 2 262 -17 q 121 58 161 20 q 58 154 81 96 q 34 288 34 211 m 222 288 q 230 224 222 254 q 249 172 237 195 q 279 137 262 150 q 318 123 297 123 q 356 137 338 123 q 386 172 373 150 q 405 224 398 195 q 412 288 412 254 q 406 353 412 323 q 386 404 399 382 q 356 438 374 426 q 317 451 338 451 q 278 438 295 451 q 248 404 260 426 q 229 353 236 382 q 222 288 222 323 z "},"Ꮞ":{"ha":799,"x_min":26,"x_max":762,"o":"m 762 207 l 646 207 l 646 0 l 450 0 l 450 207 l 26 207 l 26 343 l 435 972 l 646 972 l 646 359 l 762 359 l 762 207 m 450 745 l 204 359 l 450 359 l 450 745 z "},"Ꮟ":{"ha":865,"x_min":111,"x_max":825,"o":"m 111 0 l 111 972 l 330 972 l 330 608 l 473 608 q 825 322 825 608 q 730 85 825 170 q 463 0 635 0 l 111 0 m 330 443 l 330 167 l 429 167 q 595 307 595 167 q 433 443 595 443 l 330 443 z "},"Ꮠ":{"ha":818,"x_min":20,"x_max":798,"o":"m 559 473 q 539 471 549 473 q 518 463 529 468 l 518 170 l 600 170 l 600 0 l 218 0 l 218 170 l 299 170 l 299 361 q 266 356 283 357 q 231 354 249 354 q 151 365 189 354 q 83 400 113 376 q 37 465 54 425 q 20 564 20 505 q 23 602 20 582 q 30 640 26 623 q 40 680 34 661 l 207 680 q 190 652 197 666 q 178 624 183 640 q 173 591 173 608 q 194 533 173 553 q 258 513 215 513 q 299 520 278 513 l 299 803 l 218 803 l 218 972 l 600 972 l 600 803 l 518 803 l 518 624 q 551 630 534 627 q 587 632 568 632 q 667 620 629 632 q 734 583 705 608 q 781 517 764 557 q 798 422 798 477 q 794 384 798 404 q 787 346 791 363 q 778 307 783 326 l 611 307 q 628 334 621 320 q 640 362 634 347 q 645 395 645 378 q 624 453 645 433 q 559 473 603 473 z "},"Ꮡ":{"ha":1059,"x_min":50,"x_max":1059,"o":"m 897 680 q 888 716 896 700 q 870 741 882 730 q 835 752 857 752 q 784 738 807 752 q 736 703 760 724 q 683 657 711 682 q 618 610 655 632 q 532 573 581 588 q 416 555 483 557 q 365 495 391 524 q 317 436 338 466 q 282 373 296 406 q 269 304 269 340 q 276 258 269 281 q 300 216 283 235 q 346 184 317 197 q 418 172 374 172 q 474 178 448 172 q 519 197 500 184 q 549 228 538 209 q 559 271 559 246 q 534 320 559 303 q 472 338 509 338 l 472 513 q 590 497 534 513 q 687 449 646 480 q 753 372 729 417 q 778 270 778 327 q 754 150 778 203 q 686 60 731 97 q 573 3 640 22 q 418 -17 506 -17 q 247 12 317 -17 q 133 86 176 41 q 70 186 89 132 q 50 294 50 241 q 64 387 50 344 q 102 467 79 430 q 154 536 125 505 q 213 597 183 568 q 164 629 186 610 q 125 671 141 647 q 99 724 109 695 q 90 789 90 753 q 106 870 90 833 q 151 933 122 907 q 219 975 180 960 q 306 989 259 989 q 391 980 355 989 q 453 954 427 970 q 495 916 479 937 q 521 871 511 894 q 534 824 530 848 q 537 781 537 801 q 536 758 537 769 q 532 736 534 747 q 580 769 557 751 q 623 806 602 787 q 666 844 644 825 q 713 877 688 863 q 767 900 738 891 q 834 909 797 909 q 907 899 876 909 q 963 873 939 889 q 1002 836 986 857 q 1029 794 1019 815 q 1059 680 1055 744 l 897 680 m 248 791 q 271 740 248 758 q 330 713 294 721 q 352 746 344 730 q 359 779 359 762 q 345 826 359 808 q 301 844 330 844 q 277 839 287 844 q 260 825 267 833 q 251 808 254 817 q 248 791 248 799 z "},"Ꮢ":{"ha":907,"x_min":111,"x_max":927,"o":"m 330 808 l 330 0 l 111 0 l 111 972 l 458 972 q 812 708 812 972 q 799 621 812 661 q 761 547 786 580 q 701 489 736 514 q 623 447 666 463 l 927 0 l 675 0 l 425 410 l 425 538 q 487 548 458 538 q 536 577 515 558 q 570 622 557 595 q 582 681 582 648 q 429 808 582 808 l 330 808 z "},"Ꮣ":{"ha":901,"x_min":102,"x_max":867,"o":"m 867 345 q 838 191 867 258 q 758 78 809 124 q 636 7 707 31 q 481 -17 566 -17 q 328 7 397 -17 q 208 78 258 31 q 130 191 157 124 q 102 345 102 258 l 102 972 l 321 972 l 321 347 q 481 172 321 172 q 644 345 644 172 l 867 345 z "},"Ꮤ":{"ha":1333,"x_min":7,"x_max":1328,"o":"m 1328 972 l 972 0 l 724 0 l 665 162 l 606 0 l 358 0 l 7 972 l 229 972 l 489 219 l 565 441 l 373 972 l 595 972 l 671 753 l 746 972 l 962 972 l 773 456 l 855 219 l 1112 972 l 1328 972 z "},"Ꮥ":{"ha":854,"x_min":62,"x_max":847,"o":"m 847 865 l 847 695 l 499 695 q 495 719 498 700 q 479 760 491 739 q 446 799 468 782 q 389 817 425 817 q 346 808 363 817 q 316 786 328 800 q 298 757 304 773 q 293 725 293 741 q 306 677 293 698 q 342 638 319 656 q 400 604 366 621 q 477 570 435 588 q 509 555 493 562 q 539 541 524 548 l 847 541 l 847 371 l 713 371 q 730 273 730 328 q 699 137 730 192 q 615 47 668 81 q 492 -2 562 13 q 344 -17 422 -17 q 192 -3 264 -17 q 66 37 119 10 l 66 254 q 195 180 126 205 q 334 155 263 155 q 407 163 376 155 q 458 183 437 170 q 489 215 479 197 q 499 254 499 233 q 483 304 499 282 q 438 346 467 327 q 372 383 410 366 q 288 418 333 400 q 118 534 174 466 q 62 700 62 602 q 89 827 62 772 q 160 917 115 881 q 262 971 204 953 q 383 989 320 989 q 478 979 436 989 q 551 951 519 968 q 607 911 583 934 q 646 865 630 889 l 847 865 z "},"Ꮦ":{"ha":1195,"x_min":21,"x_max":1146,"o":"m 761 707 q 916 683 845 707 q 1037 612 986 659 q 1117 498 1088 566 q 1146 345 1146 431 q 1117 191 1146 258 q 1037 78 1088 124 q 916 7 986 31 q 761 -17 845 -17 q 607 7 677 -17 q 487 78 537 31 q 409 191 437 124 q 381 345 381 258 l 381 791 l 21 791 l 21 972 l 601 972 l 601 347 q 761 172 601 172 q 924 345 924 172 q 761 517 924 517 l 761 707 z "},"Ꮧ":{"ha":962,"x_min":34,"x_max":851,"o":"m 632 972 l 851 972 l 851 0 l 632 0 l 632 176 q 620 147 629 165 q 593 107 610 129 q 551 64 576 86 q 495 24 527 42 q 426 -5 464 6 q 342 -17 387 -17 q 112 59 191 -17 q 34 280 34 134 l 252 280 q 261 227 252 248 q 286 191 270 205 q 323 172 301 178 q 370 166 345 166 q 456 192 418 166 q 523 262 494 218 q 573 365 552 307 q 607 488 593 423 q 626 621 620 553 q 632 751 632 689 l 632 972 z "},"Ꮨ":{"ha":962,"x_min":34,"x_max":851,"o":"m 632 791 l 272 791 l 272 972 l 851 972 l 851 0 l 632 0 l 632 176 q 620 147 629 165 q 593 107 610 129 q 551 64 576 86 q 495 24 527 42 q 426 -5 464 6 q 342 -17 387 -17 q 112 59 191 -17 q 34 280 34 134 l 252 280 q 261 227 252 248 q 286 191 270 205 q 323 172 301 178 q 370 166 345 166 q 456 192 418 166 q 523 262 494 218 q 573 365 552 307 q 607 488 593 423 q 626 621 620 553 q 632 751 632 689 l 632 791 z "},"Ꮩ":{"ha":926,"x_min":7,"x_max":921,"o":"m 921 972 l 586 0 l 338 0 l 7 972 l 243 972 l 446 296 q 465 199 462 241 l 469 199 q 490 298 474 244 l 692 972 l 921 972 z "},"Ꮪ":{"ha":779,"x_min":62,"x_max":730,"o":"m 66 37 l 66 254 q 195 180 125 205 q 334 155 264 155 q 407 163 376 155 q 458 183 437 170 q 489 215 479 197 q 499 254 499 233 q 483 304 499 282 q 438 346 467 327 q 372 382 410 365 q 288 418 333 400 q 118 534 174 466 q 62 700 62 603 q 93 830 62 776 q 176 920 123 885 q 298 972 229 956 q 444 989 367 989 q 579 980 520 989 q 687 951 637 970 l 687 749 q 634 779 663 766 q 574 800 605 791 q 514 812 544 808 q 456 817 484 817 q 389 809 419 817 q 337 789 358 802 q 304 759 316 777 q 293 718 293 741 q 306 674 293 694 q 342 638 319 655 q 400 604 366 621 q 477 570 434 587 q 582 518 535 545 q 661 456 628 490 q 712 377 694 421 q 730 273 730 332 q 699 137 730 192 q 615 47 668 81 q 492 -2 562 13 q 344 -17 422 -17 q 192 -3 264 -17 q 66 37 119 10 z "},"Ꮫ":{"ha":1315,"x_min":50,"x_max":1281,"o":"m 739 969 q 805 983 770 977 q 871 988 840 988 q 1065 958 986 988 q 1191 877 1143 927 q 1260 763 1239 827 q 1281 632 1281 699 q 1275 561 1281 595 q 1257 499 1268 528 q 1233 445 1246 470 q 1206 400 1220 420 q 1131 318 1173 353 l 986 468 q 1025 511 1007 487 q 1052 560 1040 531 q 1064 625 1064 589 q 1056 687 1064 656 q 1025 743 1047 718 q 966 783 1003 768 q 871 799 928 799 q 801 788 836 799 q 737 756 766 777 q 673 788 705 778 q 604 799 642 799 q 582 798 592 799 q 561 795 571 797 q 674 599 633 713 q 715 340 715 485 q 695 199 715 264 q 633 85 675 134 q 530 10 592 37 q 383 -18 467 -18 q 236 10 299 -18 q 132 85 174 37 q 71 199 91 134 q 50 340 50 264 q 70 530 50 443 q 127 690 90 618 q 214 818 163 762 q 327 911 265 873 q 458 968 388 949 q 603 988 528 988 q 641 987 624 988 q 674 983 659 985 q 706 977 690 981 q 739 969 721 973 m 278 334 q 285 269 278 298 q 305 217 292 239 q 337 183 318 195 q 382 171 357 171 q 428 183 408 171 q 461 217 448 195 q 481 269 474 239 q 488 334 488 298 q 458 531 488 441 q 376 685 429 621 q 302 531 327 621 q 278 334 278 441 z "},"Ꮬ":{"ha":1215,"x_min":34,"x_max":1181,"o":"m 349 764 q 372 869 349 826 q 433 939 396 912 q 516 977 470 965 q 607 989 562 989 q 698 977 652 989 q 781 939 744 965 q 842 869 819 912 q 866 764 866 826 q 845 672 866 711 q 788 602 824 633 q 880 568 833 586 q 970 527 926 549 q 1052 477 1014 505 q 1119 415 1090 450 q 1164 338 1147 380 q 1181 243 1181 296 q 1163 135 1181 183 q 1112 54 1146 87 q 1028 1 1078 20 q 912 -17 978 -17 q 811 0 858 -17 q 730 50 764 17 q 675 131 695 83 q 656 241 656 178 q 663 311 656 279 q 681 369 669 342 q 709 416 693 395 q 743 454 725 437 q 675 479 709 467 q 607 505 641 491 q 539 479 573 491 q 471 454 505 467 q 506 416 490 437 q 533 369 522 395 q 552 311 545 342 q 559 241 559 279 q 539 131 559 178 q 485 50 519 83 q 404 0 450 17 q 302 -17 357 -17 q 186 1 237 -17 q 102 54 136 20 q 51 135 68 87 q 34 243 34 183 q 51 338 34 296 q 96 415 67 380 q 162 477 124 450 q 244 527 201 505 q 335 568 288 549 q 427 602 381 586 q 370 672 391 633 q 349 764 349 711 m 834 242 q 840 202 834 222 q 856 168 846 183 q 881 143 866 153 q 914 134 896 134 q 967 162 945 134 q 989 239 989 189 q 965 319 989 286 q 901 380 941 353 q 853 322 873 356 q 834 242 834 289 m 226 239 q 248 162 226 189 q 300 134 270 134 q 334 143 319 134 q 359 168 349 153 q 375 202 369 183 q 380 242 380 222 q 361 322 380 289 q 313 380 342 356 q 250 319 273 353 q 226 239 226 286 m 677 764 q 660 814 677 793 q 608 836 642 836 q 555 814 572 836 q 537 764 537 793 q 556 715 537 736 q 607 676 574 694 q 659 715 640 694 q 677 764 677 736 z "},"Ꮭ":{"ha":850,"x_min":100,"x_max":789,"o":"m 789 0 l 100 0 l 100 627 q 124 783 100 715 q 193 896 149 850 q 302 965 238 942 q 446 989 366 989 q 592 965 528 989 q 700 894 656 941 q 766 781 743 848 q 789 627 789 713 l 566 627 q 534 757 566 714 q 446 800 503 800 q 354 756 389 800 q 319 625 319 713 l 319 178 l 789 178 l 789 0 z "},"Ꮮ":{"ha":710,"x_min":111,"x_max":690,"o":"m 690 0 l 111 0 l 111 972 l 330 972 l 330 178 l 690 178 l 690 0 z "},"Ꮯ":{"ha":867,"x_min":50,"x_max":808,"o":"m 808 35 q 530 -17 702 -17 q 178 115 307 -17 q 50 465 50 246 q 194 844 50 699 q 568 989 338 989 q 808 953 711 989 l 808 742 q 586 800 711 800 q 365 714 449 800 q 281 481 281 628 q 360 256 281 340 q 574 172 439 172 q 808 235 702 172 l 808 35 z "},"Ꮰ":{"ha":1237,"x_min":7,"x_max":1230,"o":"m 852 519 l 852 972 l 1072 972 l 1072 519 l 1230 519 l 1230 345 l 1072 345 q 1047 191 1072 258 q 976 77 1022 123 q 863 7 930 31 q 712 -17 796 -17 q 561 7 628 -17 q 448 77 494 31 q 376 191 401 123 q 351 345 351 258 l 275 345 q 169 358 218 345 q 83 400 119 372 q 27 472 47 429 q 7 575 7 515 q 28 683 7 638 q 85 757 49 728 q 171 799 122 786 q 274 812 219 812 q 399 793 345 812 q 492 736 454 774 q 550 645 530 699 q 570 519 570 590 l 852 519 m 570 345 q 602 217 570 262 q 712 172 635 172 q 819 214 787 172 q 852 345 852 256 l 570 345 m 274 649 q 225 634 245 649 q 205 585 205 619 q 211 559 205 571 q 227 538 217 547 q 250 525 237 530 q 277 519 263 519 l 351 519 q 346 581 351 556 q 331 621 340 606 q 307 643 321 636 q 274 649 292 649 z "},"Ꮱ":{"ha":1374,"x_min":14,"x_max":1360,"o":"m 14 472 l 14 642 l 78 642 q 103 767 78 705 q 178 879 128 829 q 302 958 228 928 q 473 988 376 988 q 600 974 538 988 q 719 932 661 960 q 838 974 777 960 q 966 988 900 988 q 1137 958 1063 988 q 1260 879 1211 928 q 1335 767 1310 829 q 1360 642 1360 705 l 1145 642 q 1131 706 1145 677 q 1093 755 1117 734 q 1034 787 1068 776 q 960 799 1000 799 q 899 793 928 799 q 1011 597 970 710 q 1052 340 1052 484 q 1031 199 1052 264 q 970 85 1011 134 q 866 10 928 37 q 720 -18 804 -18 q 573 10 635 -18 q 469 85 511 37 q 407 199 428 134 q 387 340 387 264 q 428 597 387 484 q 539 793 469 710 q 478 799 509 799 q 404 787 438 799 q 346 755 370 776 q 308 706 321 734 q 294 642 294 677 l 361 642 l 361 472 l 14 472 m 614 334 q 621 269 614 298 q 641 217 628 239 q 674 183 654 195 q 720 171 694 171 q 764 183 745 171 q 797 217 784 195 q 817 269 810 239 q 824 334 824 298 q 797 525 824 437 q 719 677 769 613 q 642 525 669 613 q 614 334 614 437 z "},"Ꮲ":{"ha":853,"x_min":111,"x_max":822,"o":"m 330 335 l 330 0 l 111 0 l 111 972 l 454 972 q 822 663 822 972 q 716 426 822 516 q 435 335 611 335 l 330 335 m 330 804 l 330 501 l 416 501 q 591 654 591 501 q 416 804 591 804 l 330 804 z "},"Ꮳ":{"ha":1037,"x_min":50,"x_max":1030,"o":"m 687 706 q 621 776 663 752 q 519 800 578 800 q 415 779 460 800 q 341 718 371 758 q 296 622 311 678 q 281 494 281 565 q 303 367 281 426 q 368 265 325 309 q 477 197 412 222 q 628 172 542 172 q 700 177 660 172 q 781 192 741 182 q 860 213 822 201 q 924 241 897 226 l 924 41 q 857 18 897 28 q 770 -1 817 7 q 676 -13 724 -8 q 585 -17 627 -17 q 360 19 459 -17 q 192 121 261 56 q 87 278 123 186 q 50 479 50 369 q 83 688 50 594 q 178 849 117 783 q 325 953 239 916 q 519 989 412 989 q 653 971 589 989 q 770 917 718 953 q 861 829 823 882 q 918 706 899 776 l 1030 706 l 1030 543 l 567 543 l 567 706 l 687 706 z "},"Ꮴ":{"ha":1237,"x_min":20,"x_max":1237,"o":"m 20 972 l 600 972 l 600 335 l 994 972 l 1237 972 l 600 0 l 380 0 l 380 791 l 20 791 l 20 972 z "},"Ꮵ":{"ha":1083,"x_min":111,"x_max":1076,"o":"m 614 686 q 764 713 694 713 q 866 701 822 713 q 943 667 910 688 q 999 620 976 646 q 1036 566 1021 593 q 1076 418 1071 500 l 881 418 q 868 473 879 449 q 857 493 863 483 q 840 510 850 503 q 818 523 831 518 q 789 528 806 528 l 789 0 l 570 0 l 570 465 l 330 382 l 330 0 l 111 0 l 111 972 l 330 972 l 330 589 l 614 686 z "},"Ꮶ":{"ha":901,"x_min":111,"x_max":920,"o":"m 920 0 l 643 0 l 359 422 q 334 476 351 435 l 330 476 l 330 0 l 111 0 l 111 972 l 330 972 l 330 513 l 334 513 q 361 567 342 532 l 629 972 l 890 972 l 551 509 l 920 0 z "},"Ꮷ":{"ha":831,"x_min":49,"x_max":732,"o":"m 385 -17 q 250 7 312 -17 q 144 74 189 31 q 74 177 99 117 q 49 310 49 237 q 74 443 49 382 q 144 546 99 503 q 250 613 189 589 q 385 637 312 637 q 451 631 419 637 q 512 616 482 626 l 512 972 l 732 972 l 732 310 q 705 177 732 237 q 631 74 678 117 q 522 7 585 31 q 385 -17 458 -17 m 385 147 q 442 161 418 147 q 481 198 466 175 q 505 250 497 220 q 512 310 512 279 q 505 370 512 340 q 482 422 497 399 q 443 459 467 445 q 386 473 418 473 q 329 459 353 473 q 289 422 304 445 q 266 370 273 399 q 258 310 258 340 q 266 250 258 279 q 289 198 273 221 q 328 161 304 175 q 385 147 351 147 z "},"Ꮸ":{"ha":1337,"x_min":50,"x_max":1337,"o":"m 732 656 q 699 719 717 692 q 656 764 680 746 q 602 791 633 782 q 532 800 572 800 q 419 774 467 800 q 341 705 372 748 q 296 605 311 661 q 281 488 281 548 q 296 369 281 426 q 341 268 311 312 q 419 198 372 224 q 532 172 467 172 q 602 181 572 172 q 656 208 633 190 q 699 253 680 226 q 732 316 717 280 l 985 316 l 1032 195 l 1080 316 l 1238 316 l 1337 118 l 1203 118 l 1159 234 l 1116 118 l 953 118 l 920 207 q 852 116 890 157 q 767 45 814 75 q 663 -1 720 16 q 538 -17 606 -17 q 334 20 425 -17 q 181 123 244 57 q 84 282 118 190 q 50 485 50 374 q 84 689 50 596 q 181 848 118 781 q 334 952 244 915 q 538 989 425 989 q 663 972 606 989 q 767 927 720 956 q 852 856 814 897 q 920 765 890 814 l 953 854 l 1116 854 l 1159 738 l 1203 854 l 1337 854 l 1238 656 l 1080 656 l 1032 777 l 985 656 l 732 656 z "},"Ꮹ":{"ha":1183,"x_min":50,"x_max":1170,"o":"m 987 462 l 987 292 l 909 292 l 909 189 q 1034 167 955 167 q 1084 171 1060 167 q 1128 181 1109 176 q 1170 195 1150 187 l 1170 -2 q 1131 -9 1152 -7 q 1090 -15 1113 -13 q 1044 -17 1068 -17 q 800 17 909 -17 q 555 -17 690 -17 q 347 16 440 -17 q 188 111 254 48 q 86 264 121 174 q 50 471 50 355 q 91 685 50 589 q 203 848 131 781 q 374 952 275 916 q 591 989 473 989 q 864 946 746 989 l 864 741 q 589 806 751 806 q 461 781 518 806 q 364 714 404 757 q 302 611 324 671 q 281 481 281 551 q 299 353 281 411 q 353 254 317 296 q 442 190 389 213 q 566 167 495 167 q 690 189 644 167 l 690 292 l 605 292 l 605 462 l 987 462 z "},"Ꮺ":{"ha":1653,"x_min":14,"x_max":1603,"o":"m 229 330 q 243 266 229 294 q 281 216 257 237 q 340 184 306 195 q 414 172 374 172 q 504 183 463 172 q 429 273 463 224 q 372 378 395 321 q 335 497 348 434 q 322 631 322 560 q 342 772 322 707 q 404 886 363 838 q 508 961 446 934 q 654 989 570 989 q 801 961 739 989 q 905 886 864 934 q 967 772 947 838 q 987 631 987 707 q 948 386 987 495 q 842 196 909 277 q 998 172 913 172 q 1134 188 1075 172 q 1238 230 1194 203 q 1314 292 1283 256 q 1366 368 1345 328 q 1309 388 1340 375 q 1244 420 1277 401 q 1181 467 1212 439 q 1125 530 1149 494 q 1086 613 1101 567 q 1072 718 1072 660 q 1088 829 1072 779 q 1136 915 1105 880 q 1213 970 1168 951 q 1314 989 1258 989 q 1437 959 1383 989 q 1528 873 1491 929 q 1584 738 1565 818 q 1603 559 1603 659 q 1591 431 1603 498 q 1550 301 1578 365 q 1476 179 1522 237 q 1363 78 1430 121 q 1207 9 1297 35 q 1003 -17 1118 -17 q 838 2 920 -17 q 682 58 757 21 q 548 2 618 21 q 408 -17 479 -17 q 237 13 311 -17 q 114 93 163 43 q 39 204 64 142 q 14 330 14 266 l 229 330 m 760 637 q 753 703 760 673 q 733 754 746 732 q 700 788 720 776 q 654 800 680 800 q 609 788 629 800 q 577 754 590 776 q 557 703 564 732 q 550 637 550 673 q 582 452 550 537 q 673 303 613 367 q 738 452 717 367 q 760 637 760 537 m 1411 572 q 1402 686 1411 638 q 1380 764 1394 734 q 1348 809 1366 795 q 1312 824 1330 824 q 1284 815 1295 824 q 1264 791 1272 806 q 1253 759 1257 777 q 1250 723 1250 741 q 1264 643 1250 677 q 1302 585 1279 609 q 1353 546 1325 562 q 1409 522 1381 531 q 1411 548 1410 535 q 1411 572 1411 560 z "},"Ꮻ":{"ha":1053,"x_min":50,"x_max":1003,"o":"m 522 -17 q 328 20 415 -17 q 179 122 241 57 q 84 278 117 188 q 50 473 50 368 q 84 679 50 585 q 181 843 118 774 q 334 950 244 911 q 538 989 425 989 q 732 951 646 989 q 878 847 818 913 q 971 690 939 781 q 1003 493 1003 600 q 969 290 1003 383 q 873 129 936 197 q 722 22 811 60 q 522 -17 633 -17 m 532 800 q 421 775 468 800 q 345 709 375 751 l 366 709 q 498 662 446 709 q 587 522 551 614 q 613 466 601 488 q 640 432 625 444 q 674 415 654 420 q 721 411 693 411 l 768 411 q 771 446 770 428 q 772 481 772 463 q 760 602 772 544 q 718 703 747 659 q 643 774 689 747 q 532 800 597 800 m 281 485 q 295 367 281 424 q 340 268 310 311 q 416 198 370 224 q 526 172 463 172 q 629 193 586 172 q 703 250 672 213 l 676 250 q 601 263 634 250 q 539 303 567 277 q 490 366 512 329 q 451 448 469 402 q 426 503 437 483 q 400 532 414 522 q 368 545 386 543 q 322 547 349 547 l 285 547 q 281 485 281 517 z "},"Ꮼ":{"ha":1259,"x_min":50,"x_max":1209,"o":"m 582 718 q 567 614 582 661 q 529 532 553 568 q 475 469 505 496 q 412 422 444 441 q 348 389 380 402 q 291 368 317 376 q 342 293 312 328 q 415 230 373 257 q 509 188 456 203 q 629 172 562 172 q 768 196 703 172 q 880 269 832 220 q 954 391 927 317 q 981 563 981 464 q 978 613 981 586 q 967 666 975 640 q 946 717 960 692 q 912 760 932 741 q 862 789 891 778 q 794 800 833 800 q 736 797 761 800 q 694 789 711 793 q 659 777 673 783 l 659 974 q 701 981 677 978 q 747 986 720 984 q 808 989 774 989 q 942 971 883 989 q 1045 922 1000 953 q 1121 848 1090 890 q 1172 758 1152 806 q 1200 659 1192 710 q 1209 556 1209 607 q 1186 380 1209 460 q 1122 237 1163 300 q 1026 125 1082 173 q 905 46 970 78 q 768 -1 840 15 q 623 -17 696 -17 q 435 9 518 -17 q 288 78 351 35 q 179 179 224 121 q 105 301 134 237 q 63 431 77 365 q 50 559 50 498 q 70 738 50 659 q 126 873 89 818 q 216 959 163 929 q 339 989 270 989 q 440 970 395 989 q 517 915 486 951 q 565 829 549 880 q 582 718 582 779 m 242 572 q 243 548 242 560 q 245 522 243 535 q 300 546 272 531 q 351 585 328 562 q 389 643 374 609 q 404 723 404 677 q 400 759 404 741 q 389 791 397 777 q 370 815 381 806 q 342 824 358 824 q 306 809 323 824 q 274 764 288 795 q 251 686 260 734 q 242 572 242 638 z "},"Ꮽ":{"ha":1038,"x_min":14,"x_max":987,"o":"m 229 330 q 243 266 229 294 q 281 216 257 237 q 340 184 306 195 q 414 172 374 172 q 475 178 445 172 q 363 374 404 260 q 322 631 322 488 q 342 772 322 707 q 404 886 363 838 q 508 961 446 934 q 654 989 570 989 q 801 961 739 989 q 905 886 864 934 q 967 772 947 838 q 987 631 987 707 q 965 444 987 531 q 904 286 943 357 q 811 157 865 214 q 695 62 758 101 q 563 3 632 24 q 422 -17 493 -17 q 249 13 325 -17 q 121 93 173 43 q 41 204 68 142 q 14 330 14 266 l 229 330 m 760 637 q 753 703 760 673 q 733 754 746 732 q 700 788 720 776 q 654 800 680 800 q 609 788 629 800 q 577 754 590 776 q 557 703 564 732 q 550 637 550 673 q 577 445 550 533 q 654 294 604 357 q 732 445 705 357 q 760 637 760 533 z "},"Ꮾ":{"ha":799,"x_min":68,"x_max":753,"o":"m 684 962 l 684 783 q 522 825 610 825 q 348 743 414 825 q 279 522 282 661 l 283 522 q 488 625 353 625 q 681 543 610 625 q 753 323 753 460 q 658 80 753 177 q 416 -17 563 -17 q 160 102 252 -17 q 68 435 68 220 q 186 838 68 687 q 509 989 305 989 q 684 962 621 989 m 415 467 q 321 425 356 467 q 286 319 286 384 q 322 198 286 248 q 416 147 357 147 q 509 192 474 147 q 543 310 543 237 q 415 467 543 467 z "},"Ꮿ":{"ha":1491,"x_min":41,"x_max":1441,"o":"m 336 503 q 296 458 314 484 q 270 408 281 437 q 258 342 258 378 q 266 280 258 312 q 297 224 275 249 q 356 183 319 199 q 450 167 393 167 q 541 178 503 167 q 602 200 578 189 l 602 392 q 570 414 586 404 q 544 425 553 425 q 517 414 533 425 q 485 392 500 404 q 446 359 467 378 l 389 495 q 448 541 419 520 q 498 572 472 558 q 544 587 524 587 q 572 577 555 587 q 607 555 589 567 q 639 534 624 544 q 663 524 654 524 q 689 534 673 524 q 722 555 705 544 q 755 577 739 567 q 783 587 771 587 q 810 576 793 587 q 844 554 827 566 q 876 532 861 542 q 902 522 892 522 q 929 532 912 522 q 961 554 945 542 q 1000 587 979 568 l 1057 451 q 999 405 1027 425 q 974 388 987 396 q 948 373 961 380 q 923 363 935 367 q 902 359 911 359 q 884 364 895 359 q 862 375 873 368 q 840 389 851 381 q 821 403 829 397 l 821 189 q 946 167 867 167 q 1061 190 1012 167 q 1144 254 1111 213 q 1194 353 1177 296 q 1211 481 1211 411 q 1189 611 1211 551 q 1127 714 1167 671 q 1030 781 1087 757 q 903 806 973 806 q 786 791 837 806 q 700 758 735 776 q 627 711 659 737 l 492 859 q 588 924 530 895 q 644 947 612 936 q 715 968 676 959 q 800 983 753 977 q 900 989 846 989 q 1117 952 1018 989 q 1288 848 1216 916 q 1401 685 1360 781 q 1441 471 1441 589 q 1407 264 1441 355 q 1309 111 1373 174 q 1156 16 1246 48 q 956 -17 1067 -17 q 830 -1 889 -17 q 718 39 770 15 q 653 13 687 24 q 584 -4 618 3 q 515 -14 549 -11 q 450 -17 481 -17 q 314 -2 374 -17 q 208 38 254 12 q 131 98 162 63 q 79 173 99 132 q 50 257 59 213 q 41 346 41 302 q 47 416 41 383 q 64 478 54 450 q 88 531 75 507 q 116 574 102 555 q 191 653 149 620 l 336 503 z "},"Ᏸ":{"ha":1017,"x_min":7,"x_max":938,"o":"m 216 -189 l 216 50 q 129 90 167 70 q 63 127 90 110 q 7 165 31 146 l 95 322 q 128 300 110 312 q 166 277 144 290 q 216 250 189 264 l 216 642 q 231 753 216 703 q 273 841 246 802 q 335 907 300 880 q 412 953 371 935 q 496 980 452 971 q 581 989 539 989 q 702 975 643 989 q 807 931 761 961 q 881 857 853 902 q 909 747 909 811 q 715 509 909 556 l 715 505 q 804 482 763 500 q 874 434 844 464 q 921 365 904 405 q 938 278 938 326 q 905 144 938 200 q 819 53 873 88 q 694 0 764 17 q 549 -17 625 -17 q 491 -15 519 -17 q 435 -9 463 -12 l 435 -189 l 216 -189 m 500 581 q 690 707 690 581 q 681 759 690 736 q 657 796 672 781 q 624 818 643 810 q 585 825 605 825 q 533 812 559 825 q 484 775 506 800 q 449 716 463 751 q 435 637 435 682 l 435 162 q 491 151 463 155 q 546 147 519 147 q 674 182 628 147 q 720 281 720 217 q 705 338 720 313 q 663 381 690 363 q 596 407 635 398 q 507 416 557 416 l 493 416 l 493 581 l 500 581 z "},"Ᏹ":{"ha":1084,"x_min":0,"x_max":1034,"o":"m 513 210 q 533 306 513 264 q 586 375 553 347 q 661 417 618 404 q 748 431 703 431 q 815 424 778 431 l 815 444 q 809 486 815 465 q 787 522 803 506 q 745 547 772 537 q 677 556 718 556 q 636 550 659 556 q 590 531 613 545 q 548 495 568 517 q 515 439 528 472 l 357 0 l 119 0 l 0 302 l 182 302 l 223 181 l 335 498 q 375 582 351 545 q 429 647 399 619 q 493 695 459 675 q 564 726 528 715 l 564 803 l 483 803 l 483 972 l 865 972 l 865 803 l 783 803 l 783 730 q 899 689 851 718 q 977 622 947 661 q 1021 536 1007 583 q 1034 443 1034 490 l 1034 243 q 1015 141 1034 188 q 961 59 996 94 q 880 5 927 24 q 775 -14 832 -14 q 672 0 720 -14 q 589 43 625 15 q 533 113 553 71 q 513 210 513 155 m 748 119 q 799 145 783 119 q 815 210 815 171 q 811 244 815 228 q 799 272 807 260 q 778 291 790 283 q 748 298 765 298 q 718 291 730 298 q 697 272 705 283 q 685 244 689 260 q 681 210 681 228 q 697 145 681 171 q 748 119 713 119 z "},"Ᏺ":{"ha":1003,"x_min":111,"x_max":908,"o":"m 111 627 q 234 902 111 804 q 509 989 343 989 q 785 902 675 989 q 908 627 908 803 l 686 627 q 644 751 686 705 q 509 800 597 800 q 330 625 330 800 l 330 467 q 607 542 468 542 q 908 252 908 542 l 908 0 l 690 0 l 690 232 q 551 359 690 359 q 330 292 442 359 l 330 0 l 111 0 l 111 627 z "},"Ᏻ":{"ha":1310,"x_min":50,"x_max":1310,"o":"m 1000 462 l 1000 292 l 923 292 l 923 65 q 842 29 887 45 q 748 3 798 14 q 644 -12 698 -7 q 538 -17 591 -17 q 334 20 425 -17 q 181 123 244 57 q 84 282 118 190 q 50 485 50 374 q 82 689 50 596 q 174 848 113 781 q 323 952 235 915 q 524 989 411 989 q 648 973 592 989 q 748 928 703 958 q 829 858 793 899 q 892 765 865 817 l 926 854 l 1088 854 l 1132 738 l 1176 854 l 1310 854 l 1211 656 l 1053 656 l 1005 777 l 958 656 l 705 656 q 678 716 694 690 q 640 762 663 743 q 588 790 618 781 q 518 800 558 800 q 408 774 453 800 q 335 705 363 748 q 294 605 307 661 q 281 488 281 548 q 297 369 281 426 q 347 268 314 312 q 428 198 379 224 q 542 172 477 172 q 610 175 580 172 q 661 183 640 178 q 704 195 685 188 l 704 292 l 618 292 l 618 462 l 1000 462 z "},"Ᏼ":{"ha":890,"x_min":111,"x_max":842,"o":"m 111 0 l 111 972 l 465 972 q 715 913 628 972 q 803 745 803 853 q 750 607 803 666 q 614 525 696 548 l 614 522 q 780 446 718 509 q 842 290 842 382 q 746 78 842 157 q 485 0 650 0 l 111 0 m 330 811 l 330 581 l 427 581 q 533 613 494 581 q 572 704 572 646 q 412 811 572 811 l 330 811 m 330 418 l 330 161 l 449 161 q 568 197 525 161 q 611 293 611 232 q 569 385 611 351 q 450 418 526 418 l 330 418 z "},"᐀":{"ha":950,"x_min":157,"x_max":795,"o":"m 795 505 l 157 505 l 157 594 l 795 594 l 795 505 m 795 216 l 157 216 l 157 305 l 795 305 l 795 216 z "},"ᐁ":{"ha":1027,"x_min":27,"x_max":1000,"o":"m 27 972 l 1000 972 l 534 0 l 493 0 l 27 972 m 513 387 l 690 794 l 337 794 l 513 387 z "},"ᐂ":{"ha":1027,"x_min":27,"x_max":1000,"o":"m 493 972 l 534 972 l 1000 0 l 27 0 l 493 972 m 337 178 l 690 178 l 513 585 l 337 178 m 452 1184 q 470 1140 452 1158 q 513 1122 488 1122 q 557 1140 539 1122 q 575 1184 575 1158 q 557 1228 575 1210 q 513 1246 539 1246 q 470 1228 488 1246 q 452 1184 452 1210 m 370 1186 q 381 1241 370 1215 q 412 1286 393 1267 q 457 1317 431 1305 q 513 1328 484 1328 q 568 1317 542 1328 q 614 1286 594 1305 q 646 1241 634 1267 q 657 1186 657 1215 q 646 1131 657 1157 q 614 1084 634 1104 q 568 1052 594 1064 q 513 1040 542 1040 q 457 1052 484 1040 q 412 1084 431 1064 q 381 1131 393 1104 q 370 1186 370 1157 z "},"ᐃ":{"ha":1027,"x_min":27,"x_max":1000,"o":"m 493 972 l 534 972 l 1000 0 l 27 0 l 493 972 m 337 178 l 690 178 l 513 585 l 337 178 z "},"ᐄ":{"ha":1027,"x_min":27,"x_max":1000,"o":"m 493 972 l 534 972 l 1000 0 l 27 0 l 493 972 m 337 178 l 690 178 l 513 585 l 337 178 m 427 1185 q 434 1219 427 1203 q 452 1246 441 1234 q 480 1265 464 1258 q 513 1272 496 1272 q 547 1265 531 1272 q 574 1246 562 1258 q 593 1219 586 1234 q 600 1185 600 1203 q 593 1152 600 1168 q 574 1125 586 1137 q 547 1106 562 1113 q 513 1099 531 1099 q 480 1106 496 1099 q 452 1125 464 1113 q 434 1152 441 1137 q 427 1185 427 1168 z "},"ᐅ":{"ha":1067,"x_min":68,"x_max":1040,"o":"m 68 0 l 68 972 l 1040 507 l 1040 466 l 68 0 m 653 486 l 246 663 l 246 310 l 653 486 z "},"ᐆ":{"ha":1067,"x_min":68,"x_max":1040,"o":"m 68 0 l 68 972 l 1040 507 l 1040 466 l 68 0 m 653 486 l 246 663 l 246 310 l 653 486 m 68 1185 q 75 1219 68 1203 q 93 1246 81 1234 q 120 1265 104 1258 q 154 1272 136 1272 q 187 1265 172 1272 q 215 1246 203 1258 q 233 1219 227 1234 q 240 1185 240 1203 q 233 1152 240 1168 q 215 1125 227 1137 q 187 1106 203 1113 q 154 1099 172 1099 q 120 1106 136 1099 q 93 1125 104 1113 q 75 1152 81 1137 q 68 1185 68 1168 z "},"ᐇ":{"ha":1067,"x_min":68,"x_max":1040,"o":"m 68 0 l 68 972 l 1040 507 l 1040 466 l 68 0 m 653 486 l 246 663 l 246 310 l 653 486 m 68 1185 q 75 1219 68 1203 q 93 1246 81 1234 q 120 1265 104 1258 q 154 1272 136 1272 q 187 1265 172 1272 q 215 1246 203 1258 q 233 1219 227 1234 q 240 1185 240 1203 q 233 1152 240 1168 q 215 1125 227 1137 q 187 1106 203 1113 q 154 1099 172 1099 q 120 1106 136 1099 q 93 1125 104 1113 q 75 1152 81 1137 q 68 1185 68 1168 m 478 1185 q 485 1219 478 1203 q 503 1246 492 1234 q 531 1265 515 1258 q 564 1272 547 1272 q 597 1265 582 1272 q 625 1246 613 1258 q 644 1219 637 1234 q 650 1185 650 1203 q 644 1152 650 1168 q 625 1125 637 1137 q 597 1106 613 1113 q 564 1099 582 1099 q 531 1106 547 1099 q 503 1125 515 1113 q 485 1152 492 1137 q 478 1185 478 1168 z "},"ᐈ":{"ha":1067,"x_min":68,"x_max":1040,"o":"m 68 0 l 68 972 l 1040 507 l 1040 466 l 68 0 m 653 486 l 246 663 l 246 310 l 653 486 m 395 392 l 290 392 l 290 580 l 395 580 l 395 392 z "},"ᐉ":{"ha":1067,"x_min":68,"x_max":1040,"o":"m 68 0 l 68 972 l 1040 507 l 1040 466 l 68 0 m 653 486 l 246 663 l 246 310 l 653 486 m 264 486 q 271 519 264 504 q 290 547 278 535 q 317 566 301 559 q 351 572 333 572 q 384 566 368 572 q 411 547 399 559 q 430 519 423 535 q 437 486 437 504 q 430 453 437 469 q 411 426 423 437 q 384 407 399 414 q 351 400 368 400 q 317 407 333 400 q 290 426 301 414 q 271 453 278 437 q 264 486 264 469 z "},"ᐊ":{"ha":1067,"x_min":27,"x_max":1000,"o":"m 27 466 l 27 507 l 1000 972 l 1000 0 l 27 466 m 821 310 l 821 663 l 414 486 l 821 310 z "},"ᐋ":{"ha":1067,"x_min":27,"x_max":1000,"o":"m 27 466 l 27 507 l 1000 972 l 1000 0 l 27 466 m 821 310 l 821 663 l 414 486 l 821 310 m 821 1185 q 828 1219 821 1203 q 846 1246 835 1234 q 874 1265 858 1258 q 907 1272 890 1272 q 941 1265 925 1272 q 968 1246 956 1258 q 987 1219 980 1234 q 994 1185 994 1203 q 987 1152 994 1168 q 968 1125 980 1137 q 941 1106 956 1113 q 907 1099 925 1099 q 874 1106 890 1099 q 846 1125 858 1113 q 828 1152 835 1137 q 821 1185 821 1168 z "},"ᐌ":{"ha":1027,"x_min":7,"x_max":1000,"o":"m 27 972 l 1000 972 l 534 0 l 493 0 l 27 972 m 513 387 l 690 794 l 337 794 l 513 387 m 7 486 q 14 519 7 504 q 32 547 20 535 q 59 566 43 559 q 93 572 75 572 q 126 566 111 572 q 154 547 142 559 q 172 519 165 535 q 179 486 179 504 q 172 453 179 469 q 154 426 165 437 q 126 407 142 414 q 93 400 111 400 q 59 407 75 400 q 32 426 43 414 q 14 453 20 437 q 7 486 7 469 z "},"ᐍ":{"ha":1027,"x_min":27,"x_max":1020,"o":"m 27 972 l 1000 972 l 534 0 l 493 0 l 27 972 m 513 387 l 690 794 l 337 794 l 513 387 m 848 486 q 854 519 848 504 q 873 547 861 535 q 900 566 884 559 q 934 572 916 572 q 967 566 951 572 q 995 547 983 559 q 1013 519 1006 535 q 1020 486 1020 504 q 1013 453 1020 469 q 995 426 1006 437 q 967 407 983 414 q 934 400 951 400 q 900 407 916 400 q 873 426 884 414 q 854 453 861 437 q 848 486 848 469 z "},"ᐎ":{"ha":1027,"x_min":7,"x_max":1000,"o":"m 493 972 l 534 972 l 1000 0 l 27 0 l 493 972 m 337 178 l 690 178 l 513 585 l 337 178 m 7 486 q 14 519 7 504 q 32 547 20 535 q 59 566 43 559 q 93 572 75 572 q 126 566 111 572 q 154 547 142 559 q 172 519 165 535 q 179 486 179 504 q 172 453 179 469 q 154 426 165 437 q 126 407 142 414 q 93 400 111 400 q 59 407 75 400 q 32 426 43 414 q 14 453 20 437 q 7 486 7 469 z "},"ᐏ":{"ha":1027,"x_min":27,"x_max":1020,"o":"m 493 972 l 534 972 l 1000 0 l 27 0 l 493 972 m 337 178 l 690 178 l 513 585 l 337 178 m 848 486 q 854 519 848 504 q 873 547 861 535 q 900 566 884 559 q 934 572 916 572 q 967 566 951 572 q 995 547 983 559 q 1013 519 1006 535 q 1020 486 1020 504 q 1013 453 1020 469 q 995 426 1006 437 q 967 407 983 414 q 934 400 951 400 q 900 407 916 400 q 873 426 884 414 q 854 453 861 437 q 848 486 848 469 z "},"ᐐ":{"ha":1027,"x_min":7,"x_max":1000,"o":"m 493 972 l 534 972 l 1000 0 l 27 0 l 493 972 m 337 178 l 690 178 l 513 585 l 337 178 m 427 1185 q 434 1219 427 1203 q 452 1246 441 1234 q 480 1265 464 1258 q 513 1272 496 1272 q 547 1265 531 1272 q 574 1246 562 1258 q 593 1219 586 1234 q 600 1185 600 1203 q 593 1152 600 1168 q 574 1125 586 1137 q 547 1106 562 1113 q 513 1099 531 1099 q 480 1106 496 1099 q 452 1125 464 1113 q 434 1152 441 1137 q 427 1185 427 1168 m 7 486 q 14 519 7 504 q 32 547 20 535 q 59 566 43 559 q 93 572 75 572 q 126 566 111 572 q 154 547 142 559 q 172 519 165 535 q 179 486 179 504 q 172 453 179 469 q 154 426 165 437 q 126 407 142 414 q 93 400 111 400 q 59 407 75 400 q 32 426 43 414 q 14 453 20 437 q 7 486 7 469 z "},"ᐑ":{"ha":1027,"x_min":27,"x_max":1020,"o":"m 493 972 l 534 972 l 1000 0 l 27 0 l 493 972 m 337 178 l 690 178 l 513 585 l 337 178 m 427 1185 q 434 1219 427 1203 q 452 1246 441 1234 q 480 1265 464 1258 q 513 1272 496 1272 q 547 1265 531 1272 q 574 1246 562 1258 q 593 1219 586 1234 q 600 1185 600 1203 q 593 1152 600 1168 q 574 1125 586 1137 q 547 1106 562 1113 q 513 1099 531 1099 q 480 1106 496 1099 q 452 1125 464 1113 q 434 1152 441 1137 q 427 1185 427 1168 m 848 486 q 854 519 848 504 q 873 547 861 535 q 900 566 884 559 q 934 572 916 572 q 967 566 951 572 q 995 547 983 559 q 1013 519 1006 535 q 1020 486 1020 504 q 1013 453 1020 469 q 995 426 1006 437 q 967 407 983 414 q 934 400 951 400 q 900 407 916 400 q 873 426 884 414 q 854 453 861 437 q 848 486 848 469 z "},"ᐒ":{"ha":1226,"x_min":7,"x_max":1199,"o":"m 227 0 l 227 972 l 1199 507 l 1199 466 l 227 0 m 812 486 l 405 663 l 405 310 l 812 486 m 7 486 q 14 519 7 504 q 32 547 20 535 q 59 566 43 559 q 93 572 75 572 q 126 566 111 572 q 154 547 142 559 q 172 519 165 535 q 179 486 179 504 q 172 453 179 469 q 154 426 165 437 q 126 407 142 414 q 93 400 111 400 q 59 407 75 400 q 32 426 43 414 q 14 453 20 437 q 7 486 7 469 z "},"ᐓ":{"ha":1267,"x_min":68,"x_max":1260,"o":"m 68 0 l 68 972 l 1040 507 l 1040 466 l 68 0 m 653 486 l 246 663 l 246 310 l 653 486 m 1088 486 q 1095 519 1088 504 q 1113 547 1101 535 q 1140 566 1124 559 q 1174 572 1156 572 q 1207 566 1192 572 q 1235 547 1223 559 q 1253 519 1246 535 q 1260 486 1260 504 q 1253 453 1260 469 q 1235 426 1246 437 q 1207 407 1223 414 q 1174 400 1192 400 q 1140 407 1156 400 q 1113 426 1124 414 q 1095 453 1101 437 q 1088 486 1088 469 z "},"ᐔ":{"ha":1226,"x_min":7,"x_max":1199,"o":"m 227 0 l 227 972 l 1199 507 l 1199 466 l 227 0 m 812 486 l 405 663 l 405 310 l 812 486 m 7 486 q 14 519 7 504 q 32 547 20 535 q 59 566 43 559 q 93 572 75 572 q 126 566 111 572 q 154 547 142 559 q 172 519 165 535 q 179 486 179 504 q 172 453 179 469 q 154 426 165 437 q 126 407 142 414 q 93 400 111 400 q 59 407 75 400 q 32 426 43 414 q 14 453 20 437 q 7 486 7 469 m 227 1185 q 233 1219 227 1203 q 252 1246 240 1234 q 279 1265 263 1258 q 313 1272 295 1272 q 346 1265 330 1272 q 373 1246 361 1258 q 392 1219 385 1234 q 399 1185 399 1203 q 392 1152 399 1168 q 373 1125 385 1137 q 346 1106 361 1113 q 313 1099 330 1099 q 279 1106 295 1099 q 252 1125 263 1113 q 233 1152 240 1137 q 227 1185 227 1168 z "},"ᐕ":{"ha":1267,"x_min":68,"x_max":1260,"o":"m 68 0 l 68 972 l 1040 507 l 1040 466 l 68 0 m 653 486 l 246 663 l 246 310 l 653 486 m 1088 486 q 1095 519 1088 504 q 1113 547 1101 535 q 1140 566 1124 559 q 1174 572 1156 572 q 1207 566 1192 572 q 1235 547 1223 559 q 1253 519 1246 535 q 1260 486 1260 504 q 1253 453 1260 469 q 1235 426 1246 437 q 1207 407 1223 414 q 1174 400 1192 400 q 1140 407 1156 400 q 1113 426 1124 414 q 1095 453 1101 437 q 1088 486 1088 469 m 68 1185 q 75 1219 68 1203 q 93 1246 81 1234 q 120 1265 104 1258 q 154 1272 136 1272 q 187 1265 172 1272 q 215 1246 203 1258 q 233 1219 227 1234 q 240 1185 240 1203 q 233 1152 240 1168 q 215 1125 227 1137 q 187 1106 203 1113 q 154 1099 172 1099 q 120 1106 136 1099 q 93 1125 104 1113 q 75 1152 81 1137 q 68 1185 68 1168 z "},"ᐖ":{"ha":1067,"x_min":68,"x_max":1040,"o":"m 68 0 l 68 972 l 1040 507 l 1040 466 l 68 0 m 653 486 l 246 663 l 246 310 l 653 486 m 68 1185 q 75 1219 68 1203 q 93 1246 81 1234 q 120 1265 104 1258 q 154 1272 136 1272 q 187 1265 172 1272 q 215 1246 203 1258 q 233 1219 227 1234 q 240 1185 240 1203 q 233 1152 240 1168 q 215 1125 227 1137 q 187 1106 203 1113 q 154 1099 172 1099 q 120 1106 136 1099 q 93 1125 104 1113 q 75 1152 81 1137 q 68 1185 68 1168 m 478 986 q 485 1019 478 1004 q 503 1047 492 1035 q 531 1065 515 1059 q 564 1072 547 1072 q 597 1065 582 1072 q 625 1047 613 1059 q 644 1019 637 1035 q 650 986 650 1004 q 644 953 650 968 q 625 925 637 937 q 597 907 613 913 q 564 900 582 900 q 531 907 547 900 q 503 925 515 913 q 485 953 492 937 q 478 986 478 968 z "},"ᐗ":{"ha":1267,"x_min":7,"x_max":1199,"o":"m 227 466 l 227 507 l 1199 972 l 1199 0 l 227 466 m 1021 310 l 1021 663 l 614 486 l 1021 310 m 7 486 q 14 519 7 504 q 32 547 20 535 q 59 566 43 559 q 93 572 75 572 q 126 566 111 572 q 154 547 142 559 q 172 519 165 535 q 179 486 179 504 q 172 453 179 469 q 154 426 165 437 q 126 407 142 414 q 93 400 111 400 q 59 407 75 400 q 32 426 43 414 q 14 453 20 437 q 7 486 7 469 z "},"ᐘ":{"ha":1226,"x_min":27,"x_max":1219,"o":"m 27 466 l 27 507 l 1000 972 l 1000 0 l 27 466 m 821 310 l 821 663 l 414 486 l 821 310 m 1047 486 q 1054 519 1047 504 q 1072 547 1061 535 q 1100 566 1084 559 q 1133 572 1116 572 q 1166 566 1151 572 q 1194 547 1182 559 q 1213 519 1206 535 q 1219 486 1219 504 q 1213 453 1219 469 q 1194 426 1206 437 q 1166 407 1182 414 q 1133 400 1151 400 q 1100 407 1116 400 q 1072 426 1084 414 q 1054 453 1061 437 q 1047 486 1047 469 z "},"ᐙ":{"ha":1267,"x_min":7,"x_max":1199,"o":"m 227 466 l 227 507 l 1199 972 l 1199 0 l 227 466 m 1021 310 l 1021 663 l 614 486 l 1021 310 m 7 486 q 14 519 7 504 q 32 547 20 535 q 59 566 43 559 q 93 572 75 572 q 126 566 111 572 q 154 547 142 559 q 172 519 165 535 q 179 486 179 504 q 172 453 179 469 q 154 426 165 437 q 126 407 142 414 q 93 400 111 400 q 59 407 75 400 q 32 426 43 414 q 14 453 20 437 q 7 486 7 469 m 1027 1185 q 1034 1219 1027 1203 q 1052 1246 1040 1234 q 1079 1265 1063 1258 q 1113 1272 1095 1272 q 1146 1265 1131 1272 q 1174 1246 1162 1258 q 1192 1219 1185 1234 q 1199 1185 1199 1203 q 1192 1152 1199 1168 q 1174 1125 1185 1137 q 1146 1106 1162 1113 q 1113 1099 1131 1099 q 1079 1106 1095 1099 q 1052 1125 1063 1113 q 1034 1152 1040 1137 q 1027 1185 1027 1168 z "},"ᐚ":{"ha":1226,"x_min":27,"x_max":1219,"o":"m 27 466 l 27 507 l 1000 972 l 1000 0 l 27 466 m 821 310 l 821 663 l 414 486 l 821 310 m 1047 486 q 1054 519 1047 504 q 1072 547 1061 535 q 1100 566 1084 559 q 1133 572 1116 572 q 1166 566 1151 572 q 1194 547 1182 559 q 1213 519 1206 535 q 1219 486 1219 504 q 1213 453 1219 469 q 1194 426 1206 437 q 1166 407 1182 414 q 1133 400 1151 400 q 1100 407 1116 400 q 1072 426 1084 414 q 1054 453 1061 437 q 1047 486 1047 469 m 827 1185 q 834 1219 827 1203 q 852 1246 841 1234 q 880 1265 864 1258 q 913 1272 896 1272 q 947 1265 931 1272 q 974 1246 962 1258 q 993 1219 986 1234 q 1000 1185 1000 1203 q 993 1152 1000 1168 q 974 1125 986 1137 q 947 1106 962 1113 q 913 1099 931 1099 q 880 1106 896 1099 q 852 1125 864 1113 q 834 1152 841 1137 q 827 1185 827 1168 z "},"ᐛ":{"ha":1067,"x_min":27,"x_max":1000,"o":"m 27 466 l 27 507 l 1000 972 l 1000 0 l 27 466 m 821 310 l 821 663 l 414 486 l 821 310 m 827 1185 q 834 1219 827 1203 q 852 1246 841 1234 q 880 1265 864 1258 q 913 1272 896 1272 q 947 1265 931 1272 q 974 1246 962 1258 q 993 1219 986 1234 q 1000 1185 1000 1203 q 993 1152 1000 1168 q 974 1125 986 1137 q 947 1106 962 1113 q 913 1099 931 1099 q 880 1106 896 1099 q 852 1125 864 1113 q 834 1152 841 1137 q 827 1185 827 1168 m 437 986 q 444 1019 437 1004 q 463 1047 451 1035 q 490 1065 474 1059 q 524 1072 506 1072 q 557 1065 541 1072 q 584 1047 572 1059 q 603 1019 596 1035 q 610 986 610 1004 q 603 953 610 968 q 584 925 596 937 q 557 907 572 913 q 524 900 541 900 q 490 907 506 900 q 463 925 474 913 q 444 953 451 937 q 437 986 437 968 z "},"ᐜ":{"ha":814,"x_min":68,"x_max":746,"o":"m 179 972 l 179 717 q 184 670 179 692 q 199 630 189 648 q 226 602 210 612 q 265 591 242 591 q 328 622 304 591 q 351 717 351 653 l 351 972 l 463 972 l 463 717 q 469 662 463 685 q 488 623 476 638 q 515 599 499 607 q 549 591 530 591 q 589 602 572 591 q 616 630 606 612 q 630 670 626 648 q 635 717 635 692 l 635 972 l 746 972 l 746 703 q 733 614 746 654 q 695 546 720 574 q 635 502 670 517 q 555 486 600 486 q 469 505 507 486 q 407 557 431 523 q 345 505 382 523 q 258 486 307 486 q 179 502 214 486 q 119 546 144 517 q 81 614 94 574 q 68 703 68 654 l 68 972 l 179 972 z "},"ᐝ":{"ha":711,"x_min":68,"x_max":643,"o":"m 150 630 q 168 586 150 604 q 212 568 186 568 q 255 586 237 568 q 273 630 273 604 q 255 674 273 656 q 212 692 237 692 q 168 674 186 692 q 150 630 150 656 m 68 632 q 79 687 68 661 q 110 732 91 713 q 156 763 130 751 q 211 774 182 774 q 266 763 240 774 q 312 732 292 751 q 344 687 332 713 q 355 632 355 661 q 344 576 355 603 q 312 530 332 550 q 266 498 292 510 q 211 486 240 486 q 156 498 182 486 q 110 530 130 510 q 79 576 91 550 q 68 632 68 603 m 437 829 q 455 785 437 803 q 499 767 473 767 q 543 785 525 767 q 561 829 561 803 q 543 873 561 854 q 499 891 525 891 q 455 873 473 891 q 437 829 437 854 m 355 831 q 367 886 355 860 q 398 931 378 911 q 443 961 417 950 q 498 972 469 972 q 554 961 528 972 q 600 931 580 950 q 631 886 620 911 q 643 831 643 860 q 631 775 643 802 q 600 729 620 749 q 554 697 580 709 q 498 685 528 685 q 443 697 469 685 q 398 729 417 709 q 367 775 378 749 q 355 831 355 802 z "},"ᐞ":{"ha":622,"x_min":68,"x_max":554,"o":"m 300 972 l 321 972 l 554 486 l 68 486 l 300 972 m 237 591 l 385 591 l 311 755 l 237 591 z "},"ᐟ":{"ha":469,"x_min":68,"x_max":401,"o":"m 68 486 l 282 972 l 401 972 l 186 486 l 68 486 z "},"ᐠ":{"ha":469,"x_min":68,"x_max":401,"o":"m 282 486 l 68 972 l 186 972 l 401 486 l 282 486 z "},"ᐡ":{"ha":622,"x_min":68,"x_max":554,"o":"m 554 729 q 535 634 554 679 q 483 557 516 590 q 406 505 450 524 q 311 486 361 486 q 216 505 260 486 q 139 557 172 524 q 87 634 106 590 q 68 729 68 679 l 68 972 l 179 972 l 179 729 q 187 683 179 706 q 211 640 195 659 q 252 609 227 621 q 311 597 276 597 q 370 609 345 597 q 411 640 395 621 q 435 683 427 659 q 443 729 443 706 l 443 972 l 554 972 l 554 729 z "},"ᐢ":{"ha":622,"x_min":68,"x_max":554,"o":"m 554 486 l 443 486 l 443 730 q 435 776 443 753 q 411 819 427 800 q 370 849 395 838 q 311 861 345 861 q 252 849 276 861 q 211 819 227 838 q 187 776 195 800 q 179 730 179 753 l 179 486 l 68 486 l 68 730 q 87 824 68 780 q 139 902 106 869 q 216 954 172 935 q 311 972 260 972 q 406 954 361 972 q 483 902 450 935 q 535 824 516 869 q 554 730 554 780 l 554 486 z "},"ᐣ":{"ha":622,"x_min":68,"x_max":554,"o":"m 68 486 l 68 597 l 311 597 q 358 605 334 597 q 400 629 381 613 q 431 670 419 646 q 443 730 443 695 q 431 789 443 764 q 400 829 419 813 q 358 853 381 846 q 311 861 334 861 l 68 861 l 68 972 l 311 972 q 406 954 361 972 q 483 902 450 935 q 535 824 516 869 q 554 730 554 780 q 535 635 554 679 q 483 557 516 591 q 406 505 450 524 q 311 486 361 486 l 68 486 z "},"ᐤ":{"ha":622,"x_min":68,"x_max":554,"o":"m 68 729 q 87 824 68 779 q 139 901 106 868 q 216 953 172 934 q 311 972 260 972 q 405 953 361 972 q 483 901 450 934 q 535 824 515 868 q 554 729 554 779 q 535 634 554 679 q 483 557 515 590 q 405 505 450 524 q 311 486 361 486 q 216 505 260 486 q 139 557 172 524 q 87 634 106 590 q 68 729 68 679 m 179 729 q 190 679 179 704 q 218 636 200 654 q 260 608 236 618 q 310 597 285 597 q 360 608 335 597 q 404 636 385 618 q 432 679 422 654 q 443 729 443 704 q 432 779 443 754 q 404 822 422 804 q 360 851 385 840 q 310 861 335 861 q 260 851 285 861 q 218 822 236 840 q 190 779 200 804 q 179 729 179 754 z "},"ᐥ":{"ha":652,"x_min":68,"x_max":584,"o":"m 68 486 l 282 972 l 401 972 l 186 486 l 68 486 m 251 486 l 465 972 l 584 972 l 370 486 l 251 486 z "},"ᐦ":{"ha":415,"x_min":68,"x_max":347,"o":"m 68 486 l 68 972 l 179 972 l 179 486 l 68 486 m 236 486 l 236 972 l 347 972 l 347 486 l 236 486 z "},"ᐧ":{"ha":357,"x_min":92,"x_max":264,"o":"m 92 486 q 99 519 92 504 q 117 547 106 535 q 145 566 129 559 q 178 572 161 572 q 212 566 196 572 q 239 547 227 559 q 258 519 251 535 q 264 486 264 504 q 258 453 264 469 q 239 426 251 437 q 212 407 227 414 q 178 400 196 400 q 145 407 161 400 q 117 426 129 414 q 99 453 106 437 q 92 486 92 469 z "},"ᐨ":{"ha":622,"x_min":68,"x_max":554,"o":"m 68 785 l 554 785 l 554 673 l 68 673 l 68 785 z "},"ᐩ":{"ha":622,"x_min":68,"x_max":554,"o":"m 68 785 l 255 785 l 255 972 l 366 972 l 366 785 l 554 785 l 554 673 l 366 673 l 366 486 l 255 486 l 255 673 l 68 673 l 68 785 z "},"ᐪ":{"ha":622,"x_min":68,"x_max":554,"o":"m 255 486 l 255 861 l 68 861 l 68 972 l 554 972 l 554 861 l 366 861 l 366 486 l 255 486 z "},"ᐫ":{"ha":1407,"x_min":27,"x_max":1400,"o":"m 27 972 l 1000 972 l 534 0 l 493 0 l 27 972 m 513 387 l 690 794 l 337 794 l 513 387 m 1282 486 l 1067 972 l 1186 972 l 1400 486 l 1282 486 z "},"ᐬ":{"ha":1098,"x_min":27,"x_max":1091,"o":"m 493 972 l 534 972 l 1000 0 l 27 0 l 493 972 m 337 178 l 690 178 l 513 585 l 337 178 m 972 486 l 758 972 l 877 972 l 1091 486 l 972 486 z "},"ᐭ":{"ha":1289,"x_min":68,"x_max":1282,"o":"m 68 0 l 68 972 l 1040 507 l 1040 466 l 68 0 m 653 486 l 246 663 l 246 310 l 653 486 m 1163 486 l 949 972 l 1067 972 l 1282 486 l 1163 486 z "},"ᐮ":{"ha":1407,"x_min":27,"x_max":1400,"o":"m 27 466 l 27 507 l 1000 972 l 1000 0 l 27 466 m 821 310 l 821 663 l 414 486 l 821 310 m 1282 486 l 1067 972 l 1186 972 l 1400 486 l 1282 486 z "},"ᐯ":{"ha":1027,"x_min":27,"x_max":1000,"o":"m 27 972 l 256 972 l 513 387 l 770 972 l 1000 972 l 534 0 l 493 0 l 27 972 z "},"ᐰ":{"ha":1027,"x_min":27,"x_max":1000,"o":"m 493 972 l 534 972 l 1000 0 l 770 0 l 513 585 l 256 0 l 27 0 l 493 972 m 452 1184 q 470 1140 452 1158 q 513 1122 488 1122 q 557 1140 539 1122 q 575 1184 575 1158 q 557 1228 575 1210 q 513 1246 539 1246 q 470 1228 488 1246 q 452 1184 452 1210 m 370 1186 q 381 1241 370 1215 q 412 1286 393 1267 q 457 1317 431 1305 q 513 1328 484 1328 q 568 1317 542 1328 q 614 1286 594 1305 q 646 1241 634 1267 q 657 1186 657 1215 q 646 1131 657 1157 q 614 1084 634 1104 q 568 1052 594 1064 q 513 1040 542 1040 q 457 1052 484 1040 q 412 1084 431 1064 q 381 1131 393 1104 q 370 1186 370 1157 z "},"ᐱ":{"ha":1027,"x_min":27,"x_max":1000,"o":"m 493 972 l 534 972 l 1000 0 l 770 0 l 513 585 l 256 0 l 27 0 l 493 972 z "},"ᐲ":{"ha":1027,"x_min":27,"x_max":1000,"o":"m 493 972 l 534 972 l 1000 0 l 770 0 l 513 585 l 256 0 l 27 0 l 493 972 m 427 1185 q 434 1219 427 1203 q 452 1246 441 1234 q 480 1265 464 1258 q 513 1272 496 1272 q 547 1265 531 1272 q 574 1246 562 1258 q 593 1219 586 1234 q 600 1185 600 1203 q 593 1152 600 1168 q 574 1125 586 1137 q 547 1106 562 1113 q 513 1099 531 1099 q 480 1106 496 1099 q 452 1125 464 1113 q 434 1152 441 1137 q 427 1185 427 1168 z "},"ᐳ":{"ha":1067,"x_min":68,"x_max":1040,"o":"m 1040 507 l 1040 466 l 68 0 l 68 229 l 653 486 l 68 743 l 68 972 l 1040 507 z "},"ᐴ":{"ha":1067,"x_min":68,"x_max":1040,"o":"m 1040 507 l 1040 466 l 68 0 l 68 229 l 653 486 l 68 743 l 68 972 l 1040 507 m 68 1185 q 75 1219 68 1203 q 93 1246 81 1234 q 120 1265 104 1258 q 154 1272 136 1272 q 187 1265 172 1272 q 215 1246 203 1258 q 233 1219 227 1234 q 240 1185 240 1203 q 233 1152 240 1168 q 215 1125 227 1137 q 187 1106 203 1113 q 154 1099 172 1099 q 120 1106 136 1099 q 93 1125 104 1113 q 75 1152 81 1137 q 68 1185 68 1168 z "},"ᐵ":{"ha":1067,"x_min":68,"x_max":1040,"o":"m 1040 507 l 1040 466 l 68 0 l 68 229 l 653 486 l 68 743 l 68 972 l 1040 507 m 68 1185 q 75 1219 68 1203 q 93 1246 81 1234 q 120 1265 104 1258 q 154 1272 136 1272 q 187 1265 172 1272 q 215 1246 203 1258 q 233 1219 227 1234 q 240 1185 240 1203 q 233 1152 240 1168 q 215 1125 227 1137 q 187 1106 203 1113 q 154 1099 172 1099 q 120 1106 136 1099 q 93 1125 104 1113 q 75 1152 81 1137 q 68 1185 68 1168 m 478 1185 q 485 1219 478 1203 q 503 1246 492 1234 q 531 1265 515 1258 q 564 1272 547 1272 q 597 1265 582 1272 q 625 1246 613 1258 q 644 1219 637 1234 q 650 1185 650 1203 q 644 1152 650 1168 q 625 1125 637 1137 q 597 1106 613 1113 q 564 1099 582 1099 q 531 1106 547 1099 q 503 1125 515 1113 q 485 1152 492 1137 q 478 1185 478 1168 z "},"ᐶ":{"ha":1067,"x_min":68,"x_max":1040,"o":"m 1040 507 l 1040 466 l 68 0 l 68 229 l 653 486 l 68 743 l 68 972 l 1040 507 m 315 392 l 210 392 l 210 580 l 315 580 l 315 392 z "},"ᐷ":{"ha":1067,"x_min":68,"x_max":1040,"o":"m 1040 507 l 1040 466 l 68 0 l 68 229 l 653 486 l 68 743 l 68 972 l 1040 507 m 224 486 q 231 519 224 504 q 249 547 237 535 q 276 566 260 559 q 310 572 292 572 q 343 566 328 572 q 371 547 359 559 q 389 519 382 535 q 396 486 396 504 q 389 453 396 469 q 371 426 382 437 q 343 407 359 414 q 310 400 328 400 q 276 407 292 400 q 249 426 260 414 q 231 453 237 437 q 224 486 224 469 z "},"ᐸ":{"ha":1067,"x_min":27,"x_max":1000,"o":"m 1000 972 l 1000 743 l 414 486 l 1000 229 l 1000 0 l 27 466 l 27 507 l 1000 972 z "},"ᐹ":{"ha":1067,"x_min":27,"x_max":1000,"o":"m 1000 972 l 1000 743 l 414 486 l 1000 229 l 1000 0 l 27 466 l 27 507 l 1000 972 m 827 1185 q 834 1219 827 1203 q 852 1246 841 1234 q 880 1265 864 1258 q 913 1272 896 1272 q 947 1265 931 1272 q 974 1246 962 1258 q 993 1219 986 1234 q 1000 1185 1000 1203 q 993 1152 1000 1168 q 974 1125 986 1137 q 947 1106 962 1113 q 913 1099 931 1099 q 880 1106 896 1099 q 852 1125 864 1113 q 834 1152 841 1137 q 827 1185 827 1168 z "},"ᐺ":{"ha":1027,"x_min":7,"x_max":1000,"o":"m 27 972 l 256 972 l 513 387 l 770 972 l 1000 972 l 534 0 l 493 0 l 27 972 m 7 486 q 14 519 7 504 q 32 547 20 535 q 59 566 43 559 q 93 572 75 572 q 126 566 111 572 q 154 547 142 559 q 172 519 165 535 q 179 486 179 504 q 172 453 179 469 q 154 426 165 437 q 126 407 142 414 q 93 400 111 400 q 59 407 75 400 q 32 426 43 414 q 14 453 20 437 q 7 486 7 469 z "},"ᐻ":{"ha":1027,"x_min":27,"x_max":1020,"o":"m 27 972 l 256 972 l 513 387 l 770 972 l 1000 972 l 534 0 l 493 0 l 27 972 m 848 486 q 854 519 848 504 q 873 547 861 535 q 900 566 884 559 q 934 572 916 572 q 967 566 951 572 q 995 547 983 559 q 1013 519 1006 535 q 1020 486 1020 504 q 1013 453 1020 469 q 995 426 1006 437 q 967 407 983 414 q 934 400 951 400 q 900 407 916 400 q 873 426 884 414 q 854 453 861 437 q 848 486 848 469 z "},"ᐼ":{"ha":1027,"x_min":7,"x_max":1000,"o":"m 493 972 l 534 972 l 1000 0 l 770 0 l 513 585 l 256 0 l 27 0 l 493 972 m 7 486 q 14 519 7 504 q 32 547 20 535 q 59 566 43 559 q 93 572 75 572 q 126 566 111 572 q 154 547 142 559 q 172 519 165 535 q 179 486 179 504 q 172 453 179 469 q 154 426 165 437 q 126 407 142 414 q 93 400 111 400 q 59 407 75 400 q 32 426 43 414 q 14 453 20 437 q 7 486 7 469 z "},"ᐽ":{"ha":1027,"x_min":27,"x_max":1020,"o":"m 493 972 l 534 972 l 1000 0 l 770 0 l 513 585 l 256 0 l 27 0 l 493 972 m 848 486 q 854 519 848 504 q 873 547 861 535 q 900 566 884 559 q 934 572 916 572 q 967 566 951 572 q 995 547 983 559 q 1013 519 1006 535 q 1020 486 1020 504 q 1013 453 1020 469 q 995 426 1006 437 q 967 407 983 414 q 934 400 951 400 q 900 407 916 400 q 873 426 884 414 q 854 453 861 437 q 848 486 848 469 z "},"ᐾ":{"ha":1027,"x_min":7,"x_max":1000,"o":"m 493 972 l 534 972 l 1000 0 l 770 0 l 513 585 l 256 0 l 27 0 l 493 972 m 431 1185 q 437 1219 431 1203 q 456 1246 444 1234 q 483 1265 467 1258 q 517 1272 499 1272 q 550 1265 534 1272 q 577 1246 566 1258 q 596 1219 589 1234 q 603 1185 603 1203 q 596 1152 603 1168 q 577 1125 589 1137 q 550 1106 566 1113 q 517 1099 534 1099 q 483 1106 499 1099 q 456 1125 467 1113 q 437 1152 444 1137 q 431 1185 431 1168 m 7 486 q 14 519 7 504 q 32 547 20 535 q 59 566 43 559 q 93 572 75 572 q 126 566 111 572 q 154 547 142 559 q 172 519 165 535 q 179 486 179 504 q 172 453 179 469 q 154 426 165 437 q 126 407 142 414 q 93 400 111 400 q 59 407 75 400 q 32 426 43 414 q 14 453 20 437 q 7 486 7 469 z "},"ᐿ":{"ha":1027,"x_min":27,"x_max":1020,"o":"m 493 972 l 534 972 l 1000 0 l 770 0 l 513 585 l 256 0 l 27 0 l 493 972 m 431 1185 q 437 1219 431 1203 q 456 1246 444 1234 q 483 1265 467 1258 q 517 1272 499 1272 q 550 1265 534 1272 q 577 1246 566 1258 q 596 1219 589 1234 q 603 1185 603 1203 q 596 1152 603 1168 q 577 1125 589 1137 q 550 1106 566 1113 q 517 1099 534 1099 q 483 1106 499 1099 q 456 1125 467 1113 q 437 1152 444 1137 q 431 1185 431 1168 m 848 486 q 854 519 848 504 q 873 547 861 535 q 900 566 884 559 q 934 572 916 572 q 967 566 951 572 q 995 547 983 559 q 1013 519 1006 535 q 1020 486 1020 504 q 1013 453 1020 469 q 995 426 1006 437 q 967 407 983 414 q 934 400 951 400 q 900 407 916 400 q 873 426 884 414 q 854 453 861 437 q 848 486 848 469 z "},"ᑀ":{"ha":1226,"x_min":7,"x_max":1199,"o":"m 1199 507 l 1199 466 l 227 0 l 227 229 l 812 486 l 227 743 l 227 972 l 1199 507 m 7 486 q 14 519 7 504 q 32 547 20 535 q 59 566 43 559 q 93 572 75 572 q 126 566 111 572 q 154 547 142 559 q 172 519 165 535 q 179 486 179 504 q 172 453 179 469 q 154 426 165 437 q 126 407 142 414 q 93 400 111 400 q 59 407 75 400 q 32 426 43 414 q 14 453 20 437 q 7 486 7 469 z "},"ᑁ":{"ha":1267,"x_min":68,"x_max":1260,"o":"m 1040 507 l 1040 466 l 68 0 l 68 229 l 653 486 l 68 743 l 68 972 l 1040 507 m 1088 486 q 1095 519 1088 504 q 1113 547 1101 535 q 1140 566 1124 559 q 1174 572 1156 572 q 1207 566 1192 572 q 1235 547 1223 559 q 1253 519 1246 535 q 1260 486 1260 504 q 1253 453 1260 469 q 1235 426 1246 437 q 1207 407 1223 414 q 1174 400 1192 400 q 1140 407 1156 400 q 1113 426 1124 414 q 1095 453 1101 437 q 1088 486 1088 469 z "},"ᑂ":{"ha":1226,"x_min":7,"x_max":1199,"o":"m 1199 507 l 1199 466 l 227 0 l 227 229 l 812 486 l 227 743 l 227 972 l 1199 507 m 7 486 q 14 519 7 504 q 32 547 20 535 q 59 566 43 559 q 93 572 75 572 q 126 566 111 572 q 154 547 142 559 q 172 519 165 535 q 179 486 179 504 q 172 453 179 469 q 154 426 165 437 q 126 407 142 414 q 93 400 111 400 q 59 407 75 400 q 32 426 43 414 q 14 453 20 437 q 7 486 7 469 m 227 1185 q 233 1219 227 1203 q 252 1246 240 1234 q 279 1265 263 1258 q 313 1272 295 1272 q 346 1265 330 1272 q 373 1246 361 1258 q 392 1219 385 1234 q 399 1185 399 1203 q 392 1152 399 1168 q 373 1125 385 1137 q 346 1106 361 1113 q 313 1099 330 1099 q 279 1106 295 1099 q 252 1125 263 1113 q 233 1152 240 1137 q 227 1185 227 1168 z "},"ᑃ":{"ha":1267,"x_min":68,"x_max":1260,"o":"m 1040 507 l 1040 466 l 68 0 l 68 229 l 653 486 l 68 743 l 68 972 l 1040 507 m 1088 486 q 1095 519 1088 504 q 1113 547 1101 535 q 1140 566 1124 559 q 1174 572 1156 572 q 1207 566 1192 572 q 1235 547 1223 559 q 1253 519 1246 535 q 1260 486 1260 504 q 1253 453 1260 469 q 1235 426 1246 437 q 1207 407 1223 414 q 1174 400 1192 400 q 1140 407 1156 400 q 1113 426 1124 414 q 1095 453 1101 437 q 1088 486 1088 469 m 68 1185 q 75 1219 68 1203 q 93 1246 81 1234 q 120 1265 104 1258 q 154 1272 136 1272 q 187 1265 172 1272 q 215 1246 203 1258 q 233 1219 227 1234 q 240 1185 240 1203 q 233 1152 240 1168 q 215 1125 227 1137 q 187 1106 203 1113 q 154 1099 172 1099 q 120 1106 136 1099 q 93 1125 104 1113 q 75 1152 81 1137 q 68 1185 68 1168 z "},"ᑄ":{"ha":1267,"x_min":7,"x_max":1199,"o":"m 1199 972 l 1199 743 l 614 486 l 1199 229 l 1199 0 l 227 466 l 227 507 l 1199 972 m 7 486 q 14 519 7 504 q 32 547 20 535 q 59 566 43 559 q 93 572 75 572 q 126 566 111 572 q 154 547 142 559 q 172 519 165 535 q 179 486 179 504 q 172 453 179 469 q 154 426 165 437 q 126 407 142 414 q 93 400 111 400 q 59 407 75 400 q 32 426 43 414 q 14 453 20 437 q 7 486 7 469 z "},"ᑅ":{"ha":1226,"x_min":27,"x_max":1219,"o":"m 1000 972 l 1000 743 l 414 486 l 1000 229 l 1000 0 l 27 466 l 27 507 l 1000 972 m 1047 486 q 1054 519 1047 504 q 1072 547 1061 535 q 1100 566 1084 559 q 1133 572 1116 572 q 1166 566 1151 572 q 1194 547 1182 559 q 1213 519 1206 535 q 1219 486 1219 504 q 1213 453 1219 469 q 1194 426 1206 437 q 1166 407 1182 414 q 1133 400 1151 400 q 1100 407 1116 400 q 1072 426 1084 414 q 1054 453 1061 437 q 1047 486 1047 469 z "},"ᑆ":{"ha":1267,"x_min":7,"x_max":1199,"o":"m 1199 972 l 1199 743 l 614 486 l 1199 229 l 1199 0 l 227 466 l 227 507 l 1199 972 m 7 486 q 14 519 7 504 q 32 547 20 535 q 59 566 43 559 q 93 572 75 572 q 126 566 111 572 q 154 547 142 559 q 172 519 165 535 q 179 486 179 504 q 172 453 179 469 q 154 426 165 437 q 126 407 142 414 q 93 400 111 400 q 59 407 75 400 q 32 426 43 414 q 14 453 20 437 q 7 486 7 469 m 1027 1185 q 1034 1219 1027 1203 q 1052 1246 1040 1234 q 1079 1265 1063 1258 q 1113 1272 1095 1272 q 1146 1265 1131 1272 q 1174 1246 1162 1258 q 1192 1219 1185 1234 q 1199 1185 1199 1203 q 1192 1152 1199 1168 q 1174 1125 1185 1137 q 1146 1106 1162 1113 q 1113 1099 1131 1099 q 1079 1106 1095 1099 q 1052 1125 1063 1113 q 1034 1152 1040 1137 q 1027 1185 1027 1168 z "},"ᑇ":{"ha":1226,"x_min":27,"x_max":1219,"o":"m 1000 972 l 1000 743 l 414 486 l 1000 229 l 1000 0 l 27 466 l 27 507 l 1000 972 m 1047 486 q 1054 519 1047 504 q 1072 547 1061 535 q 1100 566 1084 559 q 1133 572 1116 572 q 1166 566 1151 572 q 1194 547 1182 559 q 1213 519 1206 535 q 1219 486 1219 504 q 1213 453 1219 469 q 1194 426 1206 437 q 1166 407 1182 414 q 1133 400 1151 400 q 1100 407 1116 400 q 1072 426 1084 414 q 1054 453 1061 437 q 1047 486 1047 469 m 827 1185 q 834 1219 827 1203 q 852 1246 841 1234 q 880 1265 864 1258 q 913 1272 896 1272 q 947 1265 931 1272 q 974 1246 962 1258 q 993 1219 986 1234 q 1000 1185 1000 1203 q 993 1152 1000 1168 q 974 1125 986 1137 q 947 1106 962 1113 q 913 1099 931 1099 q 880 1106 896 1099 q 852 1125 864 1113 q 834 1152 841 1137 q 827 1185 827 1168 z "},"ᑈ":{"ha":1067,"x_min":27,"x_max":1000,"o":"m 1000 972 l 1000 743 l 414 486 l 1000 229 l 1000 0 l 27 466 l 27 507 l 1000 972 m 827 1185 q 834 1219 827 1203 q 852 1246 841 1234 q 880 1265 864 1258 q 913 1272 896 1272 q 947 1265 931 1272 q 974 1246 962 1258 q 993 1219 986 1234 q 1000 1185 1000 1203 q 993 1152 1000 1168 q 974 1125 986 1137 q 947 1106 962 1113 q 913 1099 931 1099 q 880 1106 896 1099 q 852 1125 864 1113 q 834 1152 841 1137 q 827 1185 827 1168 m 437 986 q 444 1019 437 1004 q 463 1047 451 1035 q 490 1065 474 1059 q 524 1072 506 1072 q 557 1065 541 1072 q 584 1047 572 1059 q 603 1019 596 1035 q 610 986 610 1004 q 603 953 610 968 q 584 925 596 937 q 557 907 572 913 q 524 900 541 900 q 490 907 506 900 q 463 925 474 913 q 444 953 451 937 q 437 986 437 968 z "},"ᑉ":{"ha":622,"x_min":68,"x_max":554,"o":"m 554 486 l 68 719 l 68 739 l 554 972 l 554 850 l 285 729 l 554 608 l 554 486 z "},"ᑊ":{"ha":247,"x_min":68,"x_max":179,"o":"m 68 486 l 68 972 l 179 972 l 179 486 l 68 486 z "},"ᑋ":{"ha":463,"x_min":68,"x_max":395,"o":"m 395 486 l 283 486 l 283 634 q 271 696 283 677 q 231 715 259 715 q 193 695 206 715 q 179 634 179 675 l 179 486 l 68 486 l 68 972 l 179 972 l 179 799 q 199 810 187 805 q 221 817 208 814 q 252 821 235 821 q 311 809 285 821 q 356 776 338 797 q 385 725 375 755 q 395 661 395 696 l 395 486 z "},"ᑌ":{"ha":1108,"x_min":68,"x_max":1040,"o":"m 279 482 q 283 425 279 456 q 298 359 287 393 q 328 295 309 326 q 377 239 347 264 q 451 200 408 215 q 554 185 494 185 q 658 200 614 185 q 732 239 702 215 q 782 295 763 264 q 811 359 800 326 q 825 425 821 393 q 829 482 829 456 l 829 972 l 1040 972 l 1040 482 q 1011 296 1040 384 q 922 142 982 208 q 771 38 863 77 q 554 0 679 0 q 336 38 428 0 q 184 142 244 77 q 96 296 125 208 q 68 482 68 384 l 68 972 l 279 972 l 279 482 z "},"ᑍ":{"ha":1108,"x_min":68,"x_max":1040,"o":"m 279 0 l 68 0 l 68 490 q 96 676 68 589 q 184 830 125 764 q 336 934 244 896 q 554 972 428 972 q 771 934 679 972 q 922 830 863 896 q 1011 676 982 764 q 1040 490 1040 589 l 1040 0 l 829 0 l 829 490 q 825 548 829 516 q 811 613 821 580 q 782 677 800 646 q 732 733 763 709 q 658 772 702 758 q 554 787 614 787 q 451 772 494 787 q 377 733 408 758 q 328 677 347 709 q 298 613 309 646 q 283 548 287 580 q 279 490 279 516 l 279 0 m 493 1184 q 511 1140 493 1158 q 555 1122 529 1122 q 598 1140 581 1122 q 616 1184 616 1158 q 598 1228 616 1210 q 555 1246 581 1246 q 511 1228 529 1246 q 493 1184 493 1210 m 411 1186 q 422 1241 411 1215 q 453 1286 434 1267 q 499 1317 473 1305 q 554 1328 525 1328 q 609 1317 583 1328 q 655 1286 635 1305 q 687 1241 675 1267 q 699 1186 699 1215 q 687 1131 699 1157 q 655 1084 675 1104 q 609 1052 635 1064 q 554 1040 583 1040 q 499 1052 525 1040 q 453 1084 473 1064 q 422 1131 434 1104 q 411 1186 411 1157 z "},"ᑎ":{"ha":1108,"x_min":68,"x_max":1040,"o":"m 279 0 l 68 0 l 68 490 q 96 676 68 589 q 184 830 125 764 q 336 934 244 896 q 554 972 428 972 q 771 934 679 972 q 922 830 863 896 q 1011 676 982 764 q 1040 490 1040 589 l 1040 0 l 829 0 l 829 490 q 825 548 829 516 q 811 613 821 580 q 782 677 800 646 q 732 733 763 709 q 658 772 702 758 q 554 787 614 787 q 451 772 494 787 q 377 733 408 758 q 328 677 347 709 q 298 613 309 646 q 283 548 287 580 q 279 490 279 516 l 279 0 z "},"ᑏ":{"ha":1108,"x_min":68,"x_max":1040,"o":"m 279 0 l 68 0 l 68 490 q 96 676 68 589 q 184 830 125 764 q 336 934 244 896 q 554 972 428 972 q 771 934 679 972 q 922 830 863 896 q 1011 676 982 764 q 1040 490 1040 589 l 1040 0 l 829 0 l 829 490 q 825 548 829 516 q 811 613 821 580 q 782 677 800 646 q 732 733 763 709 q 658 772 702 758 q 554 787 614 787 q 451 772 494 787 q 377 733 408 758 q 328 677 347 709 q 298 613 309 646 q 283 548 287 580 q 279 490 279 516 l 279 0 m 468 1185 q 475 1219 468 1203 q 493 1246 481 1234 q 520 1265 505 1258 q 554 1272 536 1272 q 587 1265 572 1272 q 615 1246 603 1258 q 633 1219 627 1234 q 640 1185 640 1203 q 633 1152 640 1168 q 615 1125 627 1137 q 587 1106 603 1113 q 554 1099 572 1099 q 520 1106 536 1099 q 493 1125 505 1113 q 475 1152 481 1137 q 468 1185 468 1168 z "},"ᑐ":{"ha":1108,"x_min":68,"x_max":1040,"o":"m 68 761 l 68 972 l 558 972 q 744 944 656 972 q 898 856 832 916 q 1002 704 964 796 q 1040 486 1040 612 q 1002 269 1040 361 q 898 118 964 178 q 744 29 832 58 q 558 0 656 0 l 68 0 l 68 212 l 531 212 q 589 215 557 212 q 654 230 621 219 q 718 259 687 240 q 774 308 749 277 q 813 382 798 338 q 828 486 828 426 q 813 589 828 546 q 774 663 798 633 q 718 713 749 694 q 654 743 687 732 q 589 757 621 753 q 531 761 557 761 l 68 761 z "},"ᑑ":{"ha":1108,"x_min":68,"x_max":1040,"o":"m 68 761 l 68 972 l 558 972 q 744 944 656 972 q 898 856 832 916 q 1002 704 964 796 q 1040 486 1040 612 q 1002 269 1040 361 q 898 118 964 178 q 744 29 832 58 q 558 0 656 0 l 68 0 l 68 212 l 531 212 q 589 215 557 212 q 654 230 621 219 q 718 259 687 240 q 774 308 749 277 q 813 382 798 338 q 828 486 828 426 q 813 589 828 546 q 774 663 798 633 q 718 713 749 694 q 654 743 687 732 q 589 757 621 753 q 531 761 557 761 l 68 761 m 235 1185 q 241 1219 235 1203 q 260 1246 248 1234 q 287 1265 271 1258 q 321 1272 303 1272 q 354 1265 338 1272 q 381 1246 370 1258 q 400 1219 393 1234 q 407 1185 407 1203 q 400 1152 407 1168 q 381 1125 393 1137 q 354 1106 370 1113 q 321 1099 338 1099 q 287 1106 303 1099 q 260 1125 271 1113 q 241 1152 248 1137 q 235 1185 235 1168 z "},"ᑒ":{"ha":1108,"x_min":68,"x_max":1040,"o":"m 68 761 l 68 972 l 558 972 q 744 944 656 972 q 898 856 832 916 q 1002 704 964 796 q 1040 486 1040 612 q 1002 269 1040 361 q 898 118 964 178 q 744 29 832 58 q 558 0 656 0 l 68 0 l 68 212 l 531 212 q 589 215 557 212 q 654 230 621 219 q 718 259 687 240 q 774 308 749 277 q 813 382 798 338 q 828 486 828 426 q 813 589 828 546 q 774 663 798 633 q 718 713 749 694 q 654 743 687 732 q 589 757 621 753 q 531 761 557 761 l 68 761 m 235 1185 q 241 1219 235 1203 q 260 1246 248 1234 q 287 1265 271 1258 q 321 1272 303 1272 q 354 1265 338 1272 q 381 1246 370 1258 q 400 1219 393 1234 q 407 1185 407 1203 q 400 1152 407 1168 q 381 1125 393 1137 q 354 1106 370 1113 q 321 1099 338 1099 q 287 1106 303 1099 q 260 1125 271 1113 q 241 1152 248 1137 q 235 1185 235 1168 m 478 1185 q 485 1219 478 1203 q 503 1246 492 1234 q 531 1265 515 1258 q 564 1272 547 1272 q 597 1265 582 1272 q 625 1246 613 1258 q 644 1219 637 1234 q 650 1185 650 1203 q 644 1152 650 1168 q 625 1125 637 1137 q 597 1106 613 1113 q 564 1099 582 1099 q 531 1106 547 1099 q 503 1125 515 1113 q 485 1152 492 1137 q 478 1185 478 1168 z "},"ᑓ":{"ha":1108,"x_min":68,"x_max":1040,"o":"m 68 761 l 68 972 l 558 972 q 744 944 656 972 q 898 856 832 916 q 1002 704 964 796 q 1040 486 1040 612 q 1002 269 1040 361 q 898 118 964 178 q 744 29 832 58 q 558 0 656 0 l 68 0 l 68 212 l 531 212 q 589 215 557 212 q 654 230 621 219 q 718 259 687 240 q 774 308 749 277 q 813 382 798 338 q 828 486 828 426 q 813 589 828 546 q 774 663 798 633 q 718 713 749 694 q 654 743 687 732 q 589 757 621 753 q 531 761 557 761 l 68 761 m 368 392 l 263 392 l 263 580 l 368 580 l 368 392 z "},"ᑔ":{"ha":1108,"x_min":68,"x_max":1040,"o":"m 68 761 l 68 972 l 558 972 q 744 944 656 972 q 898 856 832 916 q 1002 704 964 796 q 1040 486 1040 612 q 1002 269 1040 361 q 898 118 964 178 q 744 29 832 58 q 558 0 656 0 l 68 0 l 68 212 l 531 212 q 589 215 557 212 q 654 230 621 219 q 718 259 687 240 q 774 308 749 277 q 813 382 798 338 q 828 486 828 426 q 813 589 828 546 q 774 663 798 633 q 718 713 749 694 q 654 743 687 732 q 589 757 621 753 q 531 761 557 761 l 68 761 m 250 486 q 256 519 250 504 q 275 547 263 535 q 302 566 286 559 q 336 572 318 572 q 369 566 353 572 q 396 547 385 559 q 415 519 408 535 q 422 486 422 504 q 415 453 422 469 q 396 426 408 437 q 369 407 385 414 q 336 400 353 400 q 302 407 318 400 q 275 426 286 414 q 256 453 263 437 q 250 486 250 469 z "},"ᑕ":{"ha":1108,"x_min":68,"x_max":1040,"o":"m 577 761 q 519 757 551 761 q 454 743 488 753 q 390 713 421 732 q 334 663 359 694 q 295 589 310 633 q 280 486 280 546 q 295 382 280 426 q 334 308 310 338 q 390 259 359 277 q 454 230 421 240 q 519 215 488 219 q 577 212 551 212 l 1040 212 l 1040 0 l 550 0 q 364 29 452 0 q 210 118 276 58 q 106 269 144 178 q 68 486 68 361 q 106 704 68 612 q 210 856 144 796 q 364 944 276 916 q 550 972 452 972 l 1040 972 l 1040 761 l 577 761 z "},"ᑖ":{"ha":1108,"x_min":68,"x_max":1040,"o":"m 577 761 q 519 757 551 761 q 454 743 488 753 q 390 713 421 732 q 334 663 359 694 q 295 589 310 633 q 280 486 280 546 q 295 382 280 426 q 334 308 310 338 q 390 259 359 277 q 454 230 421 240 q 519 215 488 219 q 577 212 551 212 l 1040 212 l 1040 0 l 550 0 q 364 29 452 0 q 210 118 276 58 q 106 269 144 178 q 68 486 68 361 q 106 704 68 612 q 210 856 144 796 q 364 944 276 916 q 550 972 452 972 l 1040 972 l 1040 761 l 577 761 m 701 1185 q 708 1219 701 1203 q 726 1246 715 1234 q 754 1265 738 1258 q 787 1272 770 1272 q 821 1265 805 1272 q 848 1246 836 1258 q 867 1219 860 1234 q 873 1185 873 1203 q 867 1152 873 1168 q 848 1125 860 1137 q 821 1106 836 1113 q 787 1099 805 1099 q 754 1106 770 1099 q 726 1125 738 1113 q 708 1152 715 1137 q 701 1185 701 1168 z "},"ᑗ":{"ha":1267,"x_min":7,"x_max":1199,"o":"m 438 482 q 442 425 438 456 q 456 359 446 393 q 486 295 467 326 q 536 239 505 264 q 610 200 566 215 q 713 185 653 185 q 817 200 773 185 q 891 239 861 215 q 940 295 922 264 q 969 359 959 326 q 984 425 980 393 q 987 482 987 456 l 987 972 l 1199 972 l 1199 482 q 1170 296 1199 384 q 1081 142 1141 208 q 929 38 1021 77 q 713 0 838 0 q 495 38 587 0 q 343 142 403 77 q 255 296 283 208 q 227 482 227 384 l 227 972 l 438 972 l 438 482 m 7 486 q 14 519 7 504 q 32 547 20 535 q 59 566 43 559 q 93 572 75 572 q 126 566 111 572 q 154 547 142 559 q 172 519 165 535 q 179 486 179 504 q 172 453 179 469 q 154 426 165 437 q 126 407 142 414 q 93 400 111 400 q 59 407 75 400 q 32 426 43 414 q 14 453 20 437 q 7 486 7 469 z "},"ᑘ":{"ha":1267,"x_min":68,"x_max":1260,"o":"m 279 482 q 283 425 279 456 q 298 359 287 393 q 328 295 309 326 q 377 239 347 264 q 451 200 408 215 q 554 185 494 185 q 658 200 614 185 q 732 239 702 215 q 782 295 763 264 q 811 359 800 326 q 825 425 821 393 q 829 482 829 456 l 829 972 l 1040 972 l 1040 482 q 1011 296 1040 384 q 922 142 982 208 q 771 38 863 77 q 554 0 679 0 q 336 38 428 0 q 184 142 244 77 q 96 296 125 208 q 68 482 68 384 l 68 972 l 279 972 l 279 482 m 1088 486 q 1095 519 1088 504 q 1113 547 1101 535 q 1140 566 1124 559 q 1174 572 1156 572 q 1207 566 1192 572 q 1235 547 1223 559 q 1253 519 1246 535 q 1260 486 1260 504 q 1253 453 1260 469 q 1235 426 1246 437 q 1207 407 1223 414 q 1174 400 1192 400 q 1140 407 1156 400 q 1113 426 1124 414 q 1095 453 1101 437 q 1088 486 1088 469 z "},"ᑙ":{"ha":1267,"x_min":7,"x_max":1199,"o":"m 438 0 l 227 0 l 227 490 q 255 676 227 589 q 343 830 283 764 q 495 934 403 896 q 713 972 587 972 q 929 934 838 972 q 1081 830 1021 896 q 1170 676 1141 764 q 1199 490 1199 589 l 1199 0 l 987 0 l 987 490 q 984 548 987 516 q 969 613 980 580 q 940 677 959 646 q 891 733 922 709 q 817 772 861 758 q 713 787 773 787 q 610 772 653 787 q 536 733 566 758 q 486 677 505 709 q 456 613 467 646 q 442 548 446 580 q 438 490 438 516 l 438 0 m 7 486 q 14 519 7 504 q 32 547 20 535 q 59 566 43 559 q 93 572 75 572 q 126 566 111 572 q 154 547 142 559 q 172 519 165 535 q 179 486 179 504 q 172 453 179 469 q 154 426 165 437 q 126 407 142 414 q 93 400 111 400 q 59 407 75 400 q 32 426 43 414 q 14 453 20 437 q 7 486 7 469 z "},"ᑚ":{"ha":1267,"x_min":68,"x_max":1260,"o":"m 279 0 l 68 0 l 68 490 q 96 676 68 589 q 184 830 125 764 q 336 934 244 896 q 554 972 428 972 q 771 934 679 972 q 922 830 863 896 q 1011 676 982 764 q 1040 490 1040 589 l 1040 0 l 829 0 l 829 490 q 825 548 829 516 q 811 613 821 580 q 782 677 800 646 q 732 733 763 709 q 658 772 702 758 q 554 787 614 787 q 451 772 494 787 q 377 733 408 758 q 328 677 347 709 q 298 613 309 646 q 283 548 287 580 q 279 490 279 516 l 279 0 m 1088 486 q 1095 519 1088 504 q 1113 547 1101 535 q 1140 566 1124 559 q 1174 572 1156 572 q 1207 566 1192 572 q 1235 547 1223 559 q 1253 519 1246 535 q 1260 486 1260 504 q 1253 453 1260 469 q 1235 426 1246 437 q 1207 407 1223 414 q 1174 400 1192 400 q 1140 407 1156 400 q 1113 426 1124 414 q 1095 453 1101 437 q 1088 486 1088 469 z "},"ᑛ":{"ha":1267,"x_min":7,"x_max":1199,"o":"m 438 0 l 227 0 l 227 490 q 255 676 227 589 q 343 830 283 764 q 495 934 403 896 q 713 972 587 972 q 929 934 838 972 q 1081 830 1021 896 q 1170 676 1141 764 q 1199 490 1199 589 l 1199 0 l 987 0 l 987 490 q 984 548 987 516 q 969 613 980 580 q 940 677 959 646 q 891 733 922 709 q 817 772 861 758 q 713 787 773 787 q 610 772 653 787 q 536 733 566 758 q 486 677 505 709 q 456 613 467 646 q 442 548 446 580 q 438 490 438 516 l 438 0 m 7 486 q 14 519 7 504 q 32 547 20 535 q 59 566 43 559 q 93 572 75 572 q 126 566 111 572 q 154 547 142 559 q 172 519 165 535 q 179 486 179 504 q 172 453 179 469 q 154 426 165 437 q 126 407 142 414 q 93 400 111 400 q 59 407 75 400 q 32 426 43 414 q 14 453 20 437 q 7 486 7 469 m 627 1185 q 633 1219 627 1203 q 652 1246 640 1234 q 679 1265 663 1258 q 713 1272 695 1272 q 746 1265 730 1272 q 773 1246 762 1258 q 792 1219 785 1234 q 799 1185 799 1203 q 792 1152 799 1168 q 773 1125 785 1137 q 746 1106 762 1113 q 713 1099 730 1099 q 679 1106 695 1099 q 652 1125 663 1113 q 633 1152 640 1137 q 627 1185 627 1168 z "},"ᑜ":{"ha":1267,"x_min":68,"x_max":1260,"o":"m 279 0 l 68 0 l 68 490 q 96 676 68 589 q 184 830 125 764 q 336 934 244 896 q 554 972 428 972 q 771 934 679 972 q 922 830 863 896 q 1011 676 982 764 q 1040 490 1040 589 l 1040 0 l 829 0 l 829 490 q 825 548 829 516 q 811 613 821 580 q 782 677 800 646 q 732 733 763 709 q 658 772 702 758 q 554 787 614 787 q 451 772 494 787 q 377 733 408 758 q 328 677 347 709 q 298 613 309 646 q 283 548 287 580 q 279 490 279 516 l 279 0 m 1088 486 q 1095 519 1088 504 q 1113 547 1101 535 q 1140 566 1124 559 q 1174 572 1156 572 q 1207 566 1192 572 q 1235 547 1223 559 q 1253 519 1246 535 q 1260 486 1260 504 q 1253 453 1260 469 q 1235 426 1246 437 q 1207 407 1223 414 q 1174 400 1192 400 q 1140 407 1156 400 q 1113 426 1124 414 q 1095 453 1101 437 q 1088 486 1088 469 m 468 1185 q 475 1219 468 1203 q 493 1246 481 1234 q 520 1265 505 1258 q 554 1272 536 1272 q 587 1265 572 1272 q 615 1246 603 1258 q 633 1219 627 1234 q 640 1185 640 1203 q 633 1152 640 1168 q 615 1125 627 1137 q 587 1106 603 1113 q 554 1099 572 1099 q 520 1106 536 1099 q 493 1125 505 1113 q 475 1152 481 1137 q 468 1185 468 1168 z "},"ᑝ":{"ha":1267,"x_min":7,"x_max":1199,"o":"m 227 761 l 227 972 l 717 972 q 903 944 815 972 q 1057 856 991 916 q 1161 704 1122 796 q 1199 486 1199 612 q 1161 269 1199 361 q 1057 118 1122 178 q 903 29 991 58 q 717 0 815 0 l 227 0 l 227 212 l 690 212 q 747 215 715 212 q 812 230 779 219 q 877 259 846 240 q 932 308 908 277 q 972 382 957 338 q 987 486 987 426 q 972 589 987 546 q 932 663 957 633 q 877 713 908 694 q 812 743 846 732 q 747 757 779 753 q 690 761 715 761 l 227 761 m 7 486 q 14 519 7 504 q 32 547 20 535 q 59 566 43 559 q 93 572 75 572 q 126 566 111 572 q 154 547 142 559 q 172 519 165 535 q 179 486 179 504 q 172 453 179 469 q 154 426 165 437 q 126 407 142 414 q 93 400 111 400 q 59 407 75 400 q 32 426 43 414 q 14 453 20 437 q 7 486 7 469 z "},"ᑞ":{"ha":1267,"x_min":68,"x_max":1260,"o":"m 68 761 l 68 972 l 558 972 q 744 944 656 972 q 898 856 832 916 q 1002 704 964 796 q 1040 486 1040 612 q 1002 269 1040 361 q 898 118 964 178 q 744 29 832 58 q 558 0 656 0 l 68 0 l 68 212 l 531 212 q 589 215 557 212 q 654 230 621 219 q 718 259 687 240 q 774 308 749 277 q 813 382 798 338 q 828 486 828 426 q 813 589 828 546 q 774 663 798 633 q 718 713 749 694 q 654 743 687 732 q 589 757 621 753 q 531 761 557 761 l 68 761 m 1088 486 q 1095 519 1088 504 q 1113 547 1101 535 q 1140 566 1124 559 q 1174 572 1156 572 q 1207 566 1192 572 q 1235 547 1223 559 q 1253 519 1246 535 q 1260 486 1260 504 q 1253 453 1260 469 q 1235 426 1246 437 q 1207 407 1223 414 q 1174 400 1192 400 q 1140 407 1156 400 q 1113 426 1124 414 q 1095 453 1101 437 q 1088 486 1088 469 z "},"ᑟ":{"ha":1267,"x_min":7,"x_max":1199,"o":"m 227 761 l 227 972 l 717 972 q 903 944 815 972 q 1057 856 991 916 q 1161 704 1122 796 q 1199 486 1199 612 q 1161 269 1199 361 q 1057 118 1122 178 q 903 29 991 58 q 717 0 815 0 l 227 0 l 227 212 l 690 212 q 747 215 715 212 q 812 230 779 219 q 877 259 846 240 q 932 308 908 277 q 972 382 957 338 q 987 486 987 426 q 972 589 987 546 q 932 663 957 633 q 877 713 908 694 q 812 743 846 732 q 747 757 779 753 q 690 761 715 761 l 227 761 m 7 486 q 14 519 7 504 q 32 547 20 535 q 59 566 43 559 q 93 572 75 572 q 126 566 111 572 q 154 547 142 559 q 172 519 165 535 q 179 486 179 504 q 172 453 179 469 q 154 426 165 437 q 126 407 142 414 q 93 400 111 400 q 59 407 75 400 q 32 426 43 414 q 14 453 20 437 q 7 486 7 469 m 393 1185 q 400 1219 393 1203 q 418 1246 407 1234 q 446 1265 430 1258 q 479 1272 462 1272 q 513 1265 497 1272 q 540 1246 528 1258 q 559 1219 552 1234 q 566 1185 566 1203 q 559 1152 566 1168 q 540 1125 552 1137 q 513 1106 528 1113 q 479 1099 497 1099 q 446 1106 462 1099 q 418 1125 430 1113 q 400 1152 407 1137 q 393 1185 393 1168 z "},"ᑠ":{"ha":1267,"x_min":68,"x_max":1260,"o":"m 68 761 l 68 972 l 558 972 q 744 944 656 972 q 898 856 832 916 q 1002 704 964 796 q 1040 486 1040 612 q 1002 269 1040 361 q 898 118 964 178 q 744 29 832 58 q 558 0 656 0 l 68 0 l 68 212 l 531 212 q 589 215 557 212 q 654 230 621 219 q 718 259 687 240 q 774 308 749 277 q 813 382 798 338 q 828 486 828 426 q 813 589 828 546 q 774 663 798 633 q 718 713 749 694 q 654 743 687 732 q 589 757 621 753 q 531 761 557 761 l 68 761 m 1088 486 q 1095 519 1088 504 q 1113 547 1101 535 q 1140 566 1124 559 q 1174 572 1156 572 q 1207 566 1192 572 q 1235 547 1223 559 q 1253 519 1246 535 q 1260 486 1260 504 q 1253 453 1260 469 q 1235 426 1246 437 q 1207 407 1223 414 q 1174 400 1192 400 q 1140 407 1156 400 q 1113 426 1124 414 q 1095 453 1101 437 q 1088 486 1088 469 m 235 1185 q 241 1219 235 1203 q 260 1246 248 1234 q 287 1265 271 1258 q 321 1272 303 1272 q 354 1265 338 1272 q 381 1246 370 1258 q 400 1219 393 1234 q 407 1185 407 1203 q 400 1152 407 1168 q 381 1125 393 1137 q 354 1106 370 1113 q 321 1099 338 1099 q 287 1106 303 1099 q 260 1125 271 1113 q 241 1152 248 1137 q 235 1185 235 1168 z "},"ᑡ":{"ha":1267,"x_min":7,"x_max":1199,"o":"m 736 761 q 678 757 710 761 q 613 743 646 753 q 549 713 580 732 q 493 663 517 694 q 454 589 469 633 q 439 486 439 546 q 454 382 439 426 q 493 308 469 338 q 549 259 517 277 q 613 230 580 240 q 678 215 646 219 q 736 212 710 212 l 1199 212 l 1199 0 l 709 0 q 523 29 610 0 q 369 118 435 58 q 265 269 303 178 q 227 486 227 361 q 265 704 227 612 q 369 856 303 796 q 523 944 435 916 q 709 972 610 972 l 1199 972 l 1199 761 l 736 761 m 7 486 q 14 519 7 504 q 32 547 20 535 q 59 566 43 559 q 93 572 75 572 q 126 566 111 572 q 154 547 142 559 q 172 519 165 535 q 179 486 179 504 q 172 453 179 469 q 154 426 165 437 q 126 407 142 414 q 93 400 111 400 q 59 407 75 400 q 32 426 43 414 q 14 453 20 437 q 7 486 7 469 z "},"ᑢ":{"ha":1267,"x_min":68,"x_max":1260,"o":"m 577 761 q 519 757 551 761 q 454 743 488 753 q 390 713 421 732 q 334 663 359 694 q 295 589 310 633 q 280 486 280 546 q 295 382 280 426 q 334 308 310 338 q 390 259 359 277 q 454 230 421 240 q 519 215 488 219 q 577 212 551 212 l 1040 212 l 1040 0 l 550 0 q 364 29 452 0 q 210 118 276 58 q 106 269 144 178 q 68 486 68 361 q 106 704 68 612 q 210 856 144 796 q 364 944 276 916 q 550 972 452 972 l 1040 972 l 1040 761 l 577 761 m 1088 486 q 1095 519 1088 504 q 1113 547 1101 535 q 1140 566 1124 559 q 1174 572 1156 572 q 1207 566 1192 572 q 1235 547 1223 559 q 1253 519 1246 535 q 1260 486 1260 504 q 1253 453 1260 469 q 1235 426 1246 437 q 1207 407 1223 414 q 1174 400 1192 400 q 1140 407 1156 400 q 1113 426 1124 414 q 1095 453 1101 437 q 1088 486 1088 469 z "},"ᑣ":{"ha":1267,"x_min":7,"x_max":1199,"o":"m 736 761 q 678 757 710 761 q 613 743 646 753 q 549 713 580 732 q 493 663 517 694 q 454 589 469 633 q 439 486 439 546 q 454 382 439 426 q 493 308 469 338 q 549 259 517 277 q 613 230 580 240 q 678 215 646 219 q 736 212 710 212 l 1199 212 l 1199 0 l 709 0 q 523 29 610 0 q 369 118 435 58 q 265 269 303 178 q 227 486 227 361 q 265 704 227 612 q 369 856 303 796 q 523 944 435 916 q 709 972 610 972 l 1199 972 l 1199 761 l 736 761 m 7 486 q 14 519 7 504 q 32 547 20 535 q 59 566 43 559 q 93 572 75 572 q 126 566 111 572 q 154 547 142 559 q 172 519 165 535 q 179 486 179 504 q 172 453 179 469 q 154 426 165 437 q 126 407 142 414 q 93 400 111 400 q 59 407 75 400 q 32 426 43 414 q 14 453 20 437 q 7 486 7 469 m 880 1185 q 887 1219 880 1203 q 905 1246 894 1234 q 933 1265 917 1258 q 966 1272 949 1272 q 1000 1265 984 1272 q 1027 1246 1015 1258 q 1046 1219 1039 1234 q 1053 1185 1053 1203 q 1046 1152 1053 1168 q 1027 1125 1039 1137 q 1000 1106 1015 1113 q 966 1099 984 1099 q 933 1106 949 1099 q 905 1125 917 1113 q 887 1152 894 1137 q 880 1185 880 1168 z "},"ᑤ":{"ha":1267,"x_min":68,"x_max":1260,"o":"m 577 761 q 519 757 551 761 q 454 743 488 753 q 390 713 421 732 q 334 663 359 694 q 295 589 310 633 q 280 486 280 546 q 295 382 280 426 q 334 308 310 338 q 390 259 359 277 q 454 230 421 240 q 519 215 488 219 q 577 212 551 212 l 1040 212 l 1040 0 l 550 0 q 364 29 452 0 q 210 118 276 58 q 106 269 144 178 q 68 486 68 361 q 106 704 68 612 q 210 856 144 796 q 364 944 276 916 q 550 972 452 972 l 1040 972 l 1040 761 l 577 761 m 1088 486 q 1095 519 1088 504 q 1113 547 1101 535 q 1140 566 1124 559 q 1174 572 1156 572 q 1207 566 1192 572 q 1235 547 1223 559 q 1253 519 1246 535 q 1260 486 1260 504 q 1253 453 1260 469 q 1235 426 1246 437 q 1207 407 1223 414 q 1174 400 1192 400 q 1140 407 1156 400 q 1113 426 1124 414 q 1095 453 1101 437 q 1088 486 1088 469 m 722 1185 q 728 1219 722 1203 q 747 1246 735 1234 q 774 1265 758 1258 q 808 1272 790 1272 q 841 1265 825 1272 q 868 1246 857 1258 q 887 1219 880 1234 q 894 1185 894 1203 q 887 1152 894 1168 q 868 1125 880 1137 q 841 1106 857 1113 q 808 1099 825 1099 q 774 1106 790 1099 q 747 1125 758 1113 q 728 1152 735 1137 q 722 1185 722 1168 z "},"ᑥ":{"ha":1267,"x_min":7,"x_max":1199,"o":"m 736 761 q 678 757 710 761 q 613 743 646 753 q 549 713 580 732 q 493 663 517 694 q 454 589 469 633 q 439 486 439 546 q 454 382 439 426 q 493 308 469 338 q 549 259 517 277 q 613 230 580 240 q 678 215 646 219 q 736 212 710 212 l 1199 212 l 1199 0 l 709 0 q 523 29 610 0 q 369 118 435 58 q 265 269 303 178 q 227 486 227 361 q 265 704 227 612 q 369 856 303 796 q 523 944 435 916 q 709 972 610 972 l 1199 972 l 1199 761 l 736 761 m 7 730 q 14 764 7 748 q 32 791 20 779 q 59 810 43 803 q 93 817 75 817 q 126 810 111 817 q 154 791 142 803 q 172 764 165 779 q 179 730 179 748 q 172 697 179 713 q 154 670 165 682 q 126 651 142 658 q 93 644 111 644 q 59 651 75 644 q 32 670 43 658 q 14 697 20 682 q 7 730 7 713 m 7 244 q 14 277 7 262 q 32 305 20 293 q 59 323 43 317 q 93 330 75 330 q 126 323 111 330 q 154 305 142 317 q 172 277 165 293 q 179 244 179 262 q 172 211 179 227 q 154 183 165 195 q 126 165 142 172 q 93 158 111 158 q 59 165 75 158 q 32 183 43 172 q 14 211 20 195 q 7 244 7 227 z "},"ᑦ":{"ha":622,"x_min":68,"x_max":554,"o":"m 311 486 q 216 505 260 486 q 139 557 172 524 q 87 635 106 591 q 68 730 68 679 q 87 824 68 780 q 139 902 106 869 q 216 954 172 935 q 311 972 260 972 l 554 972 l 554 861 l 311 861 q 264 853 288 861 q 222 829 241 846 q 191 789 203 813 q 179 730 179 764 q 191 670 179 695 q 222 629 203 646 q 264 605 241 613 q 311 597 288 597 l 554 597 l 554 486 l 311 486 z "},"ᑧ":{"ha":1260,"x_min":68,"x_max":1192,"o":"m 279 482 q 283 425 279 456 q 298 359 287 393 q 328 295 309 326 q 377 239 347 264 q 451 200 408 215 q 554 185 494 185 q 658 200 614 185 q 732 239 702 215 q 782 295 763 264 q 811 359 800 326 q 825 425 821 393 q 829 482 829 456 l 829 972 l 1040 972 l 1040 482 q 1011 296 1040 384 q 922 142 982 208 q 771 38 863 77 q 554 0 679 0 q 336 38 428 0 q 184 142 244 77 q 96 296 125 208 q 68 482 68 384 l 68 972 l 279 972 l 279 482 m 1108 486 l 1108 972 l 1192 972 l 1192 486 l 1108 486 z "},"ᑨ":{"ha":1260,"x_min":68,"x_max":1192,"o":"m 279 0 l 68 0 l 68 490 q 96 676 68 589 q 184 830 125 764 q 336 934 244 896 q 554 972 428 972 q 771 934 679 972 q 922 830 863 896 q 1011 676 982 764 q 1040 490 1040 589 l 1040 0 l 829 0 l 829 490 q 825 548 829 516 q 811 613 821 580 q 782 677 800 646 q 732 733 763 709 q 658 772 702 758 q 554 787 614 787 q 451 772 494 787 q 377 733 408 758 q 328 677 347 709 q 298 613 309 646 q 283 548 287 580 q 279 490 279 516 l 279 0 m 1108 486 l 1108 972 l 1192 972 l 1192 486 l 1108 486 z "},"ᑩ":{"ha":1260,"x_min":68,"x_max":1192,"o":"m 68 761 l 68 972 l 558 972 q 744 944 656 972 q 898 856 832 916 q 1002 704 964 796 q 1040 486 1040 612 q 1002 269 1040 361 q 898 118 964 178 q 744 29 832 58 q 558 0 656 0 l 68 0 l 68 212 l 531 212 q 589 215 557 212 q 654 230 621 219 q 718 259 687 240 q 774 308 749 277 q 813 382 798 338 q 828 486 828 426 q 813 589 828 546 q 774 663 798 633 q 718 713 749 694 q 654 743 687 732 q 589 757 621 753 q 531 761 557 761 l 68 761 m 1108 486 l 1108 972 l 1192 972 l 1192 486 l 1108 486 z "},"ᑪ":{"ha":1260,"x_min":68,"x_max":1192,"o":"m 577 761 q 519 757 551 761 q 454 743 488 753 q 390 713 421 732 q 334 663 359 694 q 295 589 310 633 q 280 486 280 546 q 295 382 280 426 q 334 308 310 338 q 390 259 359 277 q 454 230 421 240 q 519 215 488 219 q 577 212 551 212 l 1040 212 l 1040 0 l 550 0 q 364 29 452 0 q 210 118 276 58 q 106 269 144 178 q 68 486 68 361 q 106 704 68 612 q 210 856 144 796 q 364 944 276 916 q 550 972 452 972 l 1040 972 l 1040 761 l 577 761 m 1108 486 l 1108 972 l 1192 972 l 1192 486 l 1108 486 z "},"ᑫ":{"ha":790,"x_min":68,"x_max":722,"o":"m 511 372 l 395 372 q 260 396 321 372 q 157 460 200 419 q 91 555 115 500 q 68 672 68 610 q 92 789 68 734 q 158 884 115 844 q 262 949 201 925 q 395 972 322 972 q 525 949 465 972 q 629 884 585 925 q 697 789 673 844 q 722 672 722 734 l 722 0 l 511 0 l 511 372 m 511 672 q 503 715 511 694 q 479 753 494 736 q 443 779 465 769 q 394 788 421 788 q 352 781 372 788 q 315 758 331 773 q 289 722 299 743 q 279 672 279 701 q 289 625 279 646 q 314 588 298 604 q 351 565 330 573 q 394 557 372 557 l 511 557 l 511 672 z "},"ᑬ":{"ha":790,"x_min":68,"x_max":722,"o":"m 279 0 l 68 0 l 68 672 q 93 789 68 734 q 161 884 117 844 q 264 949 205 925 q 395 972 324 972 q 528 949 468 972 q 632 884 589 925 q 699 789 675 844 q 722 672 722 734 q 699 555 722 610 q 633 460 675 500 q 530 396 590 419 q 395 372 469 372 l 279 372 l 279 0 m 279 557 l 396 557 q 439 565 418 557 q 476 588 460 573 q 501 625 492 604 q 511 672 511 646 q 501 722 511 701 q 475 758 491 743 q 438 781 459 773 q 396 788 418 788 q 347 779 368 788 q 310 753 326 769 q 287 715 295 736 q 279 672 279 694 l 279 557 m 334 1184 q 352 1140 334 1158 q 395 1122 370 1122 q 439 1140 421 1122 q 457 1184 457 1158 q 439 1228 457 1210 q 395 1246 421 1246 q 352 1228 370 1246 q 334 1184 334 1210 m 252 1186 q 263 1241 252 1215 q 294 1286 275 1267 q 339 1317 313 1305 q 395 1328 366 1328 q 450 1317 424 1328 q 496 1286 476 1305 q 528 1241 516 1267 q 539 1186 539 1215 q 528 1131 539 1157 q 496 1084 516 1104 q 450 1052 476 1064 q 395 1040 424 1040 q 339 1052 366 1040 q 294 1084 313 1064 q 263 1131 275 1104 q 252 1186 252 1157 z "},"ᑭ":{"ha":790,"x_min":68,"x_max":722,"o":"m 279 0 l 68 0 l 68 672 q 93 789 68 734 q 161 884 117 844 q 264 949 205 925 q 395 972 324 972 q 528 949 468 972 q 632 884 589 925 q 699 789 675 844 q 722 672 722 734 q 699 555 722 610 q 633 460 675 500 q 530 396 590 419 q 395 372 469 372 l 279 372 l 279 0 m 279 557 l 396 557 q 439 565 418 557 q 476 588 460 573 q 501 625 492 604 q 511 672 511 646 q 501 722 511 701 q 475 758 491 743 q 438 781 459 773 q 396 788 418 788 q 347 779 368 788 q 310 753 326 769 q 287 715 295 736 q 279 672 279 694 l 279 557 z "},"ᑮ":{"ha":790,"x_min":68,"x_max":722,"o":"m 279 0 l 68 0 l 68 672 q 93 789 68 734 q 161 884 117 844 q 264 949 205 925 q 395 972 324 972 q 528 949 468 972 q 632 884 589 925 q 699 789 675 844 q 722 672 722 734 q 699 555 722 610 q 633 460 675 500 q 530 396 590 419 q 395 372 469 372 l 279 372 l 279 0 m 279 557 l 396 557 q 439 565 418 557 q 476 588 460 573 q 501 625 492 604 q 511 672 511 646 q 501 722 511 701 q 475 758 491 743 q 438 781 459 773 q 396 788 418 788 q 347 779 368 788 q 310 753 326 769 q 287 715 295 736 q 279 672 279 694 l 279 557 m 309 1185 q 315 1219 309 1203 q 334 1246 322 1234 q 361 1265 345 1258 q 395 1272 377 1272 q 428 1265 412 1272 q 455 1246 444 1258 q 474 1219 467 1234 q 481 1185 481 1203 q 474 1152 481 1168 q 455 1125 467 1137 q 428 1106 444 1113 q 395 1099 412 1099 q 361 1106 377 1099 q 334 1125 345 1113 q 315 1152 322 1137 q 309 1185 309 1168 z "},"ᑯ":{"ha":790,"x_min":68,"x_max":722,"o":"m 511 972 l 722 972 l 722 300 q 697 183 722 238 q 629 88 673 129 q 525 24 585 47 q 395 0 465 0 q 262 24 322 0 q 158 88 201 47 q 92 183 115 129 q 68 300 68 238 q 91 417 68 362 q 157 512 115 471 q 260 576 200 553 q 395 600 321 600 l 511 600 l 511 972 m 511 416 l 394 416 q 351 408 372 416 q 314 384 330 399 q 289 348 298 369 q 279 300 279 327 q 289 251 279 272 q 315 214 299 229 q 352 192 331 199 q 394 184 372 184 q 443 195 421 184 q 480 222 465 205 q 503 260 495 239 q 511 300 511 281 l 511 416 z "},"ᑰ":{"ha":790,"x_min":68,"x_max":722,"o":"m 511 972 l 722 972 l 722 300 q 697 183 722 238 q 629 88 673 129 q 525 24 585 47 q 395 0 465 0 q 262 24 322 0 q 158 88 201 47 q 92 183 115 129 q 68 300 68 238 q 91 417 68 362 q 157 512 115 471 q 260 576 200 553 q 395 600 321 600 l 511 600 l 511 972 m 511 416 l 394 416 q 351 408 372 416 q 314 384 330 399 q 289 348 298 369 q 279 300 279 327 q 289 251 279 272 q 315 214 299 229 q 352 192 331 199 q 394 184 372 184 q 443 195 421 184 q 480 222 465 205 q 503 260 495 239 q 511 300 511 281 l 511 416 m 530 1185 q 537 1219 530 1203 q 555 1246 544 1234 q 583 1265 567 1258 q 616 1272 599 1272 q 650 1265 634 1272 q 677 1246 665 1258 q 696 1219 689 1234 q 703 1185 703 1203 q 696 1152 703 1168 q 677 1125 689 1137 q 650 1106 665 1113 q 616 1099 634 1099 q 583 1106 599 1099 q 555 1125 567 1113 q 537 1152 544 1137 q 530 1185 530 1168 z "},"ᑱ":{"ha":790,"x_min":68,"x_max":722,"o":"m 511 972 l 722 972 l 722 300 q 697 183 722 238 q 629 88 673 129 q 525 24 585 47 q 395 0 465 0 q 262 24 322 0 q 158 88 201 47 q 92 183 115 129 q 68 300 68 238 q 91 417 68 362 q 157 512 115 471 q 260 576 200 553 q 395 600 321 600 l 511 600 l 511 972 m 511 416 l 394 416 q 351 408 372 416 q 314 384 330 399 q 289 348 298 369 q 279 300 279 327 q 289 251 279 272 q 315 214 299 229 q 352 192 331 199 q 394 184 372 184 q 443 195 421 184 q 480 222 465 205 q 503 260 495 239 q 511 300 511 281 l 511 416 m 530 1185 q 537 1219 530 1203 q 555 1246 544 1234 q 583 1265 567 1258 q 616 1272 599 1272 q 650 1265 634 1272 q 677 1246 665 1258 q 696 1219 689 1234 q 703 1185 703 1203 q 696 1152 703 1168 q 677 1125 689 1137 q 650 1106 665 1113 q 616 1099 634 1099 q 583 1106 599 1099 q 555 1125 567 1113 q 537 1152 544 1137 q 530 1185 530 1168 m 290 1185 q 297 1219 290 1203 q 315 1246 304 1234 q 343 1265 327 1258 q 376 1272 359 1272 q 410 1265 394 1272 q 437 1246 425 1258 q 456 1219 449 1234 q 463 1185 463 1203 q 456 1152 463 1168 q 437 1125 449 1137 q 410 1106 425 1113 q 376 1099 394 1099 q 343 1106 359 1099 q 315 1125 327 1113 q 297 1152 304 1137 q 290 1185 290 1168 z "},"ᑲ":{"ha":790,"x_min":68,"x_max":722,"o":"m 279 600 l 395 600 q 530 576 469 600 q 633 512 590 553 q 699 417 675 471 q 722 300 722 362 q 699 183 722 238 q 632 88 675 129 q 528 24 589 47 q 395 0 468 0 q 264 24 324 0 q 161 88 205 47 q 93 183 117 129 q 68 300 68 238 l 68 972 l 279 972 l 279 600 m 279 300 q 287 257 279 278 q 310 220 295 236 q 347 194 326 203 q 396 184 368 184 q 438 192 418 184 q 475 214 459 199 q 501 251 491 229 q 511 300 511 272 q 501 348 511 327 q 476 384 492 369 q 439 408 460 399 q 396 416 418 416 l 279 416 l 279 300 z "},"ᑳ":{"ha":790,"x_min":68,"x_max":722,"o":"m 279 600 l 395 600 q 530 576 469 600 q 633 512 590 553 q 699 417 675 471 q 722 300 722 362 q 699 183 722 238 q 632 88 675 129 q 528 24 589 47 q 395 0 468 0 q 264 24 324 0 q 161 88 205 47 q 93 183 117 129 q 68 300 68 238 l 68 972 l 279 972 l 279 600 m 279 300 q 287 257 279 278 q 310 220 295 236 q 347 194 326 203 q 396 184 368 184 q 438 192 418 184 q 475 214 459 199 q 501 251 491 229 q 511 300 511 272 q 501 348 511 327 q 476 384 492 369 q 439 408 460 399 q 396 416 418 416 l 279 416 l 279 300 m 87 1185 q 94 1219 87 1203 q 113 1246 101 1234 q 140 1265 124 1258 q 174 1272 156 1272 q 207 1265 191 1272 q 234 1246 222 1258 q 253 1219 246 1234 q 260 1185 260 1203 q 253 1152 260 1168 q 234 1125 246 1137 q 207 1106 222 1113 q 174 1099 191 1099 q 140 1106 156 1099 q 113 1125 124 1113 q 94 1152 101 1137 q 87 1185 87 1168 z "},"ᑴ":{"ha":949,"x_min":7,"x_max":881,"o":"m 669 372 l 554 372 q 419 396 479 372 q 316 460 359 419 q 250 555 273 500 q 227 672 227 610 q 250 789 227 734 q 317 884 274 844 q 420 949 360 925 q 554 972 481 972 q 684 949 624 972 q 788 884 744 925 q 856 789 831 844 q 881 672 881 734 l 881 0 l 669 0 l 669 372 m 669 672 q 661 715 669 694 q 638 753 653 736 q 602 779 623 769 q 553 788 580 788 q 510 781 531 788 q 474 758 490 773 q 448 722 458 743 q 438 672 438 701 q 448 625 438 646 q 473 588 457 604 q 510 565 489 573 q 553 557 530 557 l 669 557 l 669 672 m 7 486 q 14 519 7 504 q 32 547 20 535 q 59 566 43 559 q 93 572 75 572 q 126 566 111 572 q 154 547 142 559 q 172 519 165 535 q 179 486 179 504 q 172 453 179 469 q 154 426 165 437 q 126 407 142 414 q 93 400 111 400 q 59 407 75 400 q 32 426 43 414 q 14 453 20 437 q 7 486 7 469 z "}}}
